G04 #@! TF.GenerationSoftware,KiCad,Pcbnew,7.0.1*
G04 #@! TF.CreationDate,2023-04-22T18:43:02+03:00*
G04 #@! TF.ProjectId,esp_radio,6573705f-7261-4646-996f-2e6b69636164,rev?*
G04 #@! TF.SameCoordinates,Original*
G04 #@! TF.FileFunction,Legend,Bot*
G04 #@! TF.FilePolarity,Positive*
%FSLAX46Y46*%
G04 Gerber Fmt 4.6, Leading zero omitted, Abs format (unit mm)*
G04 Created by KiCad (PCBNEW 7.0.1) date 2023-04-22 18:43:02*
%MOMM*%
%LPD*%
G01*
G04 APERTURE LIST*
G04 Aperture macros list*
%AMRoundRect*
0 Rectangle with rounded corners*
0 $1 Rounding radius*
0 $2 $3 $4 $5 $6 $7 $8 $9 X,Y pos of 4 corners*
0 Add a 4 corners polygon primitive as box body*
4,1,4,$2,$3,$4,$5,$6,$7,$8,$9,$2,$3,0*
0 Add four circle primitives for the rounded corners*
1,1,$1+$1,$2,$3*
1,1,$1+$1,$4,$5*
1,1,$1+$1,$6,$7*
1,1,$1+$1,$8,$9*
0 Add four rect primitives between the rounded corners*
20,1,$1+$1,$2,$3,$4,$5,0*
20,1,$1+$1,$4,$5,$6,$7,0*
20,1,$1+$1,$6,$7,$8,$9,0*
20,1,$1+$1,$8,$9,$2,$3,0*%
G04 Aperture macros list end*
%ADD10C,0.150000*%
%ADD11C,0.300000*%
%ADD12C,0.120000*%
%ADD13R,1.600000X1.600000*%
%ADD14C,1.600000*%
%ADD15C,3.400000*%
%ADD16C,6.000000*%
%ADD17C,2.000000*%
%ADD18RoundRect,0.250000X-0.600000X-0.725000X0.600000X-0.725000X0.600000X0.725000X-0.600000X0.725000X0*%
%ADD19O,1.700000X1.950000*%
%ADD20R,1.700000X1.700000*%
%ADD21R,2.000000X2.000000*%
%ADD22R,2.500000X4.000000*%
%ADD23C,1.500000*%
%ADD24C,0.800000*%
%ADD25O,1.700000X1.700000*%
%ADD26C,2.374900*%
%ADD27C,0.990600*%
%ADD28O,1.600000X1.600000*%
%ADD29RoundRect,0.250000X0.600000X0.725000X-0.600000X0.725000X-0.600000X-0.725000X0.600000X-0.725000X0*%
%ADD30RoundRect,0.250000X0.750000X-0.600000X0.750000X0.600000X-0.750000X0.600000X-0.750000X-0.600000X0*%
%ADD31O,2.000000X1.700000*%
%ADD32RoundRect,0.250000X0.600000X0.750000X-0.600000X0.750000X-0.600000X-0.750000X0.600000X-0.750000X0*%
%ADD33O,1.700000X2.000000*%
G04 #@! TA.AperFunction,Profile*
%ADD34C,0.100000*%
G04 #@! TD*
G04 APERTURE END LIST*
D10*
X190885000Y-24490000D02*
X198505000Y-24490000D01*
X198505000Y-35285000D01*
X190885000Y-35285000D01*
X190885000Y-24490000D01*
X201930000Y-143510000D02*
X217805000Y-143510000D01*
X217805000Y-150495000D01*
X201930000Y-150495000D01*
X201930000Y-143510000D01*
X121920000Y-86360000D02*
X140970000Y-86360000D01*
X140970000Y-92710000D01*
X121920000Y-92710000D01*
X121920000Y-86360000D01*
X142875000Y-66675000D02*
X154940000Y-66675000D01*
X154940000Y-73025000D01*
X142875000Y-73025000D01*
X142875000Y-66675000D01*
X162682380Y-139461904D02*
X163682380Y-139461904D01*
X163682380Y-139461904D02*
X162968095Y-139128571D01*
X162968095Y-139128571D02*
X163682380Y-138795238D01*
X163682380Y-138795238D02*
X162682380Y-138795238D01*
X162777619Y-137747619D02*
X162730000Y-137795238D01*
X162730000Y-137795238D02*
X162682380Y-137938095D01*
X162682380Y-137938095D02*
X162682380Y-138033333D01*
X162682380Y-138033333D02*
X162730000Y-138176190D01*
X162730000Y-138176190D02*
X162825238Y-138271428D01*
X162825238Y-138271428D02*
X162920476Y-138319047D01*
X162920476Y-138319047D02*
X163110952Y-138366666D01*
X163110952Y-138366666D02*
X163253809Y-138366666D01*
X163253809Y-138366666D02*
X163444285Y-138319047D01*
X163444285Y-138319047D02*
X163539523Y-138271428D01*
X163539523Y-138271428D02*
X163634761Y-138176190D01*
X163634761Y-138176190D02*
X163682380Y-138033333D01*
X163682380Y-138033333D02*
X163682380Y-137938095D01*
X163682380Y-137938095D02*
X163634761Y-137795238D01*
X163634761Y-137795238D02*
X163587142Y-137747619D01*
X162682380Y-136842857D02*
X162682380Y-137319047D01*
X162682380Y-137319047D02*
X163682380Y-137319047D01*
X162682380Y-136509523D02*
X163682380Y-136509523D01*
X162682380Y-135938095D02*
X163253809Y-136366666D01*
X163682380Y-135938095D02*
X163110952Y-136509523D01*
X133270714Y-94492619D02*
X133746904Y-94492619D01*
X133746904Y-94492619D02*
X133746904Y-93492619D01*
X132937380Y-94492619D02*
X132937380Y-93492619D01*
X132461190Y-94492619D02*
X132461190Y-93492619D01*
X132461190Y-93492619D02*
X131889762Y-94492619D01*
X131889762Y-94492619D02*
X131889762Y-93492619D01*
X131413571Y-93968809D02*
X131080238Y-93968809D01*
X130937381Y-94492619D02*
X131413571Y-94492619D01*
X131413571Y-94492619D02*
X131413571Y-93492619D01*
X131413571Y-93492619D02*
X130937381Y-93492619D01*
X129556428Y-93492619D02*
X129365952Y-93492619D01*
X129365952Y-93492619D02*
X129270714Y-93540238D01*
X129270714Y-93540238D02*
X129175476Y-93635476D01*
X129175476Y-93635476D02*
X129127857Y-93825952D01*
X129127857Y-93825952D02*
X129127857Y-94159285D01*
X129127857Y-94159285D02*
X129175476Y-94349761D01*
X129175476Y-94349761D02*
X129270714Y-94445000D01*
X129270714Y-94445000D02*
X129365952Y-94492619D01*
X129365952Y-94492619D02*
X129556428Y-94492619D01*
X129556428Y-94492619D02*
X129651666Y-94445000D01*
X129651666Y-94445000D02*
X129746904Y-94349761D01*
X129746904Y-94349761D02*
X129794523Y-94159285D01*
X129794523Y-94159285D02*
X129794523Y-93825952D01*
X129794523Y-93825952D02*
X129746904Y-93635476D01*
X129746904Y-93635476D02*
X129651666Y-93540238D01*
X129651666Y-93540238D02*
X129556428Y-93492619D01*
X128699285Y-93492619D02*
X128699285Y-94302142D01*
X128699285Y-94302142D02*
X128651666Y-94397380D01*
X128651666Y-94397380D02*
X128604047Y-94445000D01*
X128604047Y-94445000D02*
X128508809Y-94492619D01*
X128508809Y-94492619D02*
X128318333Y-94492619D01*
X128318333Y-94492619D02*
X128223095Y-94445000D01*
X128223095Y-94445000D02*
X128175476Y-94397380D01*
X128175476Y-94397380D02*
X128127857Y-94302142D01*
X128127857Y-94302142D02*
X128127857Y-93492619D01*
X127794523Y-93492619D02*
X127223095Y-93492619D01*
X127508809Y-94492619D02*
X127508809Y-93492619D01*
X226499761Y-136398095D02*
X226547380Y-136493333D01*
X226547380Y-136493333D02*
X226547380Y-136636190D01*
X226547380Y-136636190D02*
X226499761Y-136779047D01*
X226499761Y-136779047D02*
X226404523Y-136874285D01*
X226404523Y-136874285D02*
X226309285Y-136921904D01*
X226309285Y-136921904D02*
X226118809Y-136969523D01*
X226118809Y-136969523D02*
X225975952Y-136969523D01*
X225975952Y-136969523D02*
X225785476Y-136921904D01*
X225785476Y-136921904D02*
X225690238Y-136874285D01*
X225690238Y-136874285D02*
X225595000Y-136779047D01*
X225595000Y-136779047D02*
X225547380Y-136636190D01*
X225547380Y-136636190D02*
X225547380Y-136540952D01*
X225547380Y-136540952D02*
X225595000Y-136398095D01*
X225595000Y-136398095D02*
X225642619Y-136350476D01*
X225642619Y-136350476D02*
X225975952Y-136350476D01*
X225975952Y-136350476D02*
X225975952Y-136540952D01*
X225547380Y-135921904D02*
X226547380Y-135921904D01*
X226547380Y-135921904D02*
X225547380Y-135350476D01*
X225547380Y-135350476D02*
X226547380Y-135350476D01*
X225547380Y-134874285D02*
X226547380Y-134874285D01*
X226547380Y-134874285D02*
X226547380Y-134636190D01*
X226547380Y-134636190D02*
X226499761Y-134493333D01*
X226499761Y-134493333D02*
X226404523Y-134398095D01*
X226404523Y-134398095D02*
X226309285Y-134350476D01*
X226309285Y-134350476D02*
X226118809Y-134302857D01*
X226118809Y-134302857D02*
X225975952Y-134302857D01*
X225975952Y-134302857D02*
X225785476Y-134350476D01*
X225785476Y-134350476D02*
X225690238Y-134398095D01*
X225690238Y-134398095D02*
X225595000Y-134493333D01*
X225595000Y-134493333D02*
X225547380Y-134636190D01*
X225547380Y-134636190D02*
X225547380Y-134874285D01*
D11*
X229838380Y-66430142D02*
X229933619Y-66334904D01*
X229933619Y-66334904D02*
X230124095Y-66049190D01*
X230124095Y-66049190D02*
X230219333Y-65858714D01*
X230219333Y-65858714D02*
X230314571Y-65573000D01*
X230314571Y-65573000D02*
X230409809Y-65096809D01*
X230409809Y-65096809D02*
X230409809Y-64715857D01*
X230409809Y-64715857D02*
X230314571Y-64239666D01*
X230314571Y-64239666D02*
X230219333Y-63953952D01*
X230219333Y-63953952D02*
X230124095Y-63763476D01*
X230124095Y-63763476D02*
X229933619Y-63477761D01*
X229933619Y-63477761D02*
X229838380Y-63382523D01*
X227933619Y-65477761D02*
X228028857Y-65573000D01*
X228028857Y-65573000D02*
X228314571Y-65668238D01*
X228314571Y-65668238D02*
X228505047Y-65668238D01*
X228505047Y-65668238D02*
X228790762Y-65573000D01*
X228790762Y-65573000D02*
X228981238Y-65382523D01*
X228981238Y-65382523D02*
X229076476Y-65192047D01*
X229076476Y-65192047D02*
X229171714Y-64811095D01*
X229171714Y-64811095D02*
X229171714Y-64525380D01*
X229171714Y-64525380D02*
X229076476Y-64144428D01*
X229076476Y-64144428D02*
X228981238Y-63953952D01*
X228981238Y-63953952D02*
X228790762Y-63763476D01*
X228790762Y-63763476D02*
X228505047Y-63668238D01*
X228505047Y-63668238D02*
X228314571Y-63668238D01*
X228314571Y-63668238D02*
X228028857Y-63763476D01*
X228028857Y-63763476D02*
X227933619Y-63858714D01*
X227266952Y-66430142D02*
X227171714Y-66334904D01*
X227171714Y-66334904D02*
X226981238Y-66049190D01*
X226981238Y-66049190D02*
X226886000Y-65858714D01*
X226886000Y-65858714D02*
X226790762Y-65573000D01*
X226790762Y-65573000D02*
X226695524Y-65096809D01*
X226695524Y-65096809D02*
X226695524Y-64715857D01*
X226695524Y-64715857D02*
X226790762Y-64239666D01*
X226790762Y-64239666D02*
X226886000Y-63953952D01*
X226886000Y-63953952D02*
X226981238Y-63763476D01*
X226981238Y-63763476D02*
X227171714Y-63477761D01*
X227171714Y-63477761D02*
X227266952Y-63382523D01*
X224505047Y-63668238D02*
X223838381Y-65668238D01*
X223838381Y-65668238D02*
X223171714Y-63668238D01*
X221647904Y-65668238D02*
X221647904Y-64620619D01*
X221647904Y-64620619D02*
X221743142Y-64430142D01*
X221743142Y-64430142D02*
X221933618Y-64334904D01*
X221933618Y-64334904D02*
X222314571Y-64334904D01*
X222314571Y-64334904D02*
X222505047Y-64430142D01*
X221647904Y-65573000D02*
X221838380Y-65668238D01*
X221838380Y-65668238D02*
X222314571Y-65668238D01*
X222314571Y-65668238D02*
X222505047Y-65573000D01*
X222505047Y-65573000D02*
X222600285Y-65382523D01*
X222600285Y-65382523D02*
X222600285Y-65192047D01*
X222600285Y-65192047D02*
X222505047Y-65001571D01*
X222505047Y-65001571D02*
X222314571Y-64906333D01*
X222314571Y-64906333D02*
X221838380Y-64906333D01*
X221838380Y-64906333D02*
X221647904Y-64811095D01*
X220790761Y-65573000D02*
X220600285Y-65668238D01*
X220600285Y-65668238D02*
X220219333Y-65668238D01*
X220219333Y-65668238D02*
X220028856Y-65573000D01*
X220028856Y-65573000D02*
X219933618Y-65382523D01*
X219933618Y-65382523D02*
X219933618Y-65287285D01*
X219933618Y-65287285D02*
X220028856Y-65096809D01*
X220028856Y-65096809D02*
X220219333Y-65001571D01*
X220219333Y-65001571D02*
X220505047Y-65001571D01*
X220505047Y-65001571D02*
X220695523Y-64906333D01*
X220695523Y-64906333D02*
X220790761Y-64715857D01*
X220790761Y-64715857D02*
X220790761Y-64620619D01*
X220790761Y-64620619D02*
X220695523Y-64430142D01*
X220695523Y-64430142D02*
X220505047Y-64334904D01*
X220505047Y-64334904D02*
X220219333Y-64334904D01*
X220219333Y-64334904D02*
X220028856Y-64430142D01*
X219076475Y-65668238D02*
X219076475Y-64334904D01*
X219076475Y-63668238D02*
X219171713Y-63763476D01*
X219171713Y-63763476D02*
X219076475Y-63858714D01*
X219076475Y-63858714D02*
X218981237Y-63763476D01*
X218981237Y-63763476D02*
X219076475Y-63668238D01*
X219076475Y-63668238D02*
X219076475Y-63858714D01*
X217838380Y-65668238D02*
X218028856Y-65573000D01*
X218028856Y-65573000D02*
X218124094Y-65382523D01*
X218124094Y-65382523D02*
X218124094Y-63668238D01*
X217266951Y-64334904D02*
X216790761Y-65668238D01*
X216314570Y-64334904D02*
X216790761Y-65668238D01*
X216790761Y-65668238D02*
X216981237Y-66144428D01*
X216981237Y-66144428D02*
X217076475Y-66239666D01*
X217076475Y-66239666D02*
X217266951Y-66334904D01*
X214028855Y-65668238D02*
X214028855Y-63668238D01*
X214028855Y-63668238D02*
X213552665Y-63668238D01*
X213552665Y-63668238D02*
X213266950Y-63763476D01*
X213266950Y-63763476D02*
X213076474Y-63953952D01*
X213076474Y-63953952D02*
X212981236Y-64144428D01*
X212981236Y-64144428D02*
X212885998Y-64525380D01*
X212885998Y-64525380D02*
X212885998Y-64811095D01*
X212885998Y-64811095D02*
X212981236Y-65192047D01*
X212981236Y-65192047D02*
X213076474Y-65382523D01*
X213076474Y-65382523D02*
X213266950Y-65573000D01*
X213266950Y-65573000D02*
X213552665Y-65668238D01*
X213552665Y-65668238D02*
X214028855Y-65668238D01*
X212219331Y-64334904D02*
X211743141Y-65668238D01*
X211266950Y-64334904D02*
X211743141Y-65668238D01*
X211743141Y-65668238D02*
X211933617Y-66144428D01*
X211933617Y-66144428D02*
X212028855Y-66239666D01*
X212028855Y-66239666D02*
X212219331Y-66334904D01*
X210505045Y-65668238D02*
X210505045Y-63668238D01*
X210505045Y-64430142D02*
X210314569Y-64334904D01*
X210314569Y-64334904D02*
X209933616Y-64334904D01*
X209933616Y-64334904D02*
X209743140Y-64430142D01*
X209743140Y-64430142D02*
X209647902Y-64525380D01*
X209647902Y-64525380D02*
X209552664Y-64715857D01*
X209552664Y-64715857D02*
X209552664Y-65287285D01*
X209552664Y-65287285D02*
X209647902Y-65477761D01*
X209647902Y-65477761D02*
X209743140Y-65573000D01*
X209743140Y-65573000D02*
X209933616Y-65668238D01*
X209933616Y-65668238D02*
X210314569Y-65668238D01*
X210314569Y-65668238D02*
X210505045Y-65573000D01*
X207838378Y-65668238D02*
X207838378Y-64620619D01*
X207838378Y-64620619D02*
X207933616Y-64430142D01*
X207933616Y-64430142D02*
X208124092Y-64334904D01*
X208124092Y-64334904D02*
X208505045Y-64334904D01*
X208505045Y-64334904D02*
X208695521Y-64430142D01*
X207838378Y-65573000D02*
X208028854Y-65668238D01*
X208028854Y-65668238D02*
X208505045Y-65668238D01*
X208505045Y-65668238D02*
X208695521Y-65573000D01*
X208695521Y-65573000D02*
X208790759Y-65382523D01*
X208790759Y-65382523D02*
X208790759Y-65192047D01*
X208790759Y-65192047D02*
X208695521Y-65001571D01*
X208695521Y-65001571D02*
X208505045Y-64906333D01*
X208505045Y-64906333D02*
X208028854Y-64906333D01*
X208028854Y-64906333D02*
X207838378Y-64811095D01*
X206600283Y-65668238D02*
X206790759Y-65573000D01*
X206790759Y-65573000D02*
X206885997Y-65382523D01*
X206885997Y-65382523D02*
X206885997Y-63668238D01*
X204981235Y-65668238D02*
X204981235Y-64620619D01*
X204981235Y-64620619D02*
X205076473Y-64430142D01*
X205076473Y-64430142D02*
X205266949Y-64334904D01*
X205266949Y-64334904D02*
X205647902Y-64334904D01*
X205647902Y-64334904D02*
X205838378Y-64430142D01*
X204981235Y-65573000D02*
X205171711Y-65668238D01*
X205171711Y-65668238D02*
X205647902Y-65668238D01*
X205647902Y-65668238D02*
X205838378Y-65573000D01*
X205838378Y-65573000D02*
X205933616Y-65382523D01*
X205933616Y-65382523D02*
X205933616Y-65192047D01*
X205933616Y-65192047D02*
X205838378Y-65001571D01*
X205838378Y-65001571D02*
X205647902Y-64906333D01*
X205647902Y-64906333D02*
X205171711Y-64906333D01*
X205171711Y-64906333D02*
X204981235Y-64811095D01*
X204028854Y-65477761D02*
X203933616Y-65573000D01*
X203933616Y-65573000D02*
X204028854Y-65668238D01*
X204028854Y-65668238D02*
X204124092Y-65573000D01*
X204124092Y-65573000D02*
X204028854Y-65477761D01*
X204028854Y-65477761D02*
X204028854Y-65668238D01*
X201743139Y-64334904D02*
X201266949Y-65668238D01*
X201266949Y-65668238D02*
X200790758Y-64334904D01*
X198981234Y-65668238D02*
X200124091Y-65668238D01*
X199552663Y-65668238D02*
X199552663Y-63668238D01*
X199552663Y-63668238D02*
X199743139Y-63953952D01*
X199743139Y-63953952D02*
X199933615Y-64144428D01*
X199933615Y-64144428D02*
X200124091Y-64239666D01*
X198124091Y-65477761D02*
X198028853Y-65573000D01*
X198028853Y-65573000D02*
X198124091Y-65668238D01*
X198124091Y-65668238D02*
X198219329Y-65573000D01*
X198219329Y-65573000D02*
X198124091Y-65477761D01*
X198124091Y-65477761D02*
X198124091Y-65668238D01*
X196790758Y-63668238D02*
X196600281Y-63668238D01*
X196600281Y-63668238D02*
X196409805Y-63763476D01*
X196409805Y-63763476D02*
X196314567Y-63858714D01*
X196314567Y-63858714D02*
X196219329Y-64049190D01*
X196219329Y-64049190D02*
X196124091Y-64430142D01*
X196124091Y-64430142D02*
X196124091Y-64906333D01*
X196124091Y-64906333D02*
X196219329Y-65287285D01*
X196219329Y-65287285D02*
X196314567Y-65477761D01*
X196314567Y-65477761D02*
X196409805Y-65573000D01*
X196409805Y-65573000D02*
X196600281Y-65668238D01*
X196600281Y-65668238D02*
X196790758Y-65668238D01*
X196790758Y-65668238D02*
X196981234Y-65573000D01*
X196981234Y-65573000D02*
X197076472Y-65477761D01*
X197076472Y-65477761D02*
X197171710Y-65287285D01*
X197171710Y-65287285D02*
X197266948Y-64906333D01*
X197266948Y-64906333D02*
X197266948Y-64430142D01*
X197266948Y-64430142D02*
X197171710Y-64049190D01*
X197171710Y-64049190D02*
X197076472Y-63858714D01*
X197076472Y-63858714D02*
X196981234Y-63763476D01*
X196981234Y-63763476D02*
X196790758Y-63668238D01*
X195266948Y-65477761D02*
X195171710Y-65573000D01*
X195171710Y-65573000D02*
X195266948Y-65668238D01*
X195266948Y-65668238D02*
X195362186Y-65573000D01*
X195362186Y-65573000D02*
X195266948Y-65477761D01*
X195266948Y-65477761D02*
X195266948Y-65668238D01*
X192885995Y-63858714D02*
X192790757Y-63763476D01*
X192790757Y-63763476D02*
X192600281Y-63668238D01*
X192600281Y-63668238D02*
X192124090Y-63668238D01*
X192124090Y-63668238D02*
X191933614Y-63763476D01*
X191933614Y-63763476D02*
X191838376Y-63858714D01*
X191838376Y-63858714D02*
X191743138Y-64049190D01*
X191743138Y-64049190D02*
X191743138Y-64239666D01*
X191743138Y-64239666D02*
X191838376Y-64525380D01*
X191838376Y-64525380D02*
X192981233Y-65668238D01*
X192981233Y-65668238D02*
X191743138Y-65668238D01*
X190505043Y-63668238D02*
X190314566Y-63668238D01*
X190314566Y-63668238D02*
X190124090Y-63763476D01*
X190124090Y-63763476D02*
X190028852Y-63858714D01*
X190028852Y-63858714D02*
X189933614Y-64049190D01*
X189933614Y-64049190D02*
X189838376Y-64430142D01*
X189838376Y-64430142D02*
X189838376Y-64906333D01*
X189838376Y-64906333D02*
X189933614Y-65287285D01*
X189933614Y-65287285D02*
X190028852Y-65477761D01*
X190028852Y-65477761D02*
X190124090Y-65573000D01*
X190124090Y-65573000D02*
X190314566Y-65668238D01*
X190314566Y-65668238D02*
X190505043Y-65668238D01*
X190505043Y-65668238D02*
X190695519Y-65573000D01*
X190695519Y-65573000D02*
X190790757Y-65477761D01*
X190790757Y-65477761D02*
X190885995Y-65287285D01*
X190885995Y-65287285D02*
X190981233Y-64906333D01*
X190981233Y-64906333D02*
X190981233Y-64430142D01*
X190981233Y-64430142D02*
X190885995Y-64049190D01*
X190885995Y-64049190D02*
X190790757Y-63858714D01*
X190790757Y-63858714D02*
X190695519Y-63763476D01*
X190695519Y-63763476D02*
X190505043Y-63668238D01*
X189076471Y-63858714D02*
X188981233Y-63763476D01*
X188981233Y-63763476D02*
X188790757Y-63668238D01*
X188790757Y-63668238D02*
X188314566Y-63668238D01*
X188314566Y-63668238D02*
X188124090Y-63763476D01*
X188124090Y-63763476D02*
X188028852Y-63858714D01*
X188028852Y-63858714D02*
X187933614Y-64049190D01*
X187933614Y-64049190D02*
X187933614Y-64239666D01*
X187933614Y-64239666D02*
X188028852Y-64525380D01*
X188028852Y-64525380D02*
X189171709Y-65668238D01*
X189171709Y-65668238D02*
X187933614Y-65668238D01*
X187266947Y-63668238D02*
X186028852Y-63668238D01*
X186028852Y-63668238D02*
X186695519Y-64430142D01*
X186695519Y-64430142D02*
X186409804Y-64430142D01*
X186409804Y-64430142D02*
X186219328Y-64525380D01*
X186219328Y-64525380D02*
X186124090Y-64620619D01*
X186124090Y-64620619D02*
X186028852Y-64811095D01*
X186028852Y-64811095D02*
X186028852Y-65287285D01*
X186028852Y-65287285D02*
X186124090Y-65477761D01*
X186124090Y-65477761D02*
X186219328Y-65573000D01*
X186219328Y-65573000D02*
X186409804Y-65668238D01*
X186409804Y-65668238D02*
X186981233Y-65668238D01*
X186981233Y-65668238D02*
X187171709Y-65573000D01*
X187171709Y-65573000D02*
X187266947Y-65477761D01*
X185362185Y-64334904D02*
X184885995Y-65668238D01*
X184409804Y-64334904D02*
X184885995Y-65668238D01*
X184885995Y-65668238D02*
X185076471Y-66144428D01*
X185076471Y-66144428D02*
X185171709Y-66239666D01*
X185171709Y-66239666D02*
X185362185Y-66334904D01*
D10*
X157602380Y-139461904D02*
X158602380Y-139461904D01*
X158602380Y-139461904D02*
X157888095Y-139128571D01*
X157888095Y-139128571D02*
X158602380Y-138795238D01*
X158602380Y-138795238D02*
X157602380Y-138795238D01*
X158602380Y-138319047D02*
X157792857Y-138319047D01*
X157792857Y-138319047D02*
X157697619Y-138271428D01*
X157697619Y-138271428D02*
X157650000Y-138223809D01*
X157650000Y-138223809D02*
X157602380Y-138128571D01*
X157602380Y-138128571D02*
X157602380Y-137938095D01*
X157602380Y-137938095D02*
X157650000Y-137842857D01*
X157650000Y-137842857D02*
X157697619Y-137795238D01*
X157697619Y-137795238D02*
X157792857Y-137747619D01*
X157792857Y-137747619D02*
X158602380Y-137747619D01*
X158602380Y-137414285D02*
X158602380Y-136842857D01*
X157602380Y-137128571D02*
X158602380Y-137128571D01*
X158126190Y-136509523D02*
X158126190Y-136176190D01*
X157602380Y-136033333D02*
X157602380Y-136509523D01*
X157602380Y-136509523D02*
X158602380Y-136509523D01*
X158602380Y-136509523D02*
X158602380Y-136033333D01*
X186860000Y-139509523D02*
X186812380Y-139366666D01*
X186812380Y-139366666D02*
X186812380Y-139128571D01*
X186812380Y-139128571D02*
X186860000Y-139033333D01*
X186860000Y-139033333D02*
X186907619Y-138985714D01*
X186907619Y-138985714D02*
X187002857Y-138938095D01*
X187002857Y-138938095D02*
X187098095Y-138938095D01*
X187098095Y-138938095D02*
X187193333Y-138985714D01*
X187193333Y-138985714D02*
X187240952Y-139033333D01*
X187240952Y-139033333D02*
X187288571Y-139128571D01*
X187288571Y-139128571D02*
X187336190Y-139319047D01*
X187336190Y-139319047D02*
X187383809Y-139414285D01*
X187383809Y-139414285D02*
X187431428Y-139461904D01*
X187431428Y-139461904D02*
X187526666Y-139509523D01*
X187526666Y-139509523D02*
X187621904Y-139509523D01*
X187621904Y-139509523D02*
X187717142Y-139461904D01*
X187717142Y-139461904D02*
X187764761Y-139414285D01*
X187764761Y-139414285D02*
X187812380Y-139319047D01*
X187812380Y-139319047D02*
X187812380Y-139080952D01*
X187812380Y-139080952D02*
X187764761Y-138938095D01*
X186812380Y-138509523D02*
X187812380Y-138509523D01*
X187812380Y-138509523D02*
X187812380Y-138271428D01*
X187812380Y-138271428D02*
X187764761Y-138128571D01*
X187764761Y-138128571D02*
X187669523Y-138033333D01*
X187669523Y-138033333D02*
X187574285Y-137985714D01*
X187574285Y-137985714D02*
X187383809Y-137938095D01*
X187383809Y-137938095D02*
X187240952Y-137938095D01*
X187240952Y-137938095D02*
X187050476Y-137985714D01*
X187050476Y-137985714D02*
X186955238Y-138033333D01*
X186955238Y-138033333D02*
X186860000Y-138128571D01*
X186860000Y-138128571D02*
X186812380Y-138271428D01*
X186812380Y-138271428D02*
X186812380Y-138509523D01*
X187098095Y-137557142D02*
X187098095Y-137080952D01*
X186812380Y-137652380D02*
X187812380Y-137319047D01*
X187812380Y-137319047D02*
X186812380Y-136985714D01*
X160666190Y-139461904D02*
X160666190Y-139128571D01*
X160142380Y-138985714D02*
X160142380Y-139461904D01*
X160142380Y-139461904D02*
X161142380Y-139461904D01*
X161142380Y-139461904D02*
X161142380Y-138985714D01*
X160142380Y-138557142D02*
X161142380Y-138557142D01*
X161142380Y-138557142D02*
X160142380Y-137985714D01*
X160142380Y-137985714D02*
X161142380Y-137985714D01*
X105013095Y-59821666D02*
X105775000Y-59821666D01*
X138600000Y-139509523D02*
X138552380Y-139366666D01*
X138552380Y-139366666D02*
X138552380Y-139128571D01*
X138552380Y-139128571D02*
X138600000Y-139033333D01*
X138600000Y-139033333D02*
X138647619Y-138985714D01*
X138647619Y-138985714D02*
X138742857Y-138938095D01*
X138742857Y-138938095D02*
X138838095Y-138938095D01*
X138838095Y-138938095D02*
X138933333Y-138985714D01*
X138933333Y-138985714D02*
X138980952Y-139033333D01*
X138980952Y-139033333D02*
X139028571Y-139128571D01*
X139028571Y-139128571D02*
X139076190Y-139319047D01*
X139076190Y-139319047D02*
X139123809Y-139414285D01*
X139123809Y-139414285D02*
X139171428Y-139461904D01*
X139171428Y-139461904D02*
X139266666Y-139509523D01*
X139266666Y-139509523D02*
X139361904Y-139509523D01*
X139361904Y-139509523D02*
X139457142Y-139461904D01*
X139457142Y-139461904D02*
X139504761Y-139414285D01*
X139504761Y-139414285D02*
X139552380Y-139319047D01*
X139552380Y-139319047D02*
X139552380Y-139080952D01*
X139552380Y-139080952D02*
X139504761Y-138938095D01*
X138647619Y-137938095D02*
X138600000Y-137985714D01*
X138600000Y-137985714D02*
X138552380Y-138128571D01*
X138552380Y-138128571D02*
X138552380Y-138223809D01*
X138552380Y-138223809D02*
X138600000Y-138366666D01*
X138600000Y-138366666D02*
X138695238Y-138461904D01*
X138695238Y-138461904D02*
X138790476Y-138509523D01*
X138790476Y-138509523D02*
X138980952Y-138557142D01*
X138980952Y-138557142D02*
X139123809Y-138557142D01*
X139123809Y-138557142D02*
X139314285Y-138509523D01*
X139314285Y-138509523D02*
X139409523Y-138461904D01*
X139409523Y-138461904D02*
X139504761Y-138366666D01*
X139504761Y-138366666D02*
X139552380Y-138223809D01*
X139552380Y-138223809D02*
X139552380Y-138128571D01*
X139552380Y-138128571D02*
X139504761Y-137985714D01*
X139504761Y-137985714D02*
X139457142Y-137938095D01*
X138552380Y-137033333D02*
X138552380Y-137509523D01*
X138552380Y-137509523D02*
X139552380Y-137509523D01*
X228135000Y-136969523D02*
X228087380Y-136826666D01*
X228087380Y-136826666D02*
X228087380Y-136588571D01*
X228087380Y-136588571D02*
X228135000Y-136493333D01*
X228135000Y-136493333D02*
X228182619Y-136445714D01*
X228182619Y-136445714D02*
X228277857Y-136398095D01*
X228277857Y-136398095D02*
X228373095Y-136398095D01*
X228373095Y-136398095D02*
X228468333Y-136445714D01*
X228468333Y-136445714D02*
X228515952Y-136493333D01*
X228515952Y-136493333D02*
X228563571Y-136588571D01*
X228563571Y-136588571D02*
X228611190Y-136779047D01*
X228611190Y-136779047D02*
X228658809Y-136874285D01*
X228658809Y-136874285D02*
X228706428Y-136921904D01*
X228706428Y-136921904D02*
X228801666Y-136969523D01*
X228801666Y-136969523D02*
X228896904Y-136969523D01*
X228896904Y-136969523D02*
X228992142Y-136921904D01*
X228992142Y-136921904D02*
X229039761Y-136874285D01*
X229039761Y-136874285D02*
X229087380Y-136779047D01*
X229087380Y-136779047D02*
X229087380Y-136540952D01*
X229087380Y-136540952D02*
X229039761Y-136398095D01*
X228087380Y-135969523D02*
X229087380Y-135969523D01*
X229039761Y-134969524D02*
X229087380Y-135064762D01*
X229087380Y-135064762D02*
X229087380Y-135207619D01*
X229087380Y-135207619D02*
X229039761Y-135350476D01*
X229039761Y-135350476D02*
X228944523Y-135445714D01*
X228944523Y-135445714D02*
X228849285Y-135493333D01*
X228849285Y-135493333D02*
X228658809Y-135540952D01*
X228658809Y-135540952D02*
X228515952Y-135540952D01*
X228515952Y-135540952D02*
X228325476Y-135493333D01*
X228325476Y-135493333D02*
X228230238Y-135445714D01*
X228230238Y-135445714D02*
X228135000Y-135350476D01*
X228135000Y-135350476D02*
X228087380Y-135207619D01*
X228087380Y-135207619D02*
X228087380Y-135112381D01*
X228087380Y-135112381D02*
X228135000Y-134969524D01*
X228135000Y-134969524D02*
X228182619Y-134921905D01*
X228182619Y-134921905D02*
X228515952Y-134921905D01*
X228515952Y-134921905D02*
X228515952Y-135112381D01*
X228087380Y-134493333D02*
X229087380Y-134493333D01*
X229087380Y-134493333D02*
X228087380Y-133921905D01*
X228087380Y-133921905D02*
X229087380Y-133921905D01*
X228373095Y-133493333D02*
X228373095Y-133017143D01*
X228087380Y-133588571D02*
X229087380Y-133255238D01*
X229087380Y-133255238D02*
X228087380Y-132921905D01*
X228087380Y-132112381D02*
X228087380Y-132588571D01*
X228087380Y-132588571D02*
X229087380Y-132588571D01*
X105013095Y-56646666D02*
X105775000Y-56646666D01*
X105394047Y-57027619D02*
X105394047Y-56265714D01*
X168714761Y-138938095D02*
X168762380Y-139033333D01*
X168762380Y-139033333D02*
X168762380Y-139176190D01*
X168762380Y-139176190D02*
X168714761Y-139319047D01*
X168714761Y-139319047D02*
X168619523Y-139414285D01*
X168619523Y-139414285D02*
X168524285Y-139461904D01*
X168524285Y-139461904D02*
X168333809Y-139509523D01*
X168333809Y-139509523D02*
X168190952Y-139509523D01*
X168190952Y-139509523D02*
X168000476Y-139461904D01*
X168000476Y-139461904D02*
X167905238Y-139414285D01*
X167905238Y-139414285D02*
X167810000Y-139319047D01*
X167810000Y-139319047D02*
X167762380Y-139176190D01*
X167762380Y-139176190D02*
X167762380Y-139080952D01*
X167762380Y-139080952D02*
X167810000Y-138938095D01*
X167810000Y-138938095D02*
X167857619Y-138890476D01*
X167857619Y-138890476D02*
X168190952Y-138890476D01*
X168190952Y-138890476D02*
X168190952Y-139080952D01*
X167762380Y-138461904D02*
X168762380Y-138461904D01*
X168762380Y-138461904D02*
X167762380Y-137890476D01*
X167762380Y-137890476D02*
X168762380Y-137890476D01*
X167762380Y-137414285D02*
X168762380Y-137414285D01*
X168762380Y-137414285D02*
X168762380Y-137176190D01*
X168762380Y-137176190D02*
X168714761Y-137033333D01*
X168714761Y-137033333D02*
X168619523Y-136938095D01*
X168619523Y-136938095D02*
X168524285Y-136890476D01*
X168524285Y-136890476D02*
X168333809Y-136842857D01*
X168333809Y-136842857D02*
X168190952Y-136842857D01*
X168190952Y-136842857D02*
X168000476Y-136890476D01*
X168000476Y-136890476D02*
X167905238Y-136938095D01*
X167905238Y-136938095D02*
X167810000Y-137033333D01*
X167810000Y-137033333D02*
X167762380Y-137176190D01*
X167762380Y-137176190D02*
X167762380Y-137414285D01*
X149669523Y-74252000D02*
X149526666Y-74299619D01*
X149526666Y-74299619D02*
X149288571Y-74299619D01*
X149288571Y-74299619D02*
X149193333Y-74252000D01*
X149193333Y-74252000D02*
X149145714Y-74204380D01*
X149145714Y-74204380D02*
X149098095Y-74109142D01*
X149098095Y-74109142D02*
X149098095Y-74013904D01*
X149098095Y-74013904D02*
X149145714Y-73918666D01*
X149145714Y-73918666D02*
X149193333Y-73871047D01*
X149193333Y-73871047D02*
X149288571Y-73823428D01*
X149288571Y-73823428D02*
X149479047Y-73775809D01*
X149479047Y-73775809D02*
X149574285Y-73728190D01*
X149574285Y-73728190D02*
X149621904Y-73680571D01*
X149621904Y-73680571D02*
X149669523Y-73585333D01*
X149669523Y-73585333D02*
X149669523Y-73490095D01*
X149669523Y-73490095D02*
X149621904Y-73394857D01*
X149621904Y-73394857D02*
X149574285Y-73347238D01*
X149574285Y-73347238D02*
X149479047Y-73299619D01*
X149479047Y-73299619D02*
X149240952Y-73299619D01*
X149240952Y-73299619D02*
X149098095Y-73347238D01*
X148669523Y-74299619D02*
X148669523Y-73299619D01*
X148669523Y-73299619D02*
X148288571Y-73299619D01*
X148288571Y-73299619D02*
X148193333Y-73347238D01*
X148193333Y-73347238D02*
X148145714Y-73394857D01*
X148145714Y-73394857D02*
X148098095Y-73490095D01*
X148098095Y-73490095D02*
X148098095Y-73632952D01*
X148098095Y-73632952D02*
X148145714Y-73728190D01*
X148145714Y-73728190D02*
X148193333Y-73775809D01*
X148193333Y-73775809D02*
X148288571Y-73823428D01*
X148288571Y-73823428D02*
X148669523Y-73823428D01*
X147669523Y-74299619D02*
X147669523Y-73299619D01*
X132837380Y-139620714D02*
X132837380Y-140096904D01*
X132837380Y-140096904D02*
X133837380Y-140096904D01*
X132932619Y-138715952D02*
X132885000Y-138763571D01*
X132885000Y-138763571D02*
X132837380Y-138906428D01*
X132837380Y-138906428D02*
X132837380Y-139001666D01*
X132837380Y-139001666D02*
X132885000Y-139144523D01*
X132885000Y-139144523D02*
X132980238Y-139239761D01*
X132980238Y-139239761D02*
X133075476Y-139287380D01*
X133075476Y-139287380D02*
X133265952Y-139334999D01*
X133265952Y-139334999D02*
X133408809Y-139334999D01*
X133408809Y-139334999D02*
X133599285Y-139287380D01*
X133599285Y-139287380D02*
X133694523Y-139239761D01*
X133694523Y-139239761D02*
X133789761Y-139144523D01*
X133789761Y-139144523D02*
X133837380Y-139001666D01*
X133837380Y-139001666D02*
X133837380Y-138906428D01*
X133837380Y-138906428D02*
X133789761Y-138763571D01*
X133789761Y-138763571D02*
X133742142Y-138715952D01*
X132837380Y-138287380D02*
X133837380Y-138287380D01*
X133837380Y-138287380D02*
X133837380Y-138049285D01*
X133837380Y-138049285D02*
X133789761Y-137906428D01*
X133789761Y-137906428D02*
X133694523Y-137811190D01*
X133694523Y-137811190D02*
X133599285Y-137763571D01*
X133599285Y-137763571D02*
X133408809Y-137715952D01*
X133408809Y-137715952D02*
X133265952Y-137715952D01*
X133265952Y-137715952D02*
X133075476Y-137763571D01*
X133075476Y-137763571D02*
X132980238Y-137811190D01*
X132980238Y-137811190D02*
X132885000Y-137906428D01*
X132885000Y-137906428D02*
X132837380Y-138049285D01*
X132837380Y-138049285D02*
X132837380Y-138287380D01*
X132742142Y-137525476D02*
X132742142Y-136763571D01*
X132837380Y-136525475D02*
X133837380Y-136525475D01*
X133837380Y-136525475D02*
X133837380Y-136144523D01*
X133837380Y-136144523D02*
X133789761Y-136049285D01*
X133789761Y-136049285D02*
X133742142Y-136001666D01*
X133742142Y-136001666D02*
X133646904Y-135954047D01*
X133646904Y-135954047D02*
X133504047Y-135954047D01*
X133504047Y-135954047D02*
X133408809Y-136001666D01*
X133408809Y-136001666D02*
X133361190Y-136049285D01*
X133361190Y-136049285D02*
X133313571Y-136144523D01*
X133313571Y-136144523D02*
X133313571Y-136525475D01*
X133837380Y-135620713D02*
X132837380Y-135382618D01*
X132837380Y-135382618D02*
X133551666Y-135192142D01*
X133551666Y-135192142D02*
X132837380Y-135001666D01*
X132837380Y-135001666D02*
X133837380Y-134763571D01*
X132837380Y-133811190D02*
X133313571Y-134144523D01*
X132837380Y-134382618D02*
X133837380Y-134382618D01*
X133837380Y-134382618D02*
X133837380Y-134001666D01*
X133837380Y-134001666D02*
X133789761Y-133906428D01*
X133789761Y-133906428D02*
X133742142Y-133858809D01*
X133742142Y-133858809D02*
X133646904Y-133811190D01*
X133646904Y-133811190D02*
X133504047Y-133811190D01*
X133504047Y-133811190D02*
X133408809Y-133858809D01*
X133408809Y-133858809D02*
X133361190Y-133906428D01*
X133361190Y-133906428D02*
X133313571Y-134001666D01*
X133313571Y-134001666D02*
X133313571Y-134382618D01*
X141140000Y-139509523D02*
X141092380Y-139366666D01*
X141092380Y-139366666D02*
X141092380Y-139128571D01*
X141092380Y-139128571D02*
X141140000Y-139033333D01*
X141140000Y-139033333D02*
X141187619Y-138985714D01*
X141187619Y-138985714D02*
X141282857Y-138938095D01*
X141282857Y-138938095D02*
X141378095Y-138938095D01*
X141378095Y-138938095D02*
X141473333Y-138985714D01*
X141473333Y-138985714D02*
X141520952Y-139033333D01*
X141520952Y-139033333D02*
X141568571Y-139128571D01*
X141568571Y-139128571D02*
X141616190Y-139319047D01*
X141616190Y-139319047D02*
X141663809Y-139414285D01*
X141663809Y-139414285D02*
X141711428Y-139461904D01*
X141711428Y-139461904D02*
X141806666Y-139509523D01*
X141806666Y-139509523D02*
X141901904Y-139509523D01*
X141901904Y-139509523D02*
X141997142Y-139461904D01*
X141997142Y-139461904D02*
X142044761Y-139414285D01*
X142044761Y-139414285D02*
X142092380Y-139319047D01*
X142092380Y-139319047D02*
X142092380Y-139080952D01*
X142092380Y-139080952D02*
X142044761Y-138938095D01*
X141092380Y-138509523D02*
X142092380Y-138509523D01*
X142092380Y-138509523D02*
X142092380Y-138271428D01*
X142092380Y-138271428D02*
X142044761Y-138128571D01*
X142044761Y-138128571D02*
X141949523Y-138033333D01*
X141949523Y-138033333D02*
X141854285Y-137985714D01*
X141854285Y-137985714D02*
X141663809Y-137938095D01*
X141663809Y-137938095D02*
X141520952Y-137938095D01*
X141520952Y-137938095D02*
X141330476Y-137985714D01*
X141330476Y-137985714D02*
X141235238Y-138033333D01*
X141235238Y-138033333D02*
X141140000Y-138128571D01*
X141140000Y-138128571D02*
X141092380Y-138271428D01*
X141092380Y-138271428D02*
X141092380Y-138509523D01*
X141378095Y-137557142D02*
X141378095Y-137080952D01*
X141092380Y-137652380D02*
X142092380Y-137319047D01*
X142092380Y-137319047D02*
X141092380Y-136985714D01*
X114470000Y-139509523D02*
X114422380Y-139366666D01*
X114422380Y-139366666D02*
X114422380Y-139128571D01*
X114422380Y-139128571D02*
X114470000Y-139033333D01*
X114470000Y-139033333D02*
X114517619Y-138985714D01*
X114517619Y-138985714D02*
X114612857Y-138938095D01*
X114612857Y-138938095D02*
X114708095Y-138938095D01*
X114708095Y-138938095D02*
X114803333Y-138985714D01*
X114803333Y-138985714D02*
X114850952Y-139033333D01*
X114850952Y-139033333D02*
X114898571Y-139128571D01*
X114898571Y-139128571D02*
X114946190Y-139319047D01*
X114946190Y-139319047D02*
X114993809Y-139414285D01*
X114993809Y-139414285D02*
X115041428Y-139461904D01*
X115041428Y-139461904D02*
X115136666Y-139509523D01*
X115136666Y-139509523D02*
X115231904Y-139509523D01*
X115231904Y-139509523D02*
X115327142Y-139461904D01*
X115327142Y-139461904D02*
X115374761Y-139414285D01*
X115374761Y-139414285D02*
X115422380Y-139319047D01*
X115422380Y-139319047D02*
X115422380Y-139080952D01*
X115422380Y-139080952D02*
X115374761Y-138938095D01*
X114422380Y-138509523D02*
X115422380Y-138509523D01*
X136964761Y-138938095D02*
X137012380Y-139033333D01*
X137012380Y-139033333D02*
X137012380Y-139176190D01*
X137012380Y-139176190D02*
X136964761Y-139319047D01*
X136964761Y-139319047D02*
X136869523Y-139414285D01*
X136869523Y-139414285D02*
X136774285Y-139461904D01*
X136774285Y-139461904D02*
X136583809Y-139509523D01*
X136583809Y-139509523D02*
X136440952Y-139509523D01*
X136440952Y-139509523D02*
X136250476Y-139461904D01*
X136250476Y-139461904D02*
X136155238Y-139414285D01*
X136155238Y-139414285D02*
X136060000Y-139319047D01*
X136060000Y-139319047D02*
X136012380Y-139176190D01*
X136012380Y-139176190D02*
X136012380Y-139080952D01*
X136012380Y-139080952D02*
X136060000Y-138938095D01*
X136060000Y-138938095D02*
X136107619Y-138890476D01*
X136107619Y-138890476D02*
X136440952Y-138890476D01*
X136440952Y-138890476D02*
X136440952Y-139080952D01*
X136012380Y-138461904D02*
X137012380Y-138461904D01*
X137012380Y-138461904D02*
X136012380Y-137890476D01*
X136012380Y-137890476D02*
X137012380Y-137890476D01*
X136012380Y-137414285D02*
X137012380Y-137414285D01*
X137012380Y-137414285D02*
X137012380Y-137176190D01*
X137012380Y-137176190D02*
X136964761Y-137033333D01*
X136964761Y-137033333D02*
X136869523Y-136938095D01*
X136869523Y-136938095D02*
X136774285Y-136890476D01*
X136774285Y-136890476D02*
X136583809Y-136842857D01*
X136583809Y-136842857D02*
X136440952Y-136842857D01*
X136440952Y-136842857D02*
X136250476Y-136890476D01*
X136250476Y-136890476D02*
X136155238Y-136938095D01*
X136155238Y-136938095D02*
X136060000Y-137033333D01*
X136060000Y-137033333D02*
X136012380Y-137176190D01*
X136012380Y-137176190D02*
X136012380Y-137414285D01*
X101722380Y-138985714D02*
X101722380Y-139461904D01*
X101722380Y-139461904D02*
X102722380Y-139461904D01*
X101817619Y-138080952D02*
X101770000Y-138128571D01*
X101770000Y-138128571D02*
X101722380Y-138271428D01*
X101722380Y-138271428D02*
X101722380Y-138366666D01*
X101722380Y-138366666D02*
X101770000Y-138509523D01*
X101770000Y-138509523D02*
X101865238Y-138604761D01*
X101865238Y-138604761D02*
X101960476Y-138652380D01*
X101960476Y-138652380D02*
X102150952Y-138699999D01*
X102150952Y-138699999D02*
X102293809Y-138699999D01*
X102293809Y-138699999D02*
X102484285Y-138652380D01*
X102484285Y-138652380D02*
X102579523Y-138604761D01*
X102579523Y-138604761D02*
X102674761Y-138509523D01*
X102674761Y-138509523D02*
X102722380Y-138366666D01*
X102722380Y-138366666D02*
X102722380Y-138271428D01*
X102722380Y-138271428D02*
X102674761Y-138128571D01*
X102674761Y-138128571D02*
X102627142Y-138080952D01*
X101722380Y-137652380D02*
X102722380Y-137652380D01*
X102722380Y-137652380D02*
X102722380Y-137414285D01*
X102722380Y-137414285D02*
X102674761Y-137271428D01*
X102674761Y-137271428D02*
X102579523Y-137176190D01*
X102579523Y-137176190D02*
X102484285Y-137128571D01*
X102484285Y-137128571D02*
X102293809Y-137080952D01*
X102293809Y-137080952D02*
X102150952Y-137080952D01*
X102150952Y-137080952D02*
X101960476Y-137128571D01*
X101960476Y-137128571D02*
X101865238Y-137176190D01*
X101865238Y-137176190D02*
X101770000Y-137271428D01*
X101770000Y-137271428D02*
X101722380Y-137414285D01*
X101722380Y-137414285D02*
X101722380Y-137652380D01*
X101627142Y-136890476D02*
X101627142Y-136128571D01*
X101722380Y-135890475D02*
X102722380Y-135890475D01*
X102722380Y-135890475D02*
X102722380Y-135509523D01*
X102722380Y-135509523D02*
X102674761Y-135414285D01*
X102674761Y-135414285D02*
X102627142Y-135366666D01*
X102627142Y-135366666D02*
X102531904Y-135319047D01*
X102531904Y-135319047D02*
X102389047Y-135319047D01*
X102389047Y-135319047D02*
X102293809Y-135366666D01*
X102293809Y-135366666D02*
X102246190Y-135414285D01*
X102246190Y-135414285D02*
X102198571Y-135509523D01*
X102198571Y-135509523D02*
X102198571Y-135890475D01*
X102722380Y-134985713D02*
X101722380Y-134747618D01*
X101722380Y-134747618D02*
X102436666Y-134557142D01*
X102436666Y-134557142D02*
X101722380Y-134366666D01*
X101722380Y-134366666D02*
X102722380Y-134128571D01*
X101722380Y-133176190D02*
X102198571Y-133509523D01*
X101722380Y-133747618D02*
X102722380Y-133747618D01*
X102722380Y-133747618D02*
X102722380Y-133366666D01*
X102722380Y-133366666D02*
X102674761Y-133271428D01*
X102674761Y-133271428D02*
X102627142Y-133223809D01*
X102627142Y-133223809D02*
X102531904Y-133176190D01*
X102531904Y-133176190D02*
X102389047Y-133176190D01*
X102389047Y-133176190D02*
X102293809Y-133223809D01*
X102293809Y-133223809D02*
X102246190Y-133271428D01*
X102246190Y-133271428D02*
X102198571Y-133366666D01*
X102198571Y-133366666D02*
X102198571Y-133747618D01*
X105214761Y-138938095D02*
X105262380Y-139033333D01*
X105262380Y-139033333D02*
X105262380Y-139176190D01*
X105262380Y-139176190D02*
X105214761Y-139319047D01*
X105214761Y-139319047D02*
X105119523Y-139414285D01*
X105119523Y-139414285D02*
X105024285Y-139461904D01*
X105024285Y-139461904D02*
X104833809Y-139509523D01*
X104833809Y-139509523D02*
X104690952Y-139509523D01*
X104690952Y-139509523D02*
X104500476Y-139461904D01*
X104500476Y-139461904D02*
X104405238Y-139414285D01*
X104405238Y-139414285D02*
X104310000Y-139319047D01*
X104310000Y-139319047D02*
X104262380Y-139176190D01*
X104262380Y-139176190D02*
X104262380Y-139080952D01*
X104262380Y-139080952D02*
X104310000Y-138938095D01*
X104310000Y-138938095D02*
X104357619Y-138890476D01*
X104357619Y-138890476D02*
X104690952Y-138890476D01*
X104690952Y-138890476D02*
X104690952Y-139080952D01*
X104262380Y-138461904D02*
X105262380Y-138461904D01*
X105262380Y-138461904D02*
X104262380Y-137890476D01*
X104262380Y-137890476D02*
X105262380Y-137890476D01*
X104262380Y-137414285D02*
X105262380Y-137414285D01*
X105262380Y-137414285D02*
X105262380Y-137176190D01*
X105262380Y-137176190D02*
X105214761Y-137033333D01*
X105214761Y-137033333D02*
X105119523Y-136938095D01*
X105119523Y-136938095D02*
X105024285Y-136890476D01*
X105024285Y-136890476D02*
X104833809Y-136842857D01*
X104833809Y-136842857D02*
X104690952Y-136842857D01*
X104690952Y-136842857D02*
X104500476Y-136890476D01*
X104500476Y-136890476D02*
X104405238Y-136938095D01*
X104405238Y-136938095D02*
X104310000Y-137033333D01*
X104310000Y-137033333D02*
X104262380Y-137176190D01*
X104262380Y-137176190D02*
X104262380Y-137414285D01*
X122090000Y-139509523D02*
X122042380Y-139366666D01*
X122042380Y-139366666D02*
X122042380Y-139128571D01*
X122042380Y-139128571D02*
X122090000Y-139033333D01*
X122090000Y-139033333D02*
X122137619Y-138985714D01*
X122137619Y-138985714D02*
X122232857Y-138938095D01*
X122232857Y-138938095D02*
X122328095Y-138938095D01*
X122328095Y-138938095D02*
X122423333Y-138985714D01*
X122423333Y-138985714D02*
X122470952Y-139033333D01*
X122470952Y-139033333D02*
X122518571Y-139128571D01*
X122518571Y-139128571D02*
X122566190Y-139319047D01*
X122566190Y-139319047D02*
X122613809Y-139414285D01*
X122613809Y-139414285D02*
X122661428Y-139461904D01*
X122661428Y-139461904D02*
X122756666Y-139509523D01*
X122756666Y-139509523D02*
X122851904Y-139509523D01*
X122851904Y-139509523D02*
X122947142Y-139461904D01*
X122947142Y-139461904D02*
X122994761Y-139414285D01*
X122994761Y-139414285D02*
X123042380Y-139319047D01*
X123042380Y-139319047D02*
X123042380Y-139080952D01*
X123042380Y-139080952D02*
X122994761Y-138938095D01*
X123042380Y-138319047D02*
X123042380Y-138128571D01*
X123042380Y-138128571D02*
X122994761Y-138033333D01*
X122994761Y-138033333D02*
X122899523Y-137938095D01*
X122899523Y-137938095D02*
X122709047Y-137890476D01*
X122709047Y-137890476D02*
X122375714Y-137890476D01*
X122375714Y-137890476D02*
X122185238Y-137938095D01*
X122185238Y-137938095D02*
X122090000Y-138033333D01*
X122090000Y-138033333D02*
X122042380Y-138128571D01*
X122042380Y-138128571D02*
X122042380Y-138319047D01*
X122042380Y-138319047D02*
X122090000Y-138414285D01*
X122090000Y-138414285D02*
X122185238Y-138509523D01*
X122185238Y-138509523D02*
X122375714Y-138557142D01*
X122375714Y-138557142D02*
X122709047Y-138557142D01*
X122709047Y-138557142D02*
X122899523Y-138509523D01*
X122899523Y-138509523D02*
X122994761Y-138414285D01*
X122994761Y-138414285D02*
X123042380Y-138319047D01*
X185224761Y-138938095D02*
X185272380Y-139033333D01*
X185272380Y-139033333D02*
X185272380Y-139176190D01*
X185272380Y-139176190D02*
X185224761Y-139319047D01*
X185224761Y-139319047D02*
X185129523Y-139414285D01*
X185129523Y-139414285D02*
X185034285Y-139461904D01*
X185034285Y-139461904D02*
X184843809Y-139509523D01*
X184843809Y-139509523D02*
X184700952Y-139509523D01*
X184700952Y-139509523D02*
X184510476Y-139461904D01*
X184510476Y-139461904D02*
X184415238Y-139414285D01*
X184415238Y-139414285D02*
X184320000Y-139319047D01*
X184320000Y-139319047D02*
X184272380Y-139176190D01*
X184272380Y-139176190D02*
X184272380Y-139080952D01*
X184272380Y-139080952D02*
X184320000Y-138938095D01*
X184320000Y-138938095D02*
X184367619Y-138890476D01*
X184367619Y-138890476D02*
X184700952Y-138890476D01*
X184700952Y-138890476D02*
X184700952Y-139080952D01*
X184272380Y-138461904D02*
X185272380Y-138461904D01*
X185272380Y-138461904D02*
X184272380Y-137890476D01*
X184272380Y-137890476D02*
X185272380Y-137890476D01*
X184272380Y-137414285D02*
X185272380Y-137414285D01*
X185272380Y-137414285D02*
X185272380Y-137176190D01*
X185272380Y-137176190D02*
X185224761Y-137033333D01*
X185224761Y-137033333D02*
X185129523Y-136938095D01*
X185129523Y-136938095D02*
X185034285Y-136890476D01*
X185034285Y-136890476D02*
X184843809Y-136842857D01*
X184843809Y-136842857D02*
X184700952Y-136842857D01*
X184700952Y-136842857D02*
X184510476Y-136890476D01*
X184510476Y-136890476D02*
X184415238Y-136938095D01*
X184415238Y-136938095D02*
X184320000Y-137033333D01*
X184320000Y-137033333D02*
X184272380Y-137176190D01*
X184272380Y-137176190D02*
X184272380Y-137414285D01*
X170302380Y-138985714D02*
X170302380Y-139461904D01*
X170302380Y-139461904D02*
X171302380Y-139461904D01*
X170302380Y-138080952D02*
X170778571Y-138414285D01*
X170302380Y-138652380D02*
X171302380Y-138652380D01*
X171302380Y-138652380D02*
X171302380Y-138271428D01*
X171302380Y-138271428D02*
X171254761Y-138176190D01*
X171254761Y-138176190D02*
X171207142Y-138128571D01*
X171207142Y-138128571D02*
X171111904Y-138080952D01*
X171111904Y-138080952D02*
X170969047Y-138080952D01*
X170969047Y-138080952D02*
X170873809Y-138128571D01*
X170873809Y-138128571D02*
X170826190Y-138176190D01*
X170826190Y-138176190D02*
X170778571Y-138271428D01*
X170778571Y-138271428D02*
X170778571Y-138652380D01*
X170397619Y-137080952D02*
X170350000Y-137128571D01*
X170350000Y-137128571D02*
X170302380Y-137271428D01*
X170302380Y-137271428D02*
X170302380Y-137366666D01*
X170302380Y-137366666D02*
X170350000Y-137509523D01*
X170350000Y-137509523D02*
X170445238Y-137604761D01*
X170445238Y-137604761D02*
X170540476Y-137652380D01*
X170540476Y-137652380D02*
X170730952Y-137699999D01*
X170730952Y-137699999D02*
X170873809Y-137699999D01*
X170873809Y-137699999D02*
X171064285Y-137652380D01*
X171064285Y-137652380D02*
X171159523Y-137604761D01*
X171159523Y-137604761D02*
X171254761Y-137509523D01*
X171254761Y-137509523D02*
X171302380Y-137366666D01*
X171302380Y-137366666D02*
X171302380Y-137271428D01*
X171302380Y-137271428D02*
X171254761Y-137128571D01*
X171254761Y-137128571D02*
X171207142Y-137080952D01*
X170302380Y-136176190D02*
X170302380Y-136652380D01*
X170302380Y-136652380D02*
X171302380Y-136652380D01*
X170302380Y-135842856D02*
X171302380Y-135842856D01*
X170302380Y-135271428D02*
X170873809Y-135699999D01*
X171302380Y-135271428D02*
X170730952Y-135842856D01*
X119502380Y-138985714D02*
X119502380Y-139461904D01*
X119502380Y-139461904D02*
X120502380Y-139461904D01*
X120026190Y-138652380D02*
X120026190Y-138319047D01*
X119502380Y-138176190D02*
X119502380Y-138652380D01*
X119502380Y-138652380D02*
X120502380Y-138652380D01*
X120502380Y-138652380D02*
X120502380Y-138176190D01*
X119502380Y-137747618D02*
X120502380Y-137747618D01*
X120502380Y-137747618D02*
X120502380Y-137509523D01*
X120502380Y-137509523D02*
X120454761Y-137366666D01*
X120454761Y-137366666D02*
X120359523Y-137271428D01*
X120359523Y-137271428D02*
X120264285Y-137223809D01*
X120264285Y-137223809D02*
X120073809Y-137176190D01*
X120073809Y-137176190D02*
X119930952Y-137176190D01*
X119930952Y-137176190D02*
X119740476Y-137223809D01*
X119740476Y-137223809D02*
X119645238Y-137271428D01*
X119645238Y-137271428D02*
X119550000Y-137366666D01*
X119550000Y-137366666D02*
X119502380Y-137509523D01*
X119502380Y-137509523D02*
X119502380Y-137747618D01*
X172937619Y-138890476D02*
X172890000Y-138938095D01*
X172890000Y-138938095D02*
X172842380Y-139080952D01*
X172842380Y-139080952D02*
X172842380Y-139176190D01*
X172842380Y-139176190D02*
X172890000Y-139319047D01*
X172890000Y-139319047D02*
X172985238Y-139414285D01*
X172985238Y-139414285D02*
X173080476Y-139461904D01*
X173080476Y-139461904D02*
X173270952Y-139509523D01*
X173270952Y-139509523D02*
X173413809Y-139509523D01*
X173413809Y-139509523D02*
X173604285Y-139461904D01*
X173604285Y-139461904D02*
X173699523Y-139414285D01*
X173699523Y-139414285D02*
X173794761Y-139319047D01*
X173794761Y-139319047D02*
X173842380Y-139176190D01*
X173842380Y-139176190D02*
X173842380Y-139080952D01*
X173842380Y-139080952D02*
X173794761Y-138938095D01*
X173794761Y-138938095D02*
X173747142Y-138890476D01*
X172842380Y-137985714D02*
X172842380Y-138461904D01*
X172842380Y-138461904D02*
X173842380Y-138461904D01*
X172842380Y-137652380D02*
X173842380Y-137652380D01*
X172842380Y-137080952D02*
X173413809Y-137509523D01*
X173842380Y-137080952D02*
X173270952Y-137652380D01*
D11*
X194878571Y-31117857D02*
X196378571Y-31117857D01*
X196235714Y-30474999D02*
X196307142Y-30403571D01*
X196307142Y-30403571D02*
X196378571Y-30260714D01*
X196378571Y-30260714D02*
X196378571Y-29903571D01*
X196378571Y-29903571D02*
X196307142Y-29760714D01*
X196307142Y-29760714D02*
X196235714Y-29689285D01*
X196235714Y-29689285D02*
X196092857Y-29617856D01*
X196092857Y-29617856D02*
X195950000Y-29617856D01*
X195950000Y-29617856D02*
X195735714Y-29689285D01*
X195735714Y-29689285D02*
X194878571Y-30546428D01*
X194878571Y-30546428D02*
X194878571Y-29617856D01*
X195021428Y-28117857D02*
X194950000Y-28189285D01*
X194950000Y-28189285D02*
X194878571Y-28403571D01*
X194878571Y-28403571D02*
X194878571Y-28546428D01*
X194878571Y-28546428D02*
X194950000Y-28760714D01*
X194950000Y-28760714D02*
X195092857Y-28903571D01*
X195092857Y-28903571D02*
X195235714Y-28975000D01*
X195235714Y-28975000D02*
X195521428Y-29046428D01*
X195521428Y-29046428D02*
X195735714Y-29046428D01*
X195735714Y-29046428D02*
X196021428Y-28975000D01*
X196021428Y-28975000D02*
X196164285Y-28903571D01*
X196164285Y-28903571D02*
X196307142Y-28760714D01*
X196307142Y-28760714D02*
X196378571Y-28546428D01*
X196378571Y-28546428D02*
X196378571Y-28403571D01*
X196378571Y-28403571D02*
X196307142Y-28189285D01*
X196307142Y-28189285D02*
X196235714Y-28117857D01*
D10*
X211280476Y-152277619D02*
X211613809Y-151801428D01*
X211851904Y-152277619D02*
X211851904Y-151277619D01*
X211851904Y-151277619D02*
X211470952Y-151277619D01*
X211470952Y-151277619D02*
X211375714Y-151325238D01*
X211375714Y-151325238D02*
X211328095Y-151372857D01*
X211328095Y-151372857D02*
X211280476Y-151468095D01*
X211280476Y-151468095D02*
X211280476Y-151610952D01*
X211280476Y-151610952D02*
X211328095Y-151706190D01*
X211328095Y-151706190D02*
X211375714Y-151753809D01*
X211375714Y-151753809D02*
X211470952Y-151801428D01*
X211470952Y-151801428D02*
X211851904Y-151801428D01*
X210899523Y-151991904D02*
X210423333Y-151991904D01*
X210994761Y-152277619D02*
X210661428Y-151277619D01*
X210661428Y-151277619D02*
X210328095Y-152277619D01*
X209994761Y-152277619D02*
X209994761Y-151277619D01*
X209994761Y-151277619D02*
X209756666Y-151277619D01*
X209756666Y-151277619D02*
X209613809Y-151325238D01*
X209613809Y-151325238D02*
X209518571Y-151420476D01*
X209518571Y-151420476D02*
X209470952Y-151515714D01*
X209470952Y-151515714D02*
X209423333Y-151706190D01*
X209423333Y-151706190D02*
X209423333Y-151849047D01*
X209423333Y-151849047D02*
X209470952Y-152039523D01*
X209470952Y-152039523D02*
X209518571Y-152134761D01*
X209518571Y-152134761D02*
X209613809Y-152230000D01*
X209613809Y-152230000D02*
X209756666Y-152277619D01*
X209756666Y-152277619D02*
X209994761Y-152277619D01*
X208994761Y-152277619D02*
X208994761Y-151277619D01*
X208328095Y-151277619D02*
X208137619Y-151277619D01*
X208137619Y-151277619D02*
X208042381Y-151325238D01*
X208042381Y-151325238D02*
X207947143Y-151420476D01*
X207947143Y-151420476D02*
X207899524Y-151610952D01*
X207899524Y-151610952D02*
X207899524Y-151944285D01*
X207899524Y-151944285D02*
X207947143Y-152134761D01*
X207947143Y-152134761D02*
X208042381Y-152230000D01*
X208042381Y-152230000D02*
X208137619Y-152277619D01*
X208137619Y-152277619D02*
X208328095Y-152277619D01*
X208328095Y-152277619D02*
X208423333Y-152230000D01*
X208423333Y-152230000D02*
X208518571Y-152134761D01*
X208518571Y-152134761D02*
X208566190Y-151944285D01*
X208566190Y-151944285D02*
X208566190Y-151610952D01*
X208566190Y-151610952D02*
X208518571Y-151420476D01*
X208518571Y-151420476D02*
X208423333Y-151325238D01*
X208423333Y-151325238D02*
X208328095Y-151277619D01*
X112168095Y-139509523D02*
X112168095Y-139033333D01*
X111882380Y-139604761D02*
X112882380Y-139271428D01*
X112882380Y-139271428D02*
X111882380Y-138938095D01*
X112882380Y-138414285D02*
X112882380Y-138319047D01*
X112882380Y-138319047D02*
X112834761Y-138223809D01*
X112834761Y-138223809D02*
X112787142Y-138176190D01*
X112787142Y-138176190D02*
X112691904Y-138128571D01*
X112691904Y-138128571D02*
X112501428Y-138080952D01*
X112501428Y-138080952D02*
X112263333Y-138080952D01*
X112263333Y-138080952D02*
X112072857Y-138128571D01*
X112072857Y-138128571D02*
X111977619Y-138176190D01*
X111977619Y-138176190D02*
X111930000Y-138223809D01*
X111930000Y-138223809D02*
X111882380Y-138319047D01*
X111882380Y-138319047D02*
X111882380Y-138414285D01*
X111882380Y-138414285D02*
X111930000Y-138509523D01*
X111930000Y-138509523D02*
X111977619Y-138557142D01*
X111977619Y-138557142D02*
X112072857Y-138604761D01*
X112072857Y-138604761D02*
X112263333Y-138652380D01*
X112263333Y-138652380D02*
X112501428Y-138652380D01*
X112501428Y-138652380D02*
X112691904Y-138604761D01*
X112691904Y-138604761D02*
X112787142Y-138557142D01*
X112787142Y-138557142D02*
X112834761Y-138509523D01*
X112834761Y-138509523D02*
X112882380Y-138414285D01*
X165222380Y-139461904D02*
X166222380Y-139461904D01*
X166222380Y-139461904D02*
X166222380Y-139223809D01*
X166222380Y-139223809D02*
X166174761Y-139080952D01*
X166174761Y-139080952D02*
X166079523Y-138985714D01*
X166079523Y-138985714D02*
X165984285Y-138938095D01*
X165984285Y-138938095D02*
X165793809Y-138890476D01*
X165793809Y-138890476D02*
X165650952Y-138890476D01*
X165650952Y-138890476D02*
X165460476Y-138938095D01*
X165460476Y-138938095D02*
X165365238Y-138985714D01*
X165365238Y-138985714D02*
X165270000Y-139080952D01*
X165270000Y-139080952D02*
X165222380Y-139223809D01*
X165222380Y-139223809D02*
X165222380Y-139461904D01*
X165508095Y-138509523D02*
X165508095Y-138033333D01*
X165222380Y-138604761D02*
X166222380Y-138271428D01*
X166222380Y-138271428D02*
X165222380Y-137938095D01*
X166222380Y-137747618D02*
X166222380Y-137176190D01*
X165222380Y-137461904D02*
X166222380Y-137461904D01*
X165508095Y-136890475D02*
X165508095Y-136414285D01*
X165222380Y-136985713D02*
X166222380Y-136652380D01*
X166222380Y-136652380D02*
X165222380Y-136319047D01*
X109342380Y-138890476D02*
X109818571Y-139223809D01*
X109342380Y-139461904D02*
X110342380Y-139461904D01*
X110342380Y-139461904D02*
X110342380Y-139080952D01*
X110342380Y-139080952D02*
X110294761Y-138985714D01*
X110294761Y-138985714D02*
X110247142Y-138938095D01*
X110247142Y-138938095D02*
X110151904Y-138890476D01*
X110151904Y-138890476D02*
X110009047Y-138890476D01*
X110009047Y-138890476D02*
X109913809Y-138938095D01*
X109913809Y-138938095D02*
X109866190Y-138985714D01*
X109866190Y-138985714D02*
X109818571Y-139080952D01*
X109818571Y-139080952D02*
X109818571Y-139461904D01*
X109390000Y-138509523D02*
X109342380Y-138366666D01*
X109342380Y-138366666D02*
X109342380Y-138128571D01*
X109342380Y-138128571D02*
X109390000Y-138033333D01*
X109390000Y-138033333D02*
X109437619Y-137985714D01*
X109437619Y-137985714D02*
X109532857Y-137938095D01*
X109532857Y-137938095D02*
X109628095Y-137938095D01*
X109628095Y-137938095D02*
X109723333Y-137985714D01*
X109723333Y-137985714D02*
X109770952Y-138033333D01*
X109770952Y-138033333D02*
X109818571Y-138128571D01*
X109818571Y-138128571D02*
X109866190Y-138319047D01*
X109866190Y-138319047D02*
X109913809Y-138414285D01*
X109913809Y-138414285D02*
X109961428Y-138461904D01*
X109961428Y-138461904D02*
X110056666Y-138509523D01*
X110056666Y-138509523D02*
X110151904Y-138509523D01*
X110151904Y-138509523D02*
X110247142Y-138461904D01*
X110247142Y-138461904D02*
X110294761Y-138414285D01*
X110294761Y-138414285D02*
X110342380Y-138319047D01*
X110342380Y-138319047D02*
X110342380Y-138080952D01*
X110342380Y-138080952D02*
X110294761Y-137938095D01*
X110342380Y-137652380D02*
X110342380Y-137080952D01*
X109342380Y-137366666D02*
X110342380Y-137366666D01*
X117057619Y-138890476D02*
X117010000Y-138938095D01*
X117010000Y-138938095D02*
X116962380Y-139080952D01*
X116962380Y-139080952D02*
X116962380Y-139176190D01*
X116962380Y-139176190D02*
X117010000Y-139319047D01*
X117010000Y-139319047D02*
X117105238Y-139414285D01*
X117105238Y-139414285D02*
X117200476Y-139461904D01*
X117200476Y-139461904D02*
X117390952Y-139509523D01*
X117390952Y-139509523D02*
X117533809Y-139509523D01*
X117533809Y-139509523D02*
X117724285Y-139461904D01*
X117724285Y-139461904D02*
X117819523Y-139414285D01*
X117819523Y-139414285D02*
X117914761Y-139319047D01*
X117914761Y-139319047D02*
X117962380Y-139176190D01*
X117962380Y-139176190D02*
X117962380Y-139080952D01*
X117962380Y-139080952D02*
X117914761Y-138938095D01*
X117914761Y-138938095D02*
X117867142Y-138890476D01*
X116962380Y-137985714D02*
X116962380Y-138461904D01*
X116962380Y-138461904D02*
X117962380Y-138461904D01*
X116962380Y-137652380D02*
X117962380Y-137652380D01*
X116962380Y-137080952D02*
X117533809Y-137509523D01*
X117962380Y-137080952D02*
X117390952Y-137652380D01*
X189400000Y-139509523D02*
X189352380Y-139366666D01*
X189352380Y-139366666D02*
X189352380Y-139128571D01*
X189352380Y-139128571D02*
X189400000Y-139033333D01*
X189400000Y-139033333D02*
X189447619Y-138985714D01*
X189447619Y-138985714D02*
X189542857Y-138938095D01*
X189542857Y-138938095D02*
X189638095Y-138938095D01*
X189638095Y-138938095D02*
X189733333Y-138985714D01*
X189733333Y-138985714D02*
X189780952Y-139033333D01*
X189780952Y-139033333D02*
X189828571Y-139128571D01*
X189828571Y-139128571D02*
X189876190Y-139319047D01*
X189876190Y-139319047D02*
X189923809Y-139414285D01*
X189923809Y-139414285D02*
X189971428Y-139461904D01*
X189971428Y-139461904D02*
X190066666Y-139509523D01*
X190066666Y-139509523D02*
X190161904Y-139509523D01*
X190161904Y-139509523D02*
X190257142Y-139461904D01*
X190257142Y-139461904D02*
X190304761Y-139414285D01*
X190304761Y-139414285D02*
X190352380Y-139319047D01*
X190352380Y-139319047D02*
X190352380Y-139080952D01*
X190352380Y-139080952D02*
X190304761Y-138938095D01*
X189447619Y-137938095D02*
X189400000Y-137985714D01*
X189400000Y-137985714D02*
X189352380Y-138128571D01*
X189352380Y-138128571D02*
X189352380Y-138223809D01*
X189352380Y-138223809D02*
X189400000Y-138366666D01*
X189400000Y-138366666D02*
X189495238Y-138461904D01*
X189495238Y-138461904D02*
X189590476Y-138509523D01*
X189590476Y-138509523D02*
X189780952Y-138557142D01*
X189780952Y-138557142D02*
X189923809Y-138557142D01*
X189923809Y-138557142D02*
X190114285Y-138509523D01*
X190114285Y-138509523D02*
X190209523Y-138461904D01*
X190209523Y-138461904D02*
X190304761Y-138366666D01*
X190304761Y-138366666D02*
X190352380Y-138223809D01*
X190352380Y-138223809D02*
X190352380Y-138128571D01*
X190352380Y-138128571D02*
X190304761Y-137985714D01*
X190304761Y-137985714D02*
X190257142Y-137938095D01*
X189352380Y-137033333D02*
X189352380Y-137509523D01*
X189352380Y-137509523D02*
X190352380Y-137509523D01*
X106897619Y-138890476D02*
X106850000Y-138938095D01*
X106850000Y-138938095D02*
X106802380Y-139080952D01*
X106802380Y-139080952D02*
X106802380Y-139176190D01*
X106802380Y-139176190D02*
X106850000Y-139319047D01*
X106850000Y-139319047D02*
X106945238Y-139414285D01*
X106945238Y-139414285D02*
X107040476Y-139461904D01*
X107040476Y-139461904D02*
X107230952Y-139509523D01*
X107230952Y-139509523D02*
X107373809Y-139509523D01*
X107373809Y-139509523D02*
X107564285Y-139461904D01*
X107564285Y-139461904D02*
X107659523Y-139414285D01*
X107659523Y-139414285D02*
X107754761Y-139319047D01*
X107754761Y-139319047D02*
X107802380Y-139176190D01*
X107802380Y-139176190D02*
X107802380Y-139080952D01*
X107802380Y-139080952D02*
X107754761Y-138938095D01*
X107754761Y-138938095D02*
X107707142Y-138890476D01*
X106850000Y-138509523D02*
X106802380Y-138366666D01*
X106802380Y-138366666D02*
X106802380Y-138128571D01*
X106802380Y-138128571D02*
X106850000Y-138033333D01*
X106850000Y-138033333D02*
X106897619Y-137985714D01*
X106897619Y-137985714D02*
X106992857Y-137938095D01*
X106992857Y-137938095D02*
X107088095Y-137938095D01*
X107088095Y-137938095D02*
X107183333Y-137985714D01*
X107183333Y-137985714D02*
X107230952Y-138033333D01*
X107230952Y-138033333D02*
X107278571Y-138128571D01*
X107278571Y-138128571D02*
X107326190Y-138319047D01*
X107326190Y-138319047D02*
X107373809Y-138414285D01*
X107373809Y-138414285D02*
X107421428Y-138461904D01*
X107421428Y-138461904D02*
X107516666Y-138509523D01*
X107516666Y-138509523D02*
X107611904Y-138509523D01*
X107611904Y-138509523D02*
X107707142Y-138461904D01*
X107707142Y-138461904D02*
X107754761Y-138414285D01*
X107754761Y-138414285D02*
X107802380Y-138319047D01*
X107802380Y-138319047D02*
X107802380Y-138080952D01*
X107802380Y-138080952D02*
X107754761Y-137938095D01*
X167473094Y-128909619D02*
X166901666Y-128909619D01*
X167187380Y-129909619D02*
X167187380Y-128909619D01*
X166568332Y-129909619D02*
X166568332Y-128909619D01*
X166568332Y-128909619D02*
X166187380Y-128909619D01*
X166187380Y-128909619D02*
X166092142Y-128957238D01*
X166092142Y-128957238D02*
X166044523Y-129004857D01*
X166044523Y-129004857D02*
X165996904Y-129100095D01*
X165996904Y-129100095D02*
X165996904Y-129242952D01*
X165996904Y-129242952D02*
X166044523Y-129338190D01*
X166044523Y-129338190D02*
X166092142Y-129385809D01*
X166092142Y-129385809D02*
X166187380Y-129433428D01*
X166187380Y-129433428D02*
X166568332Y-129433428D01*
X165615951Y-129004857D02*
X165568332Y-128957238D01*
X165568332Y-128957238D02*
X165473094Y-128909619D01*
X165473094Y-128909619D02*
X165234999Y-128909619D01*
X165234999Y-128909619D02*
X165139761Y-128957238D01*
X165139761Y-128957238D02*
X165092142Y-129004857D01*
X165092142Y-129004857D02*
X165044523Y-129100095D01*
X165044523Y-129100095D02*
X165044523Y-129195333D01*
X165044523Y-129195333D02*
X165092142Y-129338190D01*
X165092142Y-129338190D02*
X165663570Y-129909619D01*
X165663570Y-129909619D02*
X165044523Y-129909619D01*
X164187380Y-129242952D02*
X164187380Y-129909619D01*
X164425475Y-128862000D02*
X164663570Y-129576285D01*
X164663570Y-129576285D02*
X164044523Y-129576285D01*
X167234999Y-133957619D02*
X167234999Y-132957619D01*
X167234999Y-132957619D02*
X166996904Y-132957619D01*
X166996904Y-132957619D02*
X166854047Y-133005238D01*
X166854047Y-133005238D02*
X166758809Y-133100476D01*
X166758809Y-133100476D02*
X166711190Y-133195714D01*
X166711190Y-133195714D02*
X166663571Y-133386190D01*
X166663571Y-133386190D02*
X166663571Y-133529047D01*
X166663571Y-133529047D02*
X166711190Y-133719523D01*
X166711190Y-133719523D02*
X166758809Y-133814761D01*
X166758809Y-133814761D02*
X166854047Y-133910000D01*
X166854047Y-133910000D02*
X166996904Y-133957619D01*
X166996904Y-133957619D02*
X167234999Y-133957619D01*
X166282618Y-133671904D02*
X165806428Y-133671904D01*
X166377856Y-133957619D02*
X166044523Y-132957619D01*
X166044523Y-132957619D02*
X165711190Y-133957619D01*
X165520713Y-132957619D02*
X164949285Y-132957619D01*
X165234999Y-133957619D02*
X165234999Y-132957619D01*
X164663570Y-133671904D02*
X164187380Y-133671904D01*
X164758808Y-133957619D02*
X164425475Y-132957619D01*
X164425475Y-132957619D02*
X164092142Y-133957619D01*
X159345238Y-118622380D02*
X159392857Y-118670000D01*
X159392857Y-118670000D02*
X159535714Y-118717619D01*
X159535714Y-118717619D02*
X159630952Y-118717619D01*
X159630952Y-118717619D02*
X159773809Y-118670000D01*
X159773809Y-118670000D02*
X159869047Y-118574761D01*
X159869047Y-118574761D02*
X159916666Y-118479523D01*
X159916666Y-118479523D02*
X159964285Y-118289047D01*
X159964285Y-118289047D02*
X159964285Y-118146190D01*
X159964285Y-118146190D02*
X159916666Y-117955714D01*
X159916666Y-117955714D02*
X159869047Y-117860476D01*
X159869047Y-117860476D02*
X159773809Y-117765238D01*
X159773809Y-117765238D02*
X159630952Y-117717619D01*
X159630952Y-117717619D02*
X159535714Y-117717619D01*
X159535714Y-117717619D02*
X159392857Y-117765238D01*
X159392857Y-117765238D02*
X159345238Y-117812857D01*
X158440476Y-118717619D02*
X158916666Y-118717619D01*
X158916666Y-118717619D02*
X158916666Y-117717619D01*
X158107142Y-118717619D02*
X158107142Y-117717619D01*
X157535714Y-118717619D02*
X157964285Y-118146190D01*
X157535714Y-117717619D02*
X158107142Y-118289047D01*
X160488094Y-113669619D02*
X159916666Y-113669619D01*
X160202380Y-114669619D02*
X160202380Y-113669619D01*
X159583332Y-114669619D02*
X159583332Y-113669619D01*
X159583332Y-113669619D02*
X159202380Y-113669619D01*
X159202380Y-113669619D02*
X159107142Y-113717238D01*
X159107142Y-113717238D02*
X159059523Y-113764857D01*
X159059523Y-113764857D02*
X159011904Y-113860095D01*
X159011904Y-113860095D02*
X159011904Y-114002952D01*
X159011904Y-114002952D02*
X159059523Y-114098190D01*
X159059523Y-114098190D02*
X159107142Y-114145809D01*
X159107142Y-114145809D02*
X159202380Y-114193428D01*
X159202380Y-114193428D02*
X159583332Y-114193428D01*
X158059523Y-114669619D02*
X158630951Y-114669619D01*
X158345237Y-114669619D02*
X158345237Y-113669619D01*
X158345237Y-113669619D02*
X158440475Y-113812476D01*
X158440475Y-113812476D02*
X158535713Y-113907714D01*
X158535713Y-113907714D02*
X158630951Y-113955333D01*
X157202380Y-114002952D02*
X157202380Y-114669619D01*
X157440475Y-113622000D02*
X157678570Y-114336285D01*
X157678570Y-114336285D02*
X157059523Y-114336285D01*
X206208094Y-144149619D02*
X205636666Y-144149619D01*
X205922380Y-145149619D02*
X205922380Y-144149619D01*
X205303332Y-145149619D02*
X205303332Y-144149619D01*
X205303332Y-144149619D02*
X204922380Y-144149619D01*
X204922380Y-144149619D02*
X204827142Y-144197238D01*
X204827142Y-144197238D02*
X204779523Y-144244857D01*
X204779523Y-144244857D02*
X204731904Y-144340095D01*
X204731904Y-144340095D02*
X204731904Y-144482952D01*
X204731904Y-144482952D02*
X204779523Y-144578190D01*
X204779523Y-144578190D02*
X204827142Y-144625809D01*
X204827142Y-144625809D02*
X204922380Y-144673428D01*
X204922380Y-144673428D02*
X205303332Y-144673428D01*
X203779523Y-145149619D02*
X204350951Y-145149619D01*
X204065237Y-145149619D02*
X204065237Y-144149619D01*
X204065237Y-144149619D02*
X204160475Y-144292476D01*
X204160475Y-144292476D02*
X204255713Y-144387714D01*
X204255713Y-144387714D02*
X204350951Y-144435333D01*
X203208094Y-144578190D02*
X203303332Y-144530571D01*
X203303332Y-144530571D02*
X203350951Y-144482952D01*
X203350951Y-144482952D02*
X203398570Y-144387714D01*
X203398570Y-144387714D02*
X203398570Y-144340095D01*
X203398570Y-144340095D02*
X203350951Y-144244857D01*
X203350951Y-144244857D02*
X203303332Y-144197238D01*
X203303332Y-144197238D02*
X203208094Y-144149619D01*
X203208094Y-144149619D02*
X203017618Y-144149619D01*
X203017618Y-144149619D02*
X202922380Y-144197238D01*
X202922380Y-144197238D02*
X202874761Y-144244857D01*
X202874761Y-144244857D02*
X202827142Y-144340095D01*
X202827142Y-144340095D02*
X202827142Y-144387714D01*
X202827142Y-144387714D02*
X202874761Y-144482952D01*
X202874761Y-144482952D02*
X202922380Y-144530571D01*
X202922380Y-144530571D02*
X203017618Y-144578190D01*
X203017618Y-144578190D02*
X203208094Y-144578190D01*
X203208094Y-144578190D02*
X203303332Y-144625809D01*
X203303332Y-144625809D02*
X203350951Y-144673428D01*
X203350951Y-144673428D02*
X203398570Y-144768666D01*
X203398570Y-144768666D02*
X203398570Y-144959142D01*
X203398570Y-144959142D02*
X203350951Y-145054380D01*
X203350951Y-145054380D02*
X203303332Y-145102000D01*
X203303332Y-145102000D02*
X203208094Y-145149619D01*
X203208094Y-145149619D02*
X203017618Y-145149619D01*
X203017618Y-145149619D02*
X202922380Y-145102000D01*
X202922380Y-145102000D02*
X202874761Y-145054380D01*
X202874761Y-145054380D02*
X202827142Y-144959142D01*
X202827142Y-144959142D02*
X202827142Y-144768666D01*
X202827142Y-144768666D02*
X202874761Y-144673428D01*
X202874761Y-144673428D02*
X202922380Y-144625809D01*
X202922380Y-144625809D02*
X203017618Y-144578190D01*
X205065238Y-149102380D02*
X205112857Y-149150000D01*
X205112857Y-149150000D02*
X205255714Y-149197619D01*
X205255714Y-149197619D02*
X205350952Y-149197619D01*
X205350952Y-149197619D02*
X205493809Y-149150000D01*
X205493809Y-149150000D02*
X205589047Y-149054761D01*
X205589047Y-149054761D02*
X205636666Y-148959523D01*
X205636666Y-148959523D02*
X205684285Y-148769047D01*
X205684285Y-148769047D02*
X205684285Y-148626190D01*
X205684285Y-148626190D02*
X205636666Y-148435714D01*
X205636666Y-148435714D02*
X205589047Y-148340476D01*
X205589047Y-148340476D02*
X205493809Y-148245238D01*
X205493809Y-148245238D02*
X205350952Y-148197619D01*
X205350952Y-148197619D02*
X205255714Y-148197619D01*
X205255714Y-148197619D02*
X205112857Y-148245238D01*
X205112857Y-148245238D02*
X205065238Y-148292857D01*
X204160476Y-149197619D02*
X204636666Y-149197619D01*
X204636666Y-149197619D02*
X204636666Y-148197619D01*
X203827142Y-149197619D02*
X203827142Y-148197619D01*
X203255714Y-149197619D02*
X203684285Y-148626190D01*
X203255714Y-148197619D02*
X203827142Y-148769047D01*
X140080714Y-154372619D02*
X140556904Y-154372619D01*
X140556904Y-154372619D02*
X140556904Y-153372619D01*
X139175952Y-154277380D02*
X139223571Y-154325000D01*
X139223571Y-154325000D02*
X139366428Y-154372619D01*
X139366428Y-154372619D02*
X139461666Y-154372619D01*
X139461666Y-154372619D02*
X139604523Y-154325000D01*
X139604523Y-154325000D02*
X139699761Y-154229761D01*
X139699761Y-154229761D02*
X139747380Y-154134523D01*
X139747380Y-154134523D02*
X139794999Y-153944047D01*
X139794999Y-153944047D02*
X139794999Y-153801190D01*
X139794999Y-153801190D02*
X139747380Y-153610714D01*
X139747380Y-153610714D02*
X139699761Y-153515476D01*
X139699761Y-153515476D02*
X139604523Y-153420238D01*
X139604523Y-153420238D02*
X139461666Y-153372619D01*
X139461666Y-153372619D02*
X139366428Y-153372619D01*
X139366428Y-153372619D02*
X139223571Y-153420238D01*
X139223571Y-153420238D02*
X139175952Y-153467857D01*
X138747380Y-154372619D02*
X138747380Y-153372619D01*
X138747380Y-153372619D02*
X138509285Y-153372619D01*
X138509285Y-153372619D02*
X138366428Y-153420238D01*
X138366428Y-153420238D02*
X138271190Y-153515476D01*
X138271190Y-153515476D02*
X138223571Y-153610714D01*
X138223571Y-153610714D02*
X138175952Y-153801190D01*
X138175952Y-153801190D02*
X138175952Y-153944047D01*
X138175952Y-153944047D02*
X138223571Y-154134523D01*
X138223571Y-154134523D02*
X138271190Y-154229761D01*
X138271190Y-154229761D02*
X138366428Y-154325000D01*
X138366428Y-154325000D02*
X138509285Y-154372619D01*
X138509285Y-154372619D02*
X138747380Y-154372619D01*
X136985475Y-154372619D02*
X136985475Y-153372619D01*
X136556904Y-153467857D02*
X136509285Y-153420238D01*
X136509285Y-153420238D02*
X136414047Y-153372619D01*
X136414047Y-153372619D02*
X136175952Y-153372619D01*
X136175952Y-153372619D02*
X136080714Y-153420238D01*
X136080714Y-153420238D02*
X136033095Y-153467857D01*
X136033095Y-153467857D02*
X135985476Y-153563095D01*
X135985476Y-153563095D02*
X135985476Y-153658333D01*
X135985476Y-153658333D02*
X136033095Y-153801190D01*
X136033095Y-153801190D02*
X136604523Y-154372619D01*
X136604523Y-154372619D02*
X135985476Y-154372619D01*
X134985476Y-154277380D02*
X135033095Y-154325000D01*
X135033095Y-154325000D02*
X135175952Y-154372619D01*
X135175952Y-154372619D02*
X135271190Y-154372619D01*
X135271190Y-154372619D02*
X135414047Y-154325000D01*
X135414047Y-154325000D02*
X135509285Y-154229761D01*
X135509285Y-154229761D02*
X135556904Y-154134523D01*
X135556904Y-154134523D02*
X135604523Y-153944047D01*
X135604523Y-153944047D02*
X135604523Y-153801190D01*
X135604523Y-153801190D02*
X135556904Y-153610714D01*
X135556904Y-153610714D02*
X135509285Y-153515476D01*
X135509285Y-153515476D02*
X135414047Y-153420238D01*
X135414047Y-153420238D02*
X135271190Y-153372619D01*
X135271190Y-153372619D02*
X135175952Y-153372619D01*
X135175952Y-153372619D02*
X135033095Y-153420238D01*
X135033095Y-153420238D02*
X134985476Y-153467857D01*
X172410238Y-133957619D02*
X172886428Y-133957619D01*
X172886428Y-133957619D02*
X172886428Y-132957619D01*
X171505476Y-133957619D02*
X171838809Y-133481428D01*
X172076904Y-133957619D02*
X172076904Y-132957619D01*
X172076904Y-132957619D02*
X171695952Y-132957619D01*
X171695952Y-132957619D02*
X171600714Y-133005238D01*
X171600714Y-133005238D02*
X171553095Y-133052857D01*
X171553095Y-133052857D02*
X171505476Y-133148095D01*
X171505476Y-133148095D02*
X171505476Y-133290952D01*
X171505476Y-133290952D02*
X171553095Y-133386190D01*
X171553095Y-133386190D02*
X171600714Y-133433809D01*
X171600714Y-133433809D02*
X171695952Y-133481428D01*
X171695952Y-133481428D02*
X172076904Y-133481428D01*
X170505476Y-133862380D02*
X170553095Y-133910000D01*
X170553095Y-133910000D02*
X170695952Y-133957619D01*
X170695952Y-133957619D02*
X170791190Y-133957619D01*
X170791190Y-133957619D02*
X170934047Y-133910000D01*
X170934047Y-133910000D02*
X171029285Y-133814761D01*
X171029285Y-133814761D02*
X171076904Y-133719523D01*
X171076904Y-133719523D02*
X171124523Y-133529047D01*
X171124523Y-133529047D02*
X171124523Y-133386190D01*
X171124523Y-133386190D02*
X171076904Y-133195714D01*
X171076904Y-133195714D02*
X171029285Y-133100476D01*
X171029285Y-133100476D02*
X170934047Y-133005238D01*
X170934047Y-133005238D02*
X170791190Y-132957619D01*
X170791190Y-132957619D02*
X170695952Y-132957619D01*
X170695952Y-132957619D02*
X170553095Y-133005238D01*
X170553095Y-133005238D02*
X170505476Y-133052857D01*
X169600714Y-133957619D02*
X170076904Y-133957619D01*
X170076904Y-133957619D02*
X170076904Y-132957619D01*
X169267380Y-133957619D02*
X169267380Y-132957619D01*
X168695952Y-133957619D02*
X169124523Y-133386190D01*
X168695952Y-132957619D02*
X169267380Y-133529047D01*
X172553094Y-128909619D02*
X171981666Y-128909619D01*
X172267380Y-129909619D02*
X172267380Y-128909619D01*
X171648332Y-129909619D02*
X171648332Y-128909619D01*
X171648332Y-128909619D02*
X171267380Y-128909619D01*
X171267380Y-128909619D02*
X171172142Y-128957238D01*
X171172142Y-128957238D02*
X171124523Y-129004857D01*
X171124523Y-129004857D02*
X171076904Y-129100095D01*
X171076904Y-129100095D02*
X171076904Y-129242952D01*
X171076904Y-129242952D02*
X171124523Y-129338190D01*
X171124523Y-129338190D02*
X171172142Y-129385809D01*
X171172142Y-129385809D02*
X171267380Y-129433428D01*
X171267380Y-129433428D02*
X171648332Y-129433428D01*
X170695951Y-129004857D02*
X170648332Y-128957238D01*
X170648332Y-128957238D02*
X170553094Y-128909619D01*
X170553094Y-128909619D02*
X170314999Y-128909619D01*
X170314999Y-128909619D02*
X170219761Y-128957238D01*
X170219761Y-128957238D02*
X170172142Y-129004857D01*
X170172142Y-129004857D02*
X170124523Y-129100095D01*
X170124523Y-129100095D02*
X170124523Y-129195333D01*
X170124523Y-129195333D02*
X170172142Y-129338190D01*
X170172142Y-129338190D02*
X170743570Y-129909619D01*
X170743570Y-129909619D02*
X170124523Y-129909619D01*
X169219761Y-128909619D02*
X169695951Y-128909619D01*
X169695951Y-128909619D02*
X169743570Y-129385809D01*
X169743570Y-129385809D02*
X169695951Y-129338190D01*
X169695951Y-129338190D02*
X169600713Y-129290571D01*
X169600713Y-129290571D02*
X169362618Y-129290571D01*
X169362618Y-129290571D02*
X169267380Y-129338190D01*
X169267380Y-129338190D02*
X169219761Y-129385809D01*
X169219761Y-129385809D02*
X169172142Y-129481047D01*
X169172142Y-129481047D02*
X169172142Y-129719142D01*
X169172142Y-129719142D02*
X169219761Y-129814380D01*
X169219761Y-129814380D02*
X169267380Y-129862000D01*
X169267380Y-129862000D02*
X169362618Y-129909619D01*
X169362618Y-129909619D02*
X169600713Y-129909619D01*
X169600713Y-129909619D02*
X169695951Y-129862000D01*
X169695951Y-129862000D02*
X169743570Y-129814380D01*
X211049999Y-149197619D02*
X211049999Y-148197619D01*
X211049999Y-148197619D02*
X210811904Y-148197619D01*
X210811904Y-148197619D02*
X210669047Y-148245238D01*
X210669047Y-148245238D02*
X210573809Y-148340476D01*
X210573809Y-148340476D02*
X210526190Y-148435714D01*
X210526190Y-148435714D02*
X210478571Y-148626190D01*
X210478571Y-148626190D02*
X210478571Y-148769047D01*
X210478571Y-148769047D02*
X210526190Y-148959523D01*
X210526190Y-148959523D02*
X210573809Y-149054761D01*
X210573809Y-149054761D02*
X210669047Y-149150000D01*
X210669047Y-149150000D02*
X210811904Y-149197619D01*
X210811904Y-149197619D02*
X211049999Y-149197619D01*
X210097618Y-148911904D02*
X209621428Y-148911904D01*
X210192856Y-149197619D02*
X209859523Y-148197619D01*
X209859523Y-148197619D02*
X209526190Y-149197619D01*
X209335713Y-148197619D02*
X208764285Y-148197619D01*
X209049999Y-149197619D02*
X209049999Y-148197619D01*
X208478570Y-148911904D02*
X208002380Y-148911904D01*
X208573808Y-149197619D02*
X208240475Y-148197619D01*
X208240475Y-148197619D02*
X207907142Y-149197619D01*
X211288094Y-144149619D02*
X210716666Y-144149619D01*
X211002380Y-145149619D02*
X211002380Y-144149619D01*
X210383332Y-145149619D02*
X210383332Y-144149619D01*
X210383332Y-144149619D02*
X210002380Y-144149619D01*
X210002380Y-144149619D02*
X209907142Y-144197238D01*
X209907142Y-144197238D02*
X209859523Y-144244857D01*
X209859523Y-144244857D02*
X209811904Y-144340095D01*
X209811904Y-144340095D02*
X209811904Y-144482952D01*
X209811904Y-144482952D02*
X209859523Y-144578190D01*
X209859523Y-144578190D02*
X209907142Y-144625809D01*
X209907142Y-144625809D02*
X210002380Y-144673428D01*
X210002380Y-144673428D02*
X210383332Y-144673428D01*
X208859523Y-145149619D02*
X209430951Y-145149619D01*
X209145237Y-145149619D02*
X209145237Y-144149619D01*
X209145237Y-144149619D02*
X209240475Y-144292476D01*
X209240475Y-144292476D02*
X209335713Y-144387714D01*
X209335713Y-144387714D02*
X209430951Y-144435333D01*
X208526189Y-144149619D02*
X207859523Y-144149619D01*
X207859523Y-144149619D02*
X208288094Y-145149619D01*
X109211904Y-59059619D02*
X108640476Y-59059619D01*
X108926190Y-60059619D02*
X108926190Y-59059619D01*
X108307142Y-60059619D02*
X108307142Y-59059619D01*
X108307142Y-59059619D02*
X107926190Y-59059619D01*
X107926190Y-59059619D02*
X107830952Y-59107238D01*
X107830952Y-59107238D02*
X107783333Y-59154857D01*
X107783333Y-59154857D02*
X107735714Y-59250095D01*
X107735714Y-59250095D02*
X107735714Y-59392952D01*
X107735714Y-59392952D02*
X107783333Y-59488190D01*
X107783333Y-59488190D02*
X107830952Y-59535809D01*
X107830952Y-59535809D02*
X107926190Y-59583428D01*
X107926190Y-59583428D02*
X108307142Y-59583428D01*
X106783333Y-60059619D02*
X107354761Y-60059619D01*
X107069047Y-60059619D02*
X107069047Y-59059619D01*
X107069047Y-59059619D02*
X107164285Y-59202476D01*
X107164285Y-59202476D02*
X107259523Y-59297714D01*
X107259523Y-59297714D02*
X107354761Y-59345333D01*
X108711904Y-63155238D02*
X108807142Y-63107619D01*
X108807142Y-63107619D02*
X108949999Y-63107619D01*
X108949999Y-63107619D02*
X109092856Y-63155238D01*
X109092856Y-63155238D02*
X109188094Y-63250476D01*
X109188094Y-63250476D02*
X109235713Y-63345714D01*
X109235713Y-63345714D02*
X109283332Y-63536190D01*
X109283332Y-63536190D02*
X109283332Y-63679047D01*
X109283332Y-63679047D02*
X109235713Y-63869523D01*
X109235713Y-63869523D02*
X109188094Y-63964761D01*
X109188094Y-63964761D02*
X109092856Y-64060000D01*
X109092856Y-64060000D02*
X108949999Y-64107619D01*
X108949999Y-64107619D02*
X108854761Y-64107619D01*
X108854761Y-64107619D02*
X108711904Y-64060000D01*
X108711904Y-64060000D02*
X108664285Y-64012380D01*
X108664285Y-64012380D02*
X108664285Y-63679047D01*
X108664285Y-63679047D02*
X108854761Y-63679047D01*
X108235713Y-64107619D02*
X108235713Y-63107619D01*
X108235713Y-63107619D02*
X107664285Y-64107619D01*
X107664285Y-64107619D02*
X107664285Y-63107619D01*
X107188094Y-64107619D02*
X107188094Y-63107619D01*
X107188094Y-63107619D02*
X106949999Y-63107619D01*
X106949999Y-63107619D02*
X106807142Y-63155238D01*
X106807142Y-63155238D02*
X106711904Y-63250476D01*
X106711904Y-63250476D02*
X106664285Y-63345714D01*
X106664285Y-63345714D02*
X106616666Y-63536190D01*
X106616666Y-63536190D02*
X106616666Y-63679047D01*
X106616666Y-63679047D02*
X106664285Y-63869523D01*
X106664285Y-63869523D02*
X106711904Y-63964761D01*
X106711904Y-63964761D02*
X106807142Y-64060000D01*
X106807142Y-64060000D02*
X106949999Y-64107619D01*
X106949999Y-64107619D02*
X107188094Y-64107619D01*
X132635476Y-91095238D02*
X132730714Y-91047619D01*
X132730714Y-91047619D02*
X132873571Y-91047619D01*
X132873571Y-91047619D02*
X133016428Y-91095238D01*
X133016428Y-91095238D02*
X133111666Y-91190476D01*
X133111666Y-91190476D02*
X133159285Y-91285714D01*
X133159285Y-91285714D02*
X133206904Y-91476190D01*
X133206904Y-91476190D02*
X133206904Y-91619047D01*
X133206904Y-91619047D02*
X133159285Y-91809523D01*
X133159285Y-91809523D02*
X133111666Y-91904761D01*
X133111666Y-91904761D02*
X133016428Y-92000000D01*
X133016428Y-92000000D02*
X132873571Y-92047619D01*
X132873571Y-92047619D02*
X132778333Y-92047619D01*
X132778333Y-92047619D02*
X132635476Y-92000000D01*
X132635476Y-92000000D02*
X132587857Y-91952380D01*
X132587857Y-91952380D02*
X132587857Y-91619047D01*
X132587857Y-91619047D02*
X132778333Y-91619047D01*
X131825952Y-91523809D02*
X131683095Y-91571428D01*
X131683095Y-91571428D02*
X131635476Y-91619047D01*
X131635476Y-91619047D02*
X131587857Y-91714285D01*
X131587857Y-91714285D02*
X131587857Y-91857142D01*
X131587857Y-91857142D02*
X131635476Y-91952380D01*
X131635476Y-91952380D02*
X131683095Y-92000000D01*
X131683095Y-92000000D02*
X131778333Y-92047619D01*
X131778333Y-92047619D02*
X132159285Y-92047619D01*
X132159285Y-92047619D02*
X132159285Y-91047619D01*
X132159285Y-91047619D02*
X131825952Y-91047619D01*
X131825952Y-91047619D02*
X131730714Y-91095238D01*
X131730714Y-91095238D02*
X131683095Y-91142857D01*
X131683095Y-91142857D02*
X131635476Y-91238095D01*
X131635476Y-91238095D02*
X131635476Y-91333333D01*
X131635476Y-91333333D02*
X131683095Y-91428571D01*
X131683095Y-91428571D02*
X131730714Y-91476190D01*
X131730714Y-91476190D02*
X131825952Y-91523809D01*
X131825952Y-91523809D02*
X132159285Y-91523809D01*
X131159285Y-91047619D02*
X131159285Y-91857142D01*
X131159285Y-91857142D02*
X131111666Y-91952380D01*
X131111666Y-91952380D02*
X131064047Y-92000000D01*
X131064047Y-92000000D02*
X130968809Y-92047619D01*
X130968809Y-92047619D02*
X130778333Y-92047619D01*
X130778333Y-92047619D02*
X130683095Y-92000000D01*
X130683095Y-92000000D02*
X130635476Y-91952380D01*
X130635476Y-91952380D02*
X130587857Y-91857142D01*
X130587857Y-91857142D02*
X130587857Y-91047619D01*
X129778333Y-91523809D02*
X130111666Y-91523809D01*
X130111666Y-92047619D02*
X130111666Y-91047619D01*
X130111666Y-91047619D02*
X129635476Y-91047619D01*
X133183094Y-86999619D02*
X132611666Y-86999619D01*
X132897380Y-87999619D02*
X132897380Y-86999619D01*
X132278332Y-87999619D02*
X132278332Y-86999619D01*
X132278332Y-86999619D02*
X131897380Y-86999619D01*
X131897380Y-86999619D02*
X131802142Y-87047238D01*
X131802142Y-87047238D02*
X131754523Y-87094857D01*
X131754523Y-87094857D02*
X131706904Y-87190095D01*
X131706904Y-87190095D02*
X131706904Y-87332952D01*
X131706904Y-87332952D02*
X131754523Y-87428190D01*
X131754523Y-87428190D02*
X131802142Y-87475809D01*
X131802142Y-87475809D02*
X131897380Y-87523428D01*
X131897380Y-87523428D02*
X132278332Y-87523428D01*
X130754523Y-87999619D02*
X131325951Y-87999619D01*
X131040237Y-87999619D02*
X131040237Y-86999619D01*
X131040237Y-86999619D02*
X131135475Y-87142476D01*
X131135475Y-87142476D02*
X131230713Y-87237714D01*
X131230713Y-87237714D02*
X131325951Y-87285333D01*
X129802142Y-87999619D02*
X130373570Y-87999619D01*
X130087856Y-87999619D02*
X130087856Y-86999619D01*
X130087856Y-86999619D02*
X130183094Y-87142476D01*
X130183094Y-87142476D02*
X130278332Y-87237714D01*
X130278332Y-87237714D02*
X130373570Y-87285333D01*
X143611904Y-43184619D02*
X143040476Y-43184619D01*
X143326190Y-44184619D02*
X143326190Y-43184619D01*
X142707142Y-44184619D02*
X142707142Y-43184619D01*
X142707142Y-43184619D02*
X142326190Y-43184619D01*
X142326190Y-43184619D02*
X142230952Y-43232238D01*
X142230952Y-43232238D02*
X142183333Y-43279857D01*
X142183333Y-43279857D02*
X142135714Y-43375095D01*
X142135714Y-43375095D02*
X142135714Y-43517952D01*
X142135714Y-43517952D02*
X142183333Y-43613190D01*
X142183333Y-43613190D02*
X142230952Y-43660809D01*
X142230952Y-43660809D02*
X142326190Y-43708428D01*
X142326190Y-43708428D02*
X142707142Y-43708428D01*
X141802380Y-43184619D02*
X141183333Y-43184619D01*
X141183333Y-43184619D02*
X141516666Y-43565571D01*
X141516666Y-43565571D02*
X141373809Y-43565571D01*
X141373809Y-43565571D02*
X141278571Y-43613190D01*
X141278571Y-43613190D02*
X141230952Y-43660809D01*
X141230952Y-43660809D02*
X141183333Y-43756047D01*
X141183333Y-43756047D02*
X141183333Y-43994142D01*
X141183333Y-43994142D02*
X141230952Y-44089380D01*
X141230952Y-44089380D02*
X141278571Y-44137000D01*
X141278571Y-44137000D02*
X141373809Y-44184619D01*
X141373809Y-44184619D02*
X141659523Y-44184619D01*
X141659523Y-44184619D02*
X141754761Y-44137000D01*
X141754761Y-44137000D02*
X141802380Y-44089380D01*
X143716189Y-47232619D02*
X143097142Y-47232619D01*
X143097142Y-47232619D02*
X143430475Y-47613571D01*
X143430475Y-47613571D02*
X143287618Y-47613571D01*
X143287618Y-47613571D02*
X143192380Y-47661190D01*
X143192380Y-47661190D02*
X143144761Y-47708809D01*
X143144761Y-47708809D02*
X143097142Y-47804047D01*
X143097142Y-47804047D02*
X143097142Y-48042142D01*
X143097142Y-48042142D02*
X143144761Y-48137380D01*
X143144761Y-48137380D02*
X143192380Y-48185000D01*
X143192380Y-48185000D02*
X143287618Y-48232619D01*
X143287618Y-48232619D02*
X143573332Y-48232619D01*
X143573332Y-48232619D02*
X143668570Y-48185000D01*
X143668570Y-48185000D02*
X143716189Y-48137380D01*
X142668570Y-48137380D02*
X142620951Y-48185000D01*
X142620951Y-48185000D02*
X142668570Y-48232619D01*
X142668570Y-48232619D02*
X142716189Y-48185000D01*
X142716189Y-48185000D02*
X142668570Y-48137380D01*
X142668570Y-48137380D02*
X142668570Y-48232619D01*
X142287618Y-47232619D02*
X141668571Y-47232619D01*
X141668571Y-47232619D02*
X142001904Y-47613571D01*
X142001904Y-47613571D02*
X141859047Y-47613571D01*
X141859047Y-47613571D02*
X141763809Y-47661190D01*
X141763809Y-47661190D02*
X141716190Y-47708809D01*
X141716190Y-47708809D02*
X141668571Y-47804047D01*
X141668571Y-47804047D02*
X141668571Y-48042142D01*
X141668571Y-48042142D02*
X141716190Y-48137380D01*
X141716190Y-48137380D02*
X141763809Y-48185000D01*
X141763809Y-48185000D02*
X141859047Y-48232619D01*
X141859047Y-48232619D02*
X142144761Y-48232619D01*
X142144761Y-48232619D02*
X142239999Y-48185000D01*
X142239999Y-48185000D02*
X142287618Y-48137380D01*
X141382856Y-47232619D02*
X141049523Y-48232619D01*
X141049523Y-48232619D02*
X140716190Y-47232619D01*
X198040475Y-26175000D02*
X197897618Y-26222619D01*
X197897618Y-26222619D02*
X197659523Y-26222619D01*
X197659523Y-26222619D02*
X197564285Y-26175000D01*
X197564285Y-26175000D02*
X197516666Y-26127380D01*
X197516666Y-26127380D02*
X197469047Y-26032142D01*
X197469047Y-26032142D02*
X197469047Y-25936904D01*
X197469047Y-25936904D02*
X197516666Y-25841666D01*
X197516666Y-25841666D02*
X197564285Y-25794047D01*
X197564285Y-25794047D02*
X197659523Y-25746428D01*
X197659523Y-25746428D02*
X197849999Y-25698809D01*
X197849999Y-25698809D02*
X197945237Y-25651190D01*
X197945237Y-25651190D02*
X197992856Y-25603571D01*
X197992856Y-25603571D02*
X198040475Y-25508333D01*
X198040475Y-25508333D02*
X198040475Y-25413095D01*
X198040475Y-25413095D02*
X197992856Y-25317857D01*
X197992856Y-25317857D02*
X197945237Y-25270238D01*
X197945237Y-25270238D02*
X197849999Y-25222619D01*
X197849999Y-25222619D02*
X197611904Y-25222619D01*
X197611904Y-25222619D02*
X197469047Y-25270238D01*
X196469047Y-26127380D02*
X196516666Y-26175000D01*
X196516666Y-26175000D02*
X196659523Y-26222619D01*
X196659523Y-26222619D02*
X196754761Y-26222619D01*
X196754761Y-26222619D02*
X196897618Y-26175000D01*
X196897618Y-26175000D02*
X196992856Y-26079761D01*
X196992856Y-26079761D02*
X197040475Y-25984523D01*
X197040475Y-25984523D02*
X197088094Y-25794047D01*
X197088094Y-25794047D02*
X197088094Y-25651190D01*
X197088094Y-25651190D02*
X197040475Y-25460714D01*
X197040475Y-25460714D02*
X196992856Y-25365476D01*
X196992856Y-25365476D02*
X196897618Y-25270238D01*
X196897618Y-25270238D02*
X196754761Y-25222619D01*
X196754761Y-25222619D02*
X196659523Y-25222619D01*
X196659523Y-25222619D02*
X196516666Y-25270238D01*
X196516666Y-25270238D02*
X196469047Y-25317857D01*
X195564285Y-26222619D02*
X196040475Y-26222619D01*
X196040475Y-26222619D02*
X196040475Y-25222619D01*
X195046904Y-25129619D02*
X194475476Y-25129619D01*
X194761190Y-26129619D02*
X194761190Y-25129619D01*
X194142142Y-26129619D02*
X194142142Y-25129619D01*
X194142142Y-25129619D02*
X193761190Y-25129619D01*
X193761190Y-25129619D02*
X193665952Y-25177238D01*
X193665952Y-25177238D02*
X193618333Y-25224857D01*
X193618333Y-25224857D02*
X193570714Y-25320095D01*
X193570714Y-25320095D02*
X193570714Y-25462952D01*
X193570714Y-25462952D02*
X193618333Y-25558190D01*
X193618333Y-25558190D02*
X193665952Y-25605809D01*
X193665952Y-25605809D02*
X193761190Y-25653428D01*
X193761190Y-25653428D02*
X194142142Y-25653428D01*
X193237380Y-25129619D02*
X192570714Y-25129619D01*
X192570714Y-25129619D02*
X192999285Y-26129619D01*
X138898094Y-86999619D02*
X138326666Y-86999619D01*
X138612380Y-87999619D02*
X138612380Y-86999619D01*
X137993332Y-87999619D02*
X137993332Y-86999619D01*
X137993332Y-86999619D02*
X137612380Y-86999619D01*
X137612380Y-86999619D02*
X137517142Y-87047238D01*
X137517142Y-87047238D02*
X137469523Y-87094857D01*
X137469523Y-87094857D02*
X137421904Y-87190095D01*
X137421904Y-87190095D02*
X137421904Y-87332952D01*
X137421904Y-87332952D02*
X137469523Y-87428190D01*
X137469523Y-87428190D02*
X137517142Y-87475809D01*
X137517142Y-87475809D02*
X137612380Y-87523428D01*
X137612380Y-87523428D02*
X137993332Y-87523428D01*
X136469523Y-87999619D02*
X137040951Y-87999619D01*
X136755237Y-87999619D02*
X136755237Y-86999619D01*
X136755237Y-86999619D02*
X136850475Y-87142476D01*
X136850475Y-87142476D02*
X136945713Y-87237714D01*
X136945713Y-87237714D02*
X137040951Y-87285333D01*
X135850475Y-86999619D02*
X135755237Y-86999619D01*
X135755237Y-86999619D02*
X135659999Y-87047238D01*
X135659999Y-87047238D02*
X135612380Y-87094857D01*
X135612380Y-87094857D02*
X135564761Y-87190095D01*
X135564761Y-87190095D02*
X135517142Y-87380571D01*
X135517142Y-87380571D02*
X135517142Y-87618666D01*
X135517142Y-87618666D02*
X135564761Y-87809142D01*
X135564761Y-87809142D02*
X135612380Y-87904380D01*
X135612380Y-87904380D02*
X135659999Y-87952000D01*
X135659999Y-87952000D02*
X135755237Y-87999619D01*
X135755237Y-87999619D02*
X135850475Y-87999619D01*
X135850475Y-87999619D02*
X135945713Y-87952000D01*
X135945713Y-87952000D02*
X135993332Y-87904380D01*
X135993332Y-87904380D02*
X136040951Y-87809142D01*
X136040951Y-87809142D02*
X136088570Y-87618666D01*
X136088570Y-87618666D02*
X136088570Y-87380571D01*
X136088570Y-87380571D02*
X136040951Y-87190095D01*
X136040951Y-87190095D02*
X135993332Y-87094857D01*
X135993332Y-87094857D02*
X135945713Y-87047238D01*
X135945713Y-87047238D02*
X135850475Y-86999619D01*
X140064761Y-92047619D02*
X140064761Y-91380952D01*
X140064761Y-91571428D02*
X140017142Y-91476190D01*
X140017142Y-91476190D02*
X139969523Y-91428571D01*
X139969523Y-91428571D02*
X139874285Y-91380952D01*
X139874285Y-91380952D02*
X139779047Y-91380952D01*
X139445713Y-92047619D02*
X139445713Y-91380952D01*
X139445713Y-91047619D02*
X139493332Y-91095238D01*
X139493332Y-91095238D02*
X139445713Y-91142857D01*
X139445713Y-91142857D02*
X139398094Y-91095238D01*
X139398094Y-91095238D02*
X139445713Y-91047619D01*
X139445713Y-91047619D02*
X139445713Y-91142857D01*
X138540952Y-91380952D02*
X138540952Y-92190476D01*
X138540952Y-92190476D02*
X138588571Y-92285714D01*
X138588571Y-92285714D02*
X138636190Y-92333333D01*
X138636190Y-92333333D02*
X138731428Y-92380952D01*
X138731428Y-92380952D02*
X138874285Y-92380952D01*
X138874285Y-92380952D02*
X138969523Y-92333333D01*
X138540952Y-92000000D02*
X138636190Y-92047619D01*
X138636190Y-92047619D02*
X138826666Y-92047619D01*
X138826666Y-92047619D02*
X138921904Y-92000000D01*
X138921904Y-92000000D02*
X138969523Y-91952380D01*
X138969523Y-91952380D02*
X139017142Y-91857142D01*
X139017142Y-91857142D02*
X139017142Y-91571428D01*
X139017142Y-91571428D02*
X138969523Y-91476190D01*
X138969523Y-91476190D02*
X138921904Y-91428571D01*
X138921904Y-91428571D02*
X138826666Y-91380952D01*
X138826666Y-91380952D02*
X138636190Y-91380952D01*
X138636190Y-91380952D02*
X138540952Y-91428571D01*
X138064761Y-92047619D02*
X138064761Y-91047619D01*
X137636190Y-92047619D02*
X137636190Y-91523809D01*
X137636190Y-91523809D02*
X137683809Y-91428571D01*
X137683809Y-91428571D02*
X137779047Y-91380952D01*
X137779047Y-91380952D02*
X137921904Y-91380952D01*
X137921904Y-91380952D02*
X138017142Y-91428571D01*
X138017142Y-91428571D02*
X138064761Y-91476190D01*
X137302856Y-91380952D02*
X136921904Y-91380952D01*
X137159999Y-91047619D02*
X137159999Y-91904761D01*
X137159999Y-91904761D02*
X137112380Y-92000000D01*
X137112380Y-92000000D02*
X137017142Y-92047619D01*
X137017142Y-92047619D02*
X136921904Y-92047619D01*
X135255237Y-91952380D02*
X135302856Y-92000000D01*
X135302856Y-92000000D02*
X135445713Y-92047619D01*
X135445713Y-92047619D02*
X135540951Y-92047619D01*
X135540951Y-92047619D02*
X135683808Y-92000000D01*
X135683808Y-92000000D02*
X135779046Y-91904761D01*
X135779046Y-91904761D02*
X135826665Y-91809523D01*
X135826665Y-91809523D02*
X135874284Y-91619047D01*
X135874284Y-91619047D02*
X135874284Y-91476190D01*
X135874284Y-91476190D02*
X135826665Y-91285714D01*
X135826665Y-91285714D02*
X135779046Y-91190476D01*
X135779046Y-91190476D02*
X135683808Y-91095238D01*
X135683808Y-91095238D02*
X135540951Y-91047619D01*
X135540951Y-91047619D02*
X135445713Y-91047619D01*
X135445713Y-91047619D02*
X135302856Y-91095238D01*
X135302856Y-91095238D02*
X135255237Y-91142857D01*
X134826665Y-92047619D02*
X134826665Y-91047619D01*
X134826665Y-91523809D02*
X134255237Y-91523809D01*
X134255237Y-92047619D02*
X134255237Y-91047619D01*
X128015714Y-92047619D02*
X128110952Y-92000000D01*
X128110952Y-92000000D02*
X128158571Y-91904761D01*
X128158571Y-91904761D02*
X128158571Y-91047619D01*
X127253809Y-92000000D02*
X127349047Y-92047619D01*
X127349047Y-92047619D02*
X127539523Y-92047619D01*
X127539523Y-92047619D02*
X127634761Y-92000000D01*
X127634761Y-92000000D02*
X127682380Y-91904761D01*
X127682380Y-91904761D02*
X127682380Y-91523809D01*
X127682380Y-91523809D02*
X127634761Y-91428571D01*
X127634761Y-91428571D02*
X127539523Y-91380952D01*
X127539523Y-91380952D02*
X127349047Y-91380952D01*
X127349047Y-91380952D02*
X127253809Y-91428571D01*
X127253809Y-91428571D02*
X127206190Y-91523809D01*
X127206190Y-91523809D02*
X127206190Y-91619047D01*
X127206190Y-91619047D02*
X127682380Y-91714285D01*
X126920475Y-91380952D02*
X126539523Y-91380952D01*
X126777618Y-92047619D02*
X126777618Y-91190476D01*
X126777618Y-91190476D02*
X126729999Y-91095238D01*
X126729999Y-91095238D02*
X126634761Y-91047619D01*
X126634761Y-91047619D02*
X126539523Y-91047619D01*
X126349046Y-91380952D02*
X125968094Y-91380952D01*
X126206189Y-91047619D02*
X126206189Y-91904761D01*
X126206189Y-91904761D02*
X126158570Y-92000000D01*
X126158570Y-92000000D02*
X126063332Y-92047619D01*
X126063332Y-92047619D02*
X125968094Y-92047619D01*
X124301427Y-91952380D02*
X124349046Y-92000000D01*
X124349046Y-92000000D02*
X124491903Y-92047619D01*
X124491903Y-92047619D02*
X124587141Y-92047619D01*
X124587141Y-92047619D02*
X124729998Y-92000000D01*
X124729998Y-92000000D02*
X124825236Y-91904761D01*
X124825236Y-91904761D02*
X124872855Y-91809523D01*
X124872855Y-91809523D02*
X124920474Y-91619047D01*
X124920474Y-91619047D02*
X124920474Y-91476190D01*
X124920474Y-91476190D02*
X124872855Y-91285714D01*
X124872855Y-91285714D02*
X124825236Y-91190476D01*
X124825236Y-91190476D02*
X124729998Y-91095238D01*
X124729998Y-91095238D02*
X124587141Y-91047619D01*
X124587141Y-91047619D02*
X124491903Y-91047619D01*
X124491903Y-91047619D02*
X124349046Y-91095238D01*
X124349046Y-91095238D02*
X124301427Y-91142857D01*
X123872855Y-92047619D02*
X123872855Y-91047619D01*
X123872855Y-91523809D02*
X123301427Y-91523809D01*
X123301427Y-92047619D02*
X123301427Y-91047619D01*
X126991904Y-86999619D02*
X126420476Y-86999619D01*
X126706190Y-87999619D02*
X126706190Y-86999619D01*
X126087142Y-87999619D02*
X126087142Y-86999619D01*
X126087142Y-86999619D02*
X125706190Y-86999619D01*
X125706190Y-86999619D02*
X125610952Y-87047238D01*
X125610952Y-87047238D02*
X125563333Y-87094857D01*
X125563333Y-87094857D02*
X125515714Y-87190095D01*
X125515714Y-87190095D02*
X125515714Y-87332952D01*
X125515714Y-87332952D02*
X125563333Y-87428190D01*
X125563333Y-87428190D02*
X125610952Y-87475809D01*
X125610952Y-87475809D02*
X125706190Y-87523428D01*
X125706190Y-87523428D02*
X126087142Y-87523428D01*
X125039523Y-87999619D02*
X124849047Y-87999619D01*
X124849047Y-87999619D02*
X124753809Y-87952000D01*
X124753809Y-87952000D02*
X124706190Y-87904380D01*
X124706190Y-87904380D02*
X124610952Y-87761523D01*
X124610952Y-87761523D02*
X124563333Y-87571047D01*
X124563333Y-87571047D02*
X124563333Y-87190095D01*
X124563333Y-87190095D02*
X124610952Y-87094857D01*
X124610952Y-87094857D02*
X124658571Y-87047238D01*
X124658571Y-87047238D02*
X124753809Y-86999619D01*
X124753809Y-86999619D02*
X124944285Y-86999619D01*
X124944285Y-86999619D02*
X125039523Y-87047238D01*
X125039523Y-87047238D02*
X125087142Y-87094857D01*
X125087142Y-87094857D02*
X125134761Y-87190095D01*
X125134761Y-87190095D02*
X125134761Y-87428190D01*
X125134761Y-87428190D02*
X125087142Y-87523428D01*
X125087142Y-87523428D02*
X125039523Y-87571047D01*
X125039523Y-87571047D02*
X124944285Y-87618666D01*
X124944285Y-87618666D02*
X124753809Y-87618666D01*
X124753809Y-87618666D02*
X124658571Y-87571047D01*
X124658571Y-87571047D02*
X124610952Y-87523428D01*
X124610952Y-87523428D02*
X124563333Y-87428190D01*
X114760714Y-154372619D02*
X115236904Y-154372619D01*
X115236904Y-154372619D02*
X115236904Y-153372619D01*
X113855952Y-154277380D02*
X113903571Y-154325000D01*
X113903571Y-154325000D02*
X114046428Y-154372619D01*
X114046428Y-154372619D02*
X114141666Y-154372619D01*
X114141666Y-154372619D02*
X114284523Y-154325000D01*
X114284523Y-154325000D02*
X114379761Y-154229761D01*
X114379761Y-154229761D02*
X114427380Y-154134523D01*
X114427380Y-154134523D02*
X114474999Y-153944047D01*
X114474999Y-153944047D02*
X114474999Y-153801190D01*
X114474999Y-153801190D02*
X114427380Y-153610714D01*
X114427380Y-153610714D02*
X114379761Y-153515476D01*
X114379761Y-153515476D02*
X114284523Y-153420238D01*
X114284523Y-153420238D02*
X114141666Y-153372619D01*
X114141666Y-153372619D02*
X114046428Y-153372619D01*
X114046428Y-153372619D02*
X113903571Y-153420238D01*
X113903571Y-153420238D02*
X113855952Y-153467857D01*
X113427380Y-154372619D02*
X113427380Y-153372619D01*
X113427380Y-153372619D02*
X113189285Y-153372619D01*
X113189285Y-153372619D02*
X113046428Y-153420238D01*
X113046428Y-153420238D02*
X112951190Y-153515476D01*
X112951190Y-153515476D02*
X112903571Y-153610714D01*
X112903571Y-153610714D02*
X112855952Y-153801190D01*
X112855952Y-153801190D02*
X112855952Y-153944047D01*
X112855952Y-153944047D02*
X112903571Y-154134523D01*
X112903571Y-154134523D02*
X112951190Y-154229761D01*
X112951190Y-154229761D02*
X113046428Y-154325000D01*
X113046428Y-154325000D02*
X113189285Y-154372619D01*
X113189285Y-154372619D02*
X113427380Y-154372619D01*
X111713094Y-154325000D02*
X111570237Y-154372619D01*
X111570237Y-154372619D02*
X111332142Y-154372619D01*
X111332142Y-154372619D02*
X111236904Y-154325000D01*
X111236904Y-154325000D02*
X111189285Y-154277380D01*
X111189285Y-154277380D02*
X111141666Y-154182142D01*
X111141666Y-154182142D02*
X111141666Y-154086904D01*
X111141666Y-154086904D02*
X111189285Y-153991666D01*
X111189285Y-153991666D02*
X111236904Y-153944047D01*
X111236904Y-153944047D02*
X111332142Y-153896428D01*
X111332142Y-153896428D02*
X111522618Y-153848809D01*
X111522618Y-153848809D02*
X111617856Y-153801190D01*
X111617856Y-153801190D02*
X111665475Y-153753571D01*
X111665475Y-153753571D02*
X111713094Y-153658333D01*
X111713094Y-153658333D02*
X111713094Y-153563095D01*
X111713094Y-153563095D02*
X111665475Y-153467857D01*
X111665475Y-153467857D02*
X111617856Y-153420238D01*
X111617856Y-153420238D02*
X111522618Y-153372619D01*
X111522618Y-153372619D02*
X111284523Y-153372619D01*
X111284523Y-153372619D02*
X111141666Y-153420238D01*
X110713094Y-154372619D02*
X110713094Y-153372619D01*
X110713094Y-153372619D02*
X110332142Y-153372619D01*
X110332142Y-153372619D02*
X110236904Y-153420238D01*
X110236904Y-153420238D02*
X110189285Y-153467857D01*
X110189285Y-153467857D02*
X110141666Y-153563095D01*
X110141666Y-153563095D02*
X110141666Y-153705952D01*
X110141666Y-153705952D02*
X110189285Y-153801190D01*
X110189285Y-153801190D02*
X110236904Y-153848809D01*
X110236904Y-153848809D02*
X110332142Y-153896428D01*
X110332142Y-153896428D02*
X110713094Y-153896428D01*
X109713094Y-154372619D02*
X109713094Y-153372619D01*
X179161904Y-117400000D02*
X179019047Y-117447619D01*
X179019047Y-117447619D02*
X178780952Y-117447619D01*
X178780952Y-117447619D02*
X178685714Y-117400000D01*
X178685714Y-117400000D02*
X178638095Y-117352380D01*
X178638095Y-117352380D02*
X178590476Y-117257142D01*
X178590476Y-117257142D02*
X178590476Y-117161904D01*
X178590476Y-117161904D02*
X178638095Y-117066666D01*
X178638095Y-117066666D02*
X178685714Y-117019047D01*
X178685714Y-117019047D02*
X178780952Y-116971428D01*
X178780952Y-116971428D02*
X178971428Y-116923809D01*
X178971428Y-116923809D02*
X179066666Y-116876190D01*
X179066666Y-116876190D02*
X179114285Y-116828571D01*
X179114285Y-116828571D02*
X179161904Y-116733333D01*
X179161904Y-116733333D02*
X179161904Y-116638095D01*
X179161904Y-116638095D02*
X179114285Y-116542857D01*
X179114285Y-116542857D02*
X179066666Y-116495238D01*
X179066666Y-116495238D02*
X178971428Y-116447619D01*
X178971428Y-116447619D02*
X178733333Y-116447619D01*
X178733333Y-116447619D02*
X178590476Y-116495238D01*
X177971428Y-116447619D02*
X177876190Y-116447619D01*
X177876190Y-116447619D02*
X177780952Y-116495238D01*
X177780952Y-116495238D02*
X177733333Y-116542857D01*
X177733333Y-116542857D02*
X177685714Y-116638095D01*
X177685714Y-116638095D02*
X177638095Y-116828571D01*
X177638095Y-116828571D02*
X177638095Y-117066666D01*
X177638095Y-117066666D02*
X177685714Y-117257142D01*
X177685714Y-117257142D02*
X177733333Y-117352380D01*
X177733333Y-117352380D02*
X177780952Y-117400000D01*
X177780952Y-117400000D02*
X177876190Y-117447619D01*
X177876190Y-117447619D02*
X177971428Y-117447619D01*
X177971428Y-117447619D02*
X178066666Y-117400000D01*
X178066666Y-117400000D02*
X178114285Y-117352380D01*
X178114285Y-117352380D02*
X178161904Y-117257142D01*
X178161904Y-117257142D02*
X178209523Y-117066666D01*
X178209523Y-117066666D02*
X178209523Y-116828571D01*
X178209523Y-116828571D02*
X178161904Y-116638095D01*
X178161904Y-116638095D02*
X178114285Y-116542857D01*
X178114285Y-116542857D02*
X178066666Y-116495238D01*
X178066666Y-116495238D02*
X177971428Y-116447619D01*
X180138094Y-112399619D02*
X179566666Y-112399619D01*
X179852380Y-113399619D02*
X179852380Y-112399619D01*
X179233332Y-113399619D02*
X179233332Y-112399619D01*
X179233332Y-112399619D02*
X178852380Y-112399619D01*
X178852380Y-112399619D02*
X178757142Y-112447238D01*
X178757142Y-112447238D02*
X178709523Y-112494857D01*
X178709523Y-112494857D02*
X178661904Y-112590095D01*
X178661904Y-112590095D02*
X178661904Y-112732952D01*
X178661904Y-112732952D02*
X178709523Y-112828190D01*
X178709523Y-112828190D02*
X178757142Y-112875809D01*
X178757142Y-112875809D02*
X178852380Y-112923428D01*
X178852380Y-112923428D02*
X179233332Y-112923428D01*
X178280951Y-112494857D02*
X178233332Y-112447238D01*
X178233332Y-112447238D02*
X178138094Y-112399619D01*
X178138094Y-112399619D02*
X177899999Y-112399619D01*
X177899999Y-112399619D02*
X177804761Y-112447238D01*
X177804761Y-112447238D02*
X177757142Y-112494857D01*
X177757142Y-112494857D02*
X177709523Y-112590095D01*
X177709523Y-112590095D02*
X177709523Y-112685333D01*
X177709523Y-112685333D02*
X177757142Y-112828190D01*
X177757142Y-112828190D02*
X178328570Y-113399619D01*
X178328570Y-113399619D02*
X177709523Y-113399619D01*
X176757142Y-113399619D02*
X177328570Y-113399619D01*
X177042856Y-113399619D02*
X177042856Y-112399619D01*
X177042856Y-112399619D02*
X177138094Y-112542476D01*
X177138094Y-112542476D02*
X177233332Y-112637714D01*
X177233332Y-112637714D02*
X177328570Y-112685333D01*
X175855238Y-133862380D02*
X175902857Y-133910000D01*
X175902857Y-133910000D02*
X176045714Y-133957619D01*
X176045714Y-133957619D02*
X176140952Y-133957619D01*
X176140952Y-133957619D02*
X176283809Y-133910000D01*
X176283809Y-133910000D02*
X176379047Y-133814761D01*
X176379047Y-133814761D02*
X176426666Y-133719523D01*
X176426666Y-133719523D02*
X176474285Y-133529047D01*
X176474285Y-133529047D02*
X176474285Y-133386190D01*
X176474285Y-133386190D02*
X176426666Y-133195714D01*
X176426666Y-133195714D02*
X176379047Y-133100476D01*
X176379047Y-133100476D02*
X176283809Y-133005238D01*
X176283809Y-133005238D02*
X176140952Y-132957619D01*
X176140952Y-132957619D02*
X176045714Y-132957619D01*
X176045714Y-132957619D02*
X175902857Y-133005238D01*
X175902857Y-133005238D02*
X175855238Y-133052857D01*
X174950476Y-133957619D02*
X175426666Y-133957619D01*
X175426666Y-133957619D02*
X175426666Y-132957619D01*
X174617142Y-133957619D02*
X174617142Y-132957619D01*
X174045714Y-133957619D02*
X174474285Y-133386190D01*
X174045714Y-132957619D02*
X174617142Y-133529047D01*
X176998094Y-128909619D02*
X176426666Y-128909619D01*
X176712380Y-129909619D02*
X176712380Y-128909619D01*
X176093332Y-129909619D02*
X176093332Y-128909619D01*
X176093332Y-128909619D02*
X175712380Y-128909619D01*
X175712380Y-128909619D02*
X175617142Y-128957238D01*
X175617142Y-128957238D02*
X175569523Y-129004857D01*
X175569523Y-129004857D02*
X175521904Y-129100095D01*
X175521904Y-129100095D02*
X175521904Y-129242952D01*
X175521904Y-129242952D02*
X175569523Y-129338190D01*
X175569523Y-129338190D02*
X175617142Y-129385809D01*
X175617142Y-129385809D02*
X175712380Y-129433428D01*
X175712380Y-129433428D02*
X176093332Y-129433428D01*
X175140951Y-129004857D02*
X175093332Y-128957238D01*
X175093332Y-128957238D02*
X174998094Y-128909619D01*
X174998094Y-128909619D02*
X174759999Y-128909619D01*
X174759999Y-128909619D02*
X174664761Y-128957238D01*
X174664761Y-128957238D02*
X174617142Y-129004857D01*
X174617142Y-129004857D02*
X174569523Y-129100095D01*
X174569523Y-129100095D02*
X174569523Y-129195333D01*
X174569523Y-129195333D02*
X174617142Y-129338190D01*
X174617142Y-129338190D02*
X175188570Y-129909619D01*
X175188570Y-129909619D02*
X174569523Y-129909619D01*
X174236189Y-128909619D02*
X173617142Y-128909619D01*
X173617142Y-128909619D02*
X173950475Y-129290571D01*
X173950475Y-129290571D02*
X173807618Y-129290571D01*
X173807618Y-129290571D02*
X173712380Y-129338190D01*
X173712380Y-129338190D02*
X173664761Y-129385809D01*
X173664761Y-129385809D02*
X173617142Y-129481047D01*
X173617142Y-129481047D02*
X173617142Y-129719142D01*
X173617142Y-129719142D02*
X173664761Y-129814380D01*
X173664761Y-129814380D02*
X173712380Y-129862000D01*
X173712380Y-129862000D02*
X173807618Y-129909619D01*
X173807618Y-129909619D02*
X174093332Y-129909619D01*
X174093332Y-129909619D02*
X174188570Y-129862000D01*
X174188570Y-129862000D02*
X174236189Y-129814380D01*
X216225238Y-149197619D02*
X216701428Y-149197619D01*
X216701428Y-149197619D02*
X216701428Y-148197619D01*
X215320476Y-149197619D02*
X215653809Y-148721428D01*
X215891904Y-149197619D02*
X215891904Y-148197619D01*
X215891904Y-148197619D02*
X215510952Y-148197619D01*
X215510952Y-148197619D02*
X215415714Y-148245238D01*
X215415714Y-148245238D02*
X215368095Y-148292857D01*
X215368095Y-148292857D02*
X215320476Y-148388095D01*
X215320476Y-148388095D02*
X215320476Y-148530952D01*
X215320476Y-148530952D02*
X215368095Y-148626190D01*
X215368095Y-148626190D02*
X215415714Y-148673809D01*
X215415714Y-148673809D02*
X215510952Y-148721428D01*
X215510952Y-148721428D02*
X215891904Y-148721428D01*
X214320476Y-149102380D02*
X214368095Y-149150000D01*
X214368095Y-149150000D02*
X214510952Y-149197619D01*
X214510952Y-149197619D02*
X214606190Y-149197619D01*
X214606190Y-149197619D02*
X214749047Y-149150000D01*
X214749047Y-149150000D02*
X214844285Y-149054761D01*
X214844285Y-149054761D02*
X214891904Y-148959523D01*
X214891904Y-148959523D02*
X214939523Y-148769047D01*
X214939523Y-148769047D02*
X214939523Y-148626190D01*
X214939523Y-148626190D02*
X214891904Y-148435714D01*
X214891904Y-148435714D02*
X214844285Y-148340476D01*
X214844285Y-148340476D02*
X214749047Y-148245238D01*
X214749047Y-148245238D02*
X214606190Y-148197619D01*
X214606190Y-148197619D02*
X214510952Y-148197619D01*
X214510952Y-148197619D02*
X214368095Y-148245238D01*
X214368095Y-148245238D02*
X214320476Y-148292857D01*
X213415714Y-149197619D02*
X213891904Y-149197619D01*
X213891904Y-149197619D02*
X213891904Y-148197619D01*
X213082380Y-149197619D02*
X213082380Y-148197619D01*
X212510952Y-149197619D02*
X212939523Y-148626190D01*
X212510952Y-148197619D02*
X213082380Y-148769047D01*
X216368094Y-144149619D02*
X215796666Y-144149619D01*
X216082380Y-145149619D02*
X216082380Y-144149619D01*
X215463332Y-145149619D02*
X215463332Y-144149619D01*
X215463332Y-144149619D02*
X215082380Y-144149619D01*
X215082380Y-144149619D02*
X214987142Y-144197238D01*
X214987142Y-144197238D02*
X214939523Y-144244857D01*
X214939523Y-144244857D02*
X214891904Y-144340095D01*
X214891904Y-144340095D02*
X214891904Y-144482952D01*
X214891904Y-144482952D02*
X214939523Y-144578190D01*
X214939523Y-144578190D02*
X214987142Y-144625809D01*
X214987142Y-144625809D02*
X215082380Y-144673428D01*
X215082380Y-144673428D02*
X215463332Y-144673428D01*
X213939523Y-145149619D02*
X214510951Y-145149619D01*
X214225237Y-145149619D02*
X214225237Y-144149619D01*
X214225237Y-144149619D02*
X214320475Y-144292476D01*
X214320475Y-144292476D02*
X214415713Y-144387714D01*
X214415713Y-144387714D02*
X214510951Y-144435333D01*
X213082380Y-144149619D02*
X213272856Y-144149619D01*
X213272856Y-144149619D02*
X213368094Y-144197238D01*
X213368094Y-144197238D02*
X213415713Y-144244857D01*
X213415713Y-144244857D02*
X213510951Y-144387714D01*
X213510951Y-144387714D02*
X213558570Y-144578190D01*
X213558570Y-144578190D02*
X213558570Y-144959142D01*
X213558570Y-144959142D02*
X213510951Y-145054380D01*
X213510951Y-145054380D02*
X213463332Y-145102000D01*
X213463332Y-145102000D02*
X213368094Y-145149619D01*
X213368094Y-145149619D02*
X213177618Y-145149619D01*
X213177618Y-145149619D02*
X213082380Y-145102000D01*
X213082380Y-145102000D02*
X213034761Y-145054380D01*
X213034761Y-145054380D02*
X212987142Y-144959142D01*
X212987142Y-144959142D02*
X212987142Y-144721047D01*
X212987142Y-144721047D02*
X213034761Y-144625809D01*
X213034761Y-144625809D02*
X213082380Y-144578190D01*
X213082380Y-144578190D02*
X213177618Y-144530571D01*
X213177618Y-144530571D02*
X213368094Y-144530571D01*
X213368094Y-144530571D02*
X213463332Y-144578190D01*
X213463332Y-144578190D02*
X213510951Y-144625809D01*
X213510951Y-144625809D02*
X213558570Y-144721047D01*
X153995238Y-100302619D02*
X154471428Y-100302619D01*
X154471428Y-100302619D02*
X154471428Y-99302619D01*
X153090476Y-100302619D02*
X153423809Y-99826428D01*
X153661904Y-100302619D02*
X153661904Y-99302619D01*
X153661904Y-99302619D02*
X153280952Y-99302619D01*
X153280952Y-99302619D02*
X153185714Y-99350238D01*
X153185714Y-99350238D02*
X153138095Y-99397857D01*
X153138095Y-99397857D02*
X153090476Y-99493095D01*
X153090476Y-99493095D02*
X153090476Y-99635952D01*
X153090476Y-99635952D02*
X153138095Y-99731190D01*
X153138095Y-99731190D02*
X153185714Y-99778809D01*
X153185714Y-99778809D02*
X153280952Y-99826428D01*
X153280952Y-99826428D02*
X153661904Y-99826428D01*
X152090476Y-100207380D02*
X152138095Y-100255000D01*
X152138095Y-100255000D02*
X152280952Y-100302619D01*
X152280952Y-100302619D02*
X152376190Y-100302619D01*
X152376190Y-100302619D02*
X152519047Y-100255000D01*
X152519047Y-100255000D02*
X152614285Y-100159761D01*
X152614285Y-100159761D02*
X152661904Y-100064523D01*
X152661904Y-100064523D02*
X152709523Y-99874047D01*
X152709523Y-99874047D02*
X152709523Y-99731190D01*
X152709523Y-99731190D02*
X152661904Y-99540714D01*
X152661904Y-99540714D02*
X152614285Y-99445476D01*
X152614285Y-99445476D02*
X152519047Y-99350238D01*
X152519047Y-99350238D02*
X152376190Y-99302619D01*
X152376190Y-99302619D02*
X152280952Y-99302619D01*
X152280952Y-99302619D02*
X152138095Y-99350238D01*
X152138095Y-99350238D02*
X152090476Y-99397857D01*
X151185714Y-100302619D02*
X151661904Y-100302619D01*
X151661904Y-100302619D02*
X151661904Y-99302619D01*
X150852380Y-100302619D02*
X150852380Y-99302619D01*
X150280952Y-100302619D02*
X150709523Y-99731190D01*
X150280952Y-99302619D02*
X150852380Y-99874047D01*
X154138094Y-95254619D02*
X153566666Y-95254619D01*
X153852380Y-96254619D02*
X153852380Y-95254619D01*
X153233332Y-96254619D02*
X153233332Y-95254619D01*
X153233332Y-95254619D02*
X152852380Y-95254619D01*
X152852380Y-95254619D02*
X152757142Y-95302238D01*
X152757142Y-95302238D02*
X152709523Y-95349857D01*
X152709523Y-95349857D02*
X152661904Y-95445095D01*
X152661904Y-95445095D02*
X152661904Y-95587952D01*
X152661904Y-95587952D02*
X152709523Y-95683190D01*
X152709523Y-95683190D02*
X152757142Y-95730809D01*
X152757142Y-95730809D02*
X152852380Y-95778428D01*
X152852380Y-95778428D02*
X153233332Y-95778428D01*
X151709523Y-96254619D02*
X152280951Y-96254619D01*
X151995237Y-96254619D02*
X151995237Y-95254619D01*
X151995237Y-95254619D02*
X152090475Y-95397476D01*
X152090475Y-95397476D02*
X152185713Y-95492714D01*
X152185713Y-95492714D02*
X152280951Y-95540333D01*
X151328570Y-95349857D02*
X151280951Y-95302238D01*
X151280951Y-95302238D02*
X151185713Y-95254619D01*
X151185713Y-95254619D02*
X150947618Y-95254619D01*
X150947618Y-95254619D02*
X150852380Y-95302238D01*
X150852380Y-95302238D02*
X150804761Y-95349857D01*
X150804761Y-95349857D02*
X150757142Y-95445095D01*
X150757142Y-95445095D02*
X150757142Y-95540333D01*
X150757142Y-95540333D02*
X150804761Y-95683190D01*
X150804761Y-95683190D02*
X151376189Y-96254619D01*
X151376189Y-96254619D02*
X150757142Y-96254619D01*
X165707619Y-63968333D02*
X165231428Y-63635000D01*
X165707619Y-63396905D02*
X164707619Y-63396905D01*
X164707619Y-63396905D02*
X164707619Y-63777857D01*
X164707619Y-63777857D02*
X164755238Y-63873095D01*
X164755238Y-63873095D02*
X164802857Y-63920714D01*
X164802857Y-63920714D02*
X164898095Y-63968333D01*
X164898095Y-63968333D02*
X165040952Y-63968333D01*
X165040952Y-63968333D02*
X165136190Y-63920714D01*
X165136190Y-63920714D02*
X165183809Y-63873095D01*
X165183809Y-63873095D02*
X165231428Y-63777857D01*
X165231428Y-63777857D02*
X165231428Y-63396905D01*
X164707619Y-64301667D02*
X165707619Y-64968333D01*
X164707619Y-64968333D02*
X165707619Y-64301667D01*
X160659619Y-62396905D02*
X160659619Y-62968333D01*
X161659619Y-62682619D02*
X160659619Y-62682619D01*
X161659619Y-63301667D02*
X160659619Y-63301667D01*
X160659619Y-63301667D02*
X160659619Y-63682619D01*
X160659619Y-63682619D02*
X160707238Y-63777857D01*
X160707238Y-63777857D02*
X160754857Y-63825476D01*
X160754857Y-63825476D02*
X160850095Y-63873095D01*
X160850095Y-63873095D02*
X160992952Y-63873095D01*
X160992952Y-63873095D02*
X161088190Y-63825476D01*
X161088190Y-63825476D02*
X161135809Y-63777857D01*
X161135809Y-63777857D02*
X161183428Y-63682619D01*
X161183428Y-63682619D02*
X161183428Y-63301667D01*
X161659619Y-64825476D02*
X161659619Y-64254048D01*
X161659619Y-64539762D02*
X160659619Y-64539762D01*
X160659619Y-64539762D02*
X160802476Y-64444524D01*
X160802476Y-64444524D02*
X160897714Y-64349286D01*
X160897714Y-64349286D02*
X160945333Y-64254048D01*
X161659619Y-65301667D02*
X161659619Y-65492143D01*
X161659619Y-65492143D02*
X161612000Y-65587381D01*
X161612000Y-65587381D02*
X161564380Y-65635000D01*
X161564380Y-65635000D02*
X161421523Y-65730238D01*
X161421523Y-65730238D02*
X161231047Y-65777857D01*
X161231047Y-65777857D02*
X160850095Y-65777857D01*
X160850095Y-65777857D02*
X160754857Y-65730238D01*
X160754857Y-65730238D02*
X160707238Y-65682619D01*
X160707238Y-65682619D02*
X160659619Y-65587381D01*
X160659619Y-65587381D02*
X160659619Y-65396905D01*
X160659619Y-65396905D02*
X160707238Y-65301667D01*
X160707238Y-65301667D02*
X160754857Y-65254048D01*
X160754857Y-65254048D02*
X160850095Y-65206429D01*
X160850095Y-65206429D02*
X161088190Y-65206429D01*
X161088190Y-65206429D02*
X161183428Y-65254048D01*
X161183428Y-65254048D02*
X161231047Y-65301667D01*
X161231047Y-65301667D02*
X161278666Y-65396905D01*
X161278666Y-65396905D02*
X161278666Y-65587381D01*
X161278666Y-65587381D02*
X161231047Y-65682619D01*
X161231047Y-65682619D02*
X161183428Y-65730238D01*
X161183428Y-65730238D02*
X161088190Y-65777857D01*
X167869999Y-100302619D02*
X167869999Y-99302619D01*
X167869999Y-99302619D02*
X167631904Y-99302619D01*
X167631904Y-99302619D02*
X167489047Y-99350238D01*
X167489047Y-99350238D02*
X167393809Y-99445476D01*
X167393809Y-99445476D02*
X167346190Y-99540714D01*
X167346190Y-99540714D02*
X167298571Y-99731190D01*
X167298571Y-99731190D02*
X167298571Y-99874047D01*
X167298571Y-99874047D02*
X167346190Y-100064523D01*
X167346190Y-100064523D02*
X167393809Y-100159761D01*
X167393809Y-100159761D02*
X167489047Y-100255000D01*
X167489047Y-100255000D02*
X167631904Y-100302619D01*
X167631904Y-100302619D02*
X167869999Y-100302619D01*
X166917618Y-100016904D02*
X166441428Y-100016904D01*
X167012856Y-100302619D02*
X166679523Y-99302619D01*
X166679523Y-99302619D02*
X166346190Y-100302619D01*
X166155713Y-99302619D02*
X165584285Y-99302619D01*
X165869999Y-100302619D02*
X165869999Y-99302619D01*
X165298570Y-100016904D02*
X164822380Y-100016904D01*
X165393808Y-100302619D02*
X165060475Y-99302619D01*
X165060475Y-99302619D02*
X164727142Y-100302619D01*
X168108094Y-95254619D02*
X167536666Y-95254619D01*
X167822380Y-96254619D02*
X167822380Y-95254619D01*
X167203332Y-96254619D02*
X167203332Y-95254619D01*
X167203332Y-95254619D02*
X166822380Y-95254619D01*
X166822380Y-95254619D02*
X166727142Y-95302238D01*
X166727142Y-95302238D02*
X166679523Y-95349857D01*
X166679523Y-95349857D02*
X166631904Y-95445095D01*
X166631904Y-95445095D02*
X166631904Y-95587952D01*
X166631904Y-95587952D02*
X166679523Y-95683190D01*
X166679523Y-95683190D02*
X166727142Y-95730809D01*
X166727142Y-95730809D02*
X166822380Y-95778428D01*
X166822380Y-95778428D02*
X167203332Y-95778428D01*
X165679523Y-96254619D02*
X166250951Y-96254619D01*
X165965237Y-96254619D02*
X165965237Y-95254619D01*
X165965237Y-95254619D02*
X166060475Y-95397476D01*
X166060475Y-95397476D02*
X166155713Y-95492714D01*
X166155713Y-95492714D02*
X166250951Y-95540333D01*
X164774761Y-95254619D02*
X165250951Y-95254619D01*
X165250951Y-95254619D02*
X165298570Y-95730809D01*
X165298570Y-95730809D02*
X165250951Y-95683190D01*
X165250951Y-95683190D02*
X165155713Y-95635571D01*
X165155713Y-95635571D02*
X164917618Y-95635571D01*
X164917618Y-95635571D02*
X164822380Y-95683190D01*
X164822380Y-95683190D02*
X164774761Y-95730809D01*
X164774761Y-95730809D02*
X164727142Y-95826047D01*
X164727142Y-95826047D02*
X164727142Y-96064142D01*
X164727142Y-96064142D02*
X164774761Y-96159380D01*
X164774761Y-96159380D02*
X164822380Y-96207000D01*
X164822380Y-96207000D02*
X164917618Y-96254619D01*
X164917618Y-96254619D02*
X165155713Y-96254619D01*
X165155713Y-96254619D02*
X165250951Y-96207000D01*
X165250951Y-96207000D02*
X165298570Y-96159380D01*
X161758094Y-128909619D02*
X161186666Y-128909619D01*
X161472380Y-129909619D02*
X161472380Y-128909619D01*
X160853332Y-129909619D02*
X160853332Y-128909619D01*
X160853332Y-128909619D02*
X160472380Y-128909619D01*
X160472380Y-128909619D02*
X160377142Y-128957238D01*
X160377142Y-128957238D02*
X160329523Y-129004857D01*
X160329523Y-129004857D02*
X160281904Y-129100095D01*
X160281904Y-129100095D02*
X160281904Y-129242952D01*
X160281904Y-129242952D02*
X160329523Y-129338190D01*
X160329523Y-129338190D02*
X160377142Y-129385809D01*
X160377142Y-129385809D02*
X160472380Y-129433428D01*
X160472380Y-129433428D02*
X160853332Y-129433428D01*
X159900951Y-129004857D02*
X159853332Y-128957238D01*
X159853332Y-128957238D02*
X159758094Y-128909619D01*
X159758094Y-128909619D02*
X159519999Y-128909619D01*
X159519999Y-128909619D02*
X159424761Y-128957238D01*
X159424761Y-128957238D02*
X159377142Y-129004857D01*
X159377142Y-129004857D02*
X159329523Y-129100095D01*
X159329523Y-129100095D02*
X159329523Y-129195333D01*
X159329523Y-129195333D02*
X159377142Y-129338190D01*
X159377142Y-129338190D02*
X159948570Y-129909619D01*
X159948570Y-129909619D02*
X159329523Y-129909619D01*
X158472380Y-128909619D02*
X158662856Y-128909619D01*
X158662856Y-128909619D02*
X158758094Y-128957238D01*
X158758094Y-128957238D02*
X158805713Y-129004857D01*
X158805713Y-129004857D02*
X158900951Y-129147714D01*
X158900951Y-129147714D02*
X158948570Y-129338190D01*
X158948570Y-129338190D02*
X158948570Y-129719142D01*
X158948570Y-129719142D02*
X158900951Y-129814380D01*
X158900951Y-129814380D02*
X158853332Y-129862000D01*
X158853332Y-129862000D02*
X158758094Y-129909619D01*
X158758094Y-129909619D02*
X158567618Y-129909619D01*
X158567618Y-129909619D02*
X158472380Y-129862000D01*
X158472380Y-129862000D02*
X158424761Y-129814380D01*
X158424761Y-129814380D02*
X158377142Y-129719142D01*
X158377142Y-129719142D02*
X158377142Y-129481047D01*
X158377142Y-129481047D02*
X158424761Y-129385809D01*
X158424761Y-129385809D02*
X158472380Y-129338190D01*
X158472380Y-129338190D02*
X158567618Y-129290571D01*
X158567618Y-129290571D02*
X158758094Y-129290571D01*
X158758094Y-129290571D02*
X158853332Y-129338190D01*
X158853332Y-129338190D02*
X158900951Y-129385809D01*
X158900951Y-129385809D02*
X158948570Y-129481047D01*
X161758094Y-133957619D02*
X161758094Y-132957619D01*
X161758094Y-132957619D02*
X161424761Y-133671904D01*
X161424761Y-133671904D02*
X161091428Y-132957619D01*
X161091428Y-132957619D02*
X161091428Y-133957619D01*
X160043809Y-133862380D02*
X160091428Y-133910000D01*
X160091428Y-133910000D02*
X160234285Y-133957619D01*
X160234285Y-133957619D02*
X160329523Y-133957619D01*
X160329523Y-133957619D02*
X160472380Y-133910000D01*
X160472380Y-133910000D02*
X160567618Y-133814761D01*
X160567618Y-133814761D02*
X160615237Y-133719523D01*
X160615237Y-133719523D02*
X160662856Y-133529047D01*
X160662856Y-133529047D02*
X160662856Y-133386190D01*
X160662856Y-133386190D02*
X160615237Y-133195714D01*
X160615237Y-133195714D02*
X160567618Y-133100476D01*
X160567618Y-133100476D02*
X160472380Y-133005238D01*
X160472380Y-133005238D02*
X160329523Y-132957619D01*
X160329523Y-132957619D02*
X160234285Y-132957619D01*
X160234285Y-132957619D02*
X160091428Y-133005238D01*
X160091428Y-133005238D02*
X160043809Y-133052857D01*
X159139047Y-133957619D02*
X159615237Y-133957619D01*
X159615237Y-133957619D02*
X159615237Y-132957619D01*
X158805713Y-133957619D02*
X158805713Y-132957619D01*
X158234285Y-133957619D02*
X158662856Y-133386190D01*
X158234285Y-132957619D02*
X158805713Y-133529047D01*
X153771904Y-67314619D02*
X153200476Y-67314619D01*
X153486190Y-68314619D02*
X153486190Y-67314619D01*
X152867142Y-68314619D02*
X152867142Y-67314619D01*
X152867142Y-67314619D02*
X152486190Y-67314619D01*
X152486190Y-67314619D02*
X152390952Y-67362238D01*
X152390952Y-67362238D02*
X152343333Y-67409857D01*
X152343333Y-67409857D02*
X152295714Y-67505095D01*
X152295714Y-67505095D02*
X152295714Y-67647952D01*
X152295714Y-67647952D02*
X152343333Y-67743190D01*
X152343333Y-67743190D02*
X152390952Y-67790809D01*
X152390952Y-67790809D02*
X152486190Y-67838428D01*
X152486190Y-67838428D02*
X152867142Y-67838428D01*
X151438571Y-67314619D02*
X151629047Y-67314619D01*
X151629047Y-67314619D02*
X151724285Y-67362238D01*
X151724285Y-67362238D02*
X151771904Y-67409857D01*
X151771904Y-67409857D02*
X151867142Y-67552714D01*
X151867142Y-67552714D02*
X151914761Y-67743190D01*
X151914761Y-67743190D02*
X151914761Y-68124142D01*
X151914761Y-68124142D02*
X151867142Y-68219380D01*
X151867142Y-68219380D02*
X151819523Y-68267000D01*
X151819523Y-68267000D02*
X151724285Y-68314619D01*
X151724285Y-68314619D02*
X151533809Y-68314619D01*
X151533809Y-68314619D02*
X151438571Y-68267000D01*
X151438571Y-68267000D02*
X151390952Y-68219380D01*
X151390952Y-68219380D02*
X151343333Y-68124142D01*
X151343333Y-68124142D02*
X151343333Y-67886047D01*
X151343333Y-67886047D02*
X151390952Y-67790809D01*
X151390952Y-67790809D02*
X151438571Y-67743190D01*
X151438571Y-67743190D02*
X151533809Y-67695571D01*
X151533809Y-67695571D02*
X151724285Y-67695571D01*
X151724285Y-67695571D02*
X151819523Y-67743190D01*
X151819523Y-67743190D02*
X151867142Y-67790809D01*
X151867142Y-67790809D02*
X151914761Y-67886047D01*
X153105238Y-72267380D02*
X153152857Y-72315000D01*
X153152857Y-72315000D02*
X153295714Y-72362619D01*
X153295714Y-72362619D02*
X153390952Y-72362619D01*
X153390952Y-72362619D02*
X153533809Y-72315000D01*
X153533809Y-72315000D02*
X153629047Y-72219761D01*
X153629047Y-72219761D02*
X153676666Y-72124523D01*
X153676666Y-72124523D02*
X153724285Y-71934047D01*
X153724285Y-71934047D02*
X153724285Y-71791190D01*
X153724285Y-71791190D02*
X153676666Y-71600714D01*
X153676666Y-71600714D02*
X153629047Y-71505476D01*
X153629047Y-71505476D02*
X153533809Y-71410238D01*
X153533809Y-71410238D02*
X153390952Y-71362619D01*
X153390952Y-71362619D02*
X153295714Y-71362619D01*
X153295714Y-71362619D02*
X153152857Y-71410238D01*
X153152857Y-71410238D02*
X153105238Y-71457857D01*
X152200476Y-72362619D02*
X152676666Y-72362619D01*
X152676666Y-72362619D02*
X152676666Y-71362619D01*
X151867142Y-72362619D02*
X151867142Y-71362619D01*
X151295714Y-72362619D02*
X151724285Y-71791190D01*
X151295714Y-71362619D02*
X151867142Y-71934047D01*
X154138094Y-106017619D02*
X154138094Y-105017619D01*
X154138094Y-105017619D02*
X153804761Y-105731904D01*
X153804761Y-105731904D02*
X153471428Y-105017619D01*
X153471428Y-105017619D02*
X153471428Y-106017619D01*
X152423809Y-105922380D02*
X152471428Y-105970000D01*
X152471428Y-105970000D02*
X152614285Y-106017619D01*
X152614285Y-106017619D02*
X152709523Y-106017619D01*
X152709523Y-106017619D02*
X152852380Y-105970000D01*
X152852380Y-105970000D02*
X152947618Y-105874761D01*
X152947618Y-105874761D02*
X152995237Y-105779523D01*
X152995237Y-105779523D02*
X153042856Y-105589047D01*
X153042856Y-105589047D02*
X153042856Y-105446190D01*
X153042856Y-105446190D02*
X152995237Y-105255714D01*
X152995237Y-105255714D02*
X152947618Y-105160476D01*
X152947618Y-105160476D02*
X152852380Y-105065238D01*
X152852380Y-105065238D02*
X152709523Y-105017619D01*
X152709523Y-105017619D02*
X152614285Y-105017619D01*
X152614285Y-105017619D02*
X152471428Y-105065238D01*
X152471428Y-105065238D02*
X152423809Y-105112857D01*
X151519047Y-106017619D02*
X151995237Y-106017619D01*
X151995237Y-106017619D02*
X151995237Y-105017619D01*
X151185713Y-106017619D02*
X151185713Y-105017619D01*
X150614285Y-106017619D02*
X151042856Y-105446190D01*
X150614285Y-105017619D02*
X151185713Y-105589047D01*
X154138094Y-100969619D02*
X153566666Y-100969619D01*
X153852380Y-101969619D02*
X153852380Y-100969619D01*
X153233332Y-101969619D02*
X153233332Y-100969619D01*
X153233332Y-100969619D02*
X152852380Y-100969619D01*
X152852380Y-100969619D02*
X152757142Y-101017238D01*
X152757142Y-101017238D02*
X152709523Y-101064857D01*
X152709523Y-101064857D02*
X152661904Y-101160095D01*
X152661904Y-101160095D02*
X152661904Y-101302952D01*
X152661904Y-101302952D02*
X152709523Y-101398190D01*
X152709523Y-101398190D02*
X152757142Y-101445809D01*
X152757142Y-101445809D02*
X152852380Y-101493428D01*
X152852380Y-101493428D02*
X153233332Y-101493428D01*
X151709523Y-101969619D02*
X152280951Y-101969619D01*
X151995237Y-101969619D02*
X151995237Y-100969619D01*
X151995237Y-100969619D02*
X152090475Y-101112476D01*
X152090475Y-101112476D02*
X152185713Y-101207714D01*
X152185713Y-101207714D02*
X152280951Y-101255333D01*
X151376189Y-100969619D02*
X150757142Y-100969619D01*
X150757142Y-100969619D02*
X151090475Y-101350571D01*
X151090475Y-101350571D02*
X150947618Y-101350571D01*
X150947618Y-101350571D02*
X150852380Y-101398190D01*
X150852380Y-101398190D02*
X150804761Y-101445809D01*
X150804761Y-101445809D02*
X150757142Y-101541047D01*
X150757142Y-101541047D02*
X150757142Y-101779142D01*
X150757142Y-101779142D02*
X150804761Y-101874380D01*
X150804761Y-101874380D02*
X150852380Y-101922000D01*
X150852380Y-101922000D02*
X150947618Y-101969619D01*
X150947618Y-101969619D02*
X151233332Y-101969619D01*
X151233332Y-101969619D02*
X151328570Y-101922000D01*
X151328570Y-101922000D02*
X151376189Y-101874380D01*
X109211904Y-53344619D02*
X108640476Y-53344619D01*
X108926190Y-54344619D02*
X108926190Y-53344619D01*
X108307142Y-54344619D02*
X108307142Y-53344619D01*
X108307142Y-53344619D02*
X107926190Y-53344619D01*
X107926190Y-53344619D02*
X107830952Y-53392238D01*
X107830952Y-53392238D02*
X107783333Y-53439857D01*
X107783333Y-53439857D02*
X107735714Y-53535095D01*
X107735714Y-53535095D02*
X107735714Y-53677952D01*
X107735714Y-53677952D02*
X107783333Y-53773190D01*
X107783333Y-53773190D02*
X107830952Y-53820809D01*
X107830952Y-53820809D02*
X107926190Y-53868428D01*
X107926190Y-53868428D02*
X108307142Y-53868428D01*
X107354761Y-53439857D02*
X107307142Y-53392238D01*
X107307142Y-53392238D02*
X107211904Y-53344619D01*
X107211904Y-53344619D02*
X106973809Y-53344619D01*
X106973809Y-53344619D02*
X106878571Y-53392238D01*
X106878571Y-53392238D02*
X106830952Y-53439857D01*
X106830952Y-53439857D02*
X106783333Y-53535095D01*
X106783333Y-53535095D02*
X106783333Y-53630333D01*
X106783333Y-53630333D02*
X106830952Y-53773190D01*
X106830952Y-53773190D02*
X107402380Y-54344619D01*
X107402380Y-54344619D02*
X106783333Y-54344619D01*
X108711904Y-57440238D02*
X108807142Y-57392619D01*
X108807142Y-57392619D02*
X108949999Y-57392619D01*
X108949999Y-57392619D02*
X109092856Y-57440238D01*
X109092856Y-57440238D02*
X109188094Y-57535476D01*
X109188094Y-57535476D02*
X109235713Y-57630714D01*
X109235713Y-57630714D02*
X109283332Y-57821190D01*
X109283332Y-57821190D02*
X109283332Y-57964047D01*
X109283332Y-57964047D02*
X109235713Y-58154523D01*
X109235713Y-58154523D02*
X109188094Y-58249761D01*
X109188094Y-58249761D02*
X109092856Y-58345000D01*
X109092856Y-58345000D02*
X108949999Y-58392619D01*
X108949999Y-58392619D02*
X108854761Y-58392619D01*
X108854761Y-58392619D02*
X108711904Y-58345000D01*
X108711904Y-58345000D02*
X108664285Y-58297380D01*
X108664285Y-58297380D02*
X108664285Y-57964047D01*
X108664285Y-57964047D02*
X108854761Y-57964047D01*
X108235713Y-58392619D02*
X108235713Y-57392619D01*
X108235713Y-57392619D02*
X107664285Y-58392619D01*
X107664285Y-58392619D02*
X107664285Y-57392619D01*
X107188094Y-58392619D02*
X107188094Y-57392619D01*
X107188094Y-57392619D02*
X106949999Y-57392619D01*
X106949999Y-57392619D02*
X106807142Y-57440238D01*
X106807142Y-57440238D02*
X106711904Y-57535476D01*
X106711904Y-57535476D02*
X106664285Y-57630714D01*
X106664285Y-57630714D02*
X106616666Y-57821190D01*
X106616666Y-57821190D02*
X106616666Y-57964047D01*
X106616666Y-57964047D02*
X106664285Y-58154523D01*
X106664285Y-58154523D02*
X106711904Y-58249761D01*
X106711904Y-58249761D02*
X106807142Y-58345000D01*
X106807142Y-58345000D02*
X106949999Y-58392619D01*
X106949999Y-58392619D02*
X107188094Y-58392619D01*
X163956904Y-118670000D02*
X163814047Y-118717619D01*
X163814047Y-118717619D02*
X163575952Y-118717619D01*
X163575952Y-118717619D02*
X163480714Y-118670000D01*
X163480714Y-118670000D02*
X163433095Y-118622380D01*
X163433095Y-118622380D02*
X163385476Y-118527142D01*
X163385476Y-118527142D02*
X163385476Y-118431904D01*
X163385476Y-118431904D02*
X163433095Y-118336666D01*
X163433095Y-118336666D02*
X163480714Y-118289047D01*
X163480714Y-118289047D02*
X163575952Y-118241428D01*
X163575952Y-118241428D02*
X163766428Y-118193809D01*
X163766428Y-118193809D02*
X163861666Y-118146190D01*
X163861666Y-118146190D02*
X163909285Y-118098571D01*
X163909285Y-118098571D02*
X163956904Y-118003333D01*
X163956904Y-118003333D02*
X163956904Y-117908095D01*
X163956904Y-117908095D02*
X163909285Y-117812857D01*
X163909285Y-117812857D02*
X163861666Y-117765238D01*
X163861666Y-117765238D02*
X163766428Y-117717619D01*
X163766428Y-117717619D02*
X163528333Y-117717619D01*
X163528333Y-117717619D02*
X163385476Y-117765238D01*
X162433095Y-118717619D02*
X163004523Y-118717619D01*
X162718809Y-118717619D02*
X162718809Y-117717619D01*
X162718809Y-117717619D02*
X162814047Y-117860476D01*
X162814047Y-117860476D02*
X162909285Y-117955714D01*
X162909285Y-117955714D02*
X163004523Y-118003333D01*
X164933094Y-113669619D02*
X164361666Y-113669619D01*
X164647380Y-114669619D02*
X164647380Y-113669619D01*
X164028332Y-114669619D02*
X164028332Y-113669619D01*
X164028332Y-113669619D02*
X163647380Y-113669619D01*
X163647380Y-113669619D02*
X163552142Y-113717238D01*
X163552142Y-113717238D02*
X163504523Y-113764857D01*
X163504523Y-113764857D02*
X163456904Y-113860095D01*
X163456904Y-113860095D02*
X163456904Y-114002952D01*
X163456904Y-114002952D02*
X163504523Y-114098190D01*
X163504523Y-114098190D02*
X163552142Y-114145809D01*
X163552142Y-114145809D02*
X163647380Y-114193428D01*
X163647380Y-114193428D02*
X164028332Y-114193428D01*
X163075951Y-113764857D02*
X163028332Y-113717238D01*
X163028332Y-113717238D02*
X162933094Y-113669619D01*
X162933094Y-113669619D02*
X162694999Y-113669619D01*
X162694999Y-113669619D02*
X162599761Y-113717238D01*
X162599761Y-113717238D02*
X162552142Y-113764857D01*
X162552142Y-113764857D02*
X162504523Y-113860095D01*
X162504523Y-113860095D02*
X162504523Y-113955333D01*
X162504523Y-113955333D02*
X162552142Y-114098190D01*
X162552142Y-114098190D02*
X163123570Y-114669619D01*
X163123570Y-114669619D02*
X162504523Y-114669619D01*
X162123570Y-113764857D02*
X162075951Y-113717238D01*
X162075951Y-113717238D02*
X161980713Y-113669619D01*
X161980713Y-113669619D02*
X161742618Y-113669619D01*
X161742618Y-113669619D02*
X161647380Y-113717238D01*
X161647380Y-113717238D02*
X161599761Y-113764857D01*
X161599761Y-113764857D02*
X161552142Y-113860095D01*
X161552142Y-113860095D02*
X161552142Y-113955333D01*
X161552142Y-113955333D02*
X161599761Y-114098190D01*
X161599761Y-114098190D02*
X162171189Y-114669619D01*
X162171189Y-114669619D02*
X161552142Y-114669619D01*
X164707619Y-67818095D02*
X164707619Y-68389523D01*
X165707619Y-68103809D02*
X164707619Y-68103809D01*
X164707619Y-68627619D02*
X165707619Y-69294285D01*
X164707619Y-69294285D02*
X165707619Y-68627619D01*
X160659619Y-66841905D02*
X160659619Y-67413333D01*
X161659619Y-67127619D02*
X160659619Y-67127619D01*
X161659619Y-67746667D02*
X160659619Y-67746667D01*
X160659619Y-67746667D02*
X160659619Y-68127619D01*
X160659619Y-68127619D02*
X160707238Y-68222857D01*
X160707238Y-68222857D02*
X160754857Y-68270476D01*
X160754857Y-68270476D02*
X160850095Y-68318095D01*
X160850095Y-68318095D02*
X160992952Y-68318095D01*
X160992952Y-68318095D02*
X161088190Y-68270476D01*
X161088190Y-68270476D02*
X161135809Y-68222857D01*
X161135809Y-68222857D02*
X161183428Y-68127619D01*
X161183428Y-68127619D02*
X161183428Y-67746667D01*
X160754857Y-68699048D02*
X160707238Y-68746667D01*
X160707238Y-68746667D02*
X160659619Y-68841905D01*
X160659619Y-68841905D02*
X160659619Y-69080000D01*
X160659619Y-69080000D02*
X160707238Y-69175238D01*
X160707238Y-69175238D02*
X160754857Y-69222857D01*
X160754857Y-69222857D02*
X160850095Y-69270476D01*
X160850095Y-69270476D02*
X160945333Y-69270476D01*
X160945333Y-69270476D02*
X161088190Y-69222857D01*
X161088190Y-69222857D02*
X161659619Y-68651429D01*
X161659619Y-68651429D02*
X161659619Y-69270476D01*
X160659619Y-69889524D02*
X160659619Y-69984762D01*
X160659619Y-69984762D02*
X160707238Y-70080000D01*
X160707238Y-70080000D02*
X160754857Y-70127619D01*
X160754857Y-70127619D02*
X160850095Y-70175238D01*
X160850095Y-70175238D02*
X161040571Y-70222857D01*
X161040571Y-70222857D02*
X161278666Y-70222857D01*
X161278666Y-70222857D02*
X161469142Y-70175238D01*
X161469142Y-70175238D02*
X161564380Y-70127619D01*
X161564380Y-70127619D02*
X161612000Y-70080000D01*
X161612000Y-70080000D02*
X161659619Y-69984762D01*
X161659619Y-69984762D02*
X161659619Y-69889524D01*
X161659619Y-69889524D02*
X161612000Y-69794286D01*
X161612000Y-69794286D02*
X161564380Y-69746667D01*
X161564380Y-69746667D02*
X161469142Y-69699048D01*
X161469142Y-69699048D02*
X161278666Y-69651429D01*
X161278666Y-69651429D02*
X161040571Y-69651429D01*
X161040571Y-69651429D02*
X160850095Y-69699048D01*
X160850095Y-69699048D02*
X160754857Y-69746667D01*
X160754857Y-69746667D02*
X160707238Y-69794286D01*
X160707238Y-69794286D02*
X160659619Y-69889524D01*
X195046904Y-33477619D02*
X194475476Y-33477619D01*
X194761190Y-34477619D02*
X194761190Y-33477619D01*
X194142142Y-34477619D02*
X194142142Y-33477619D01*
X194142142Y-33477619D02*
X193761190Y-33477619D01*
X193761190Y-33477619D02*
X193665952Y-33525238D01*
X193665952Y-33525238D02*
X193618333Y-33572857D01*
X193618333Y-33572857D02*
X193570714Y-33668095D01*
X193570714Y-33668095D02*
X193570714Y-33810952D01*
X193570714Y-33810952D02*
X193618333Y-33906190D01*
X193618333Y-33906190D02*
X193665952Y-33953809D01*
X193665952Y-33953809D02*
X193761190Y-34001428D01*
X193761190Y-34001428D02*
X194142142Y-34001428D01*
X192999285Y-33906190D02*
X193094523Y-33858571D01*
X193094523Y-33858571D02*
X193142142Y-33810952D01*
X193142142Y-33810952D02*
X193189761Y-33715714D01*
X193189761Y-33715714D02*
X193189761Y-33668095D01*
X193189761Y-33668095D02*
X193142142Y-33572857D01*
X193142142Y-33572857D02*
X193094523Y-33525238D01*
X193094523Y-33525238D02*
X192999285Y-33477619D01*
X192999285Y-33477619D02*
X192808809Y-33477619D01*
X192808809Y-33477619D02*
X192713571Y-33525238D01*
X192713571Y-33525238D02*
X192665952Y-33572857D01*
X192665952Y-33572857D02*
X192618333Y-33668095D01*
X192618333Y-33668095D02*
X192618333Y-33715714D01*
X192618333Y-33715714D02*
X192665952Y-33810952D01*
X192665952Y-33810952D02*
X192713571Y-33858571D01*
X192713571Y-33858571D02*
X192808809Y-33906190D01*
X192808809Y-33906190D02*
X192999285Y-33906190D01*
X192999285Y-33906190D02*
X193094523Y-33953809D01*
X193094523Y-33953809D02*
X193142142Y-34001428D01*
X193142142Y-34001428D02*
X193189761Y-34096666D01*
X193189761Y-34096666D02*
X193189761Y-34287142D01*
X193189761Y-34287142D02*
X193142142Y-34382380D01*
X193142142Y-34382380D02*
X193094523Y-34430000D01*
X193094523Y-34430000D02*
X192999285Y-34477619D01*
X192999285Y-34477619D02*
X192808809Y-34477619D01*
X192808809Y-34477619D02*
X192713571Y-34430000D01*
X192713571Y-34430000D02*
X192665952Y-34382380D01*
X192665952Y-34382380D02*
X192618333Y-34287142D01*
X192618333Y-34287142D02*
X192618333Y-34096666D01*
X192618333Y-34096666D02*
X192665952Y-34001428D01*
X192665952Y-34001428D02*
X192713571Y-33953809D01*
X192713571Y-33953809D02*
X192808809Y-33906190D01*
X198064285Y-34430000D02*
X197921428Y-34477619D01*
X197921428Y-34477619D02*
X197683333Y-34477619D01*
X197683333Y-34477619D02*
X197588095Y-34430000D01*
X197588095Y-34430000D02*
X197540476Y-34382380D01*
X197540476Y-34382380D02*
X197492857Y-34287142D01*
X197492857Y-34287142D02*
X197492857Y-34191904D01*
X197492857Y-34191904D02*
X197540476Y-34096666D01*
X197540476Y-34096666D02*
X197588095Y-34049047D01*
X197588095Y-34049047D02*
X197683333Y-34001428D01*
X197683333Y-34001428D02*
X197873809Y-33953809D01*
X197873809Y-33953809D02*
X197969047Y-33906190D01*
X197969047Y-33906190D02*
X198016666Y-33858571D01*
X198016666Y-33858571D02*
X198064285Y-33763333D01*
X198064285Y-33763333D02*
X198064285Y-33668095D01*
X198064285Y-33668095D02*
X198016666Y-33572857D01*
X198016666Y-33572857D02*
X197969047Y-33525238D01*
X197969047Y-33525238D02*
X197873809Y-33477619D01*
X197873809Y-33477619D02*
X197635714Y-33477619D01*
X197635714Y-33477619D02*
X197492857Y-33525238D01*
X197064285Y-34477619D02*
X197064285Y-33477619D01*
X197064285Y-33477619D02*
X196826190Y-33477619D01*
X196826190Y-33477619D02*
X196683333Y-33525238D01*
X196683333Y-33525238D02*
X196588095Y-33620476D01*
X196588095Y-33620476D02*
X196540476Y-33715714D01*
X196540476Y-33715714D02*
X196492857Y-33906190D01*
X196492857Y-33906190D02*
X196492857Y-34049047D01*
X196492857Y-34049047D02*
X196540476Y-34239523D01*
X196540476Y-34239523D02*
X196588095Y-34334761D01*
X196588095Y-34334761D02*
X196683333Y-34430000D01*
X196683333Y-34430000D02*
X196826190Y-34477619D01*
X196826190Y-34477619D02*
X197064285Y-34477619D01*
X196111904Y-34191904D02*
X195635714Y-34191904D01*
X196207142Y-34477619D02*
X195873809Y-33477619D01*
X195873809Y-33477619D02*
X195540476Y-34477619D01*
X143207142Y-62202619D02*
X143778570Y-62202619D01*
X143492856Y-62202619D02*
X143492856Y-61202619D01*
X143492856Y-61202619D02*
X143588094Y-61345476D01*
X143588094Y-61345476D02*
X143683332Y-61440714D01*
X143683332Y-61440714D02*
X143778570Y-61488333D01*
X142778570Y-62107380D02*
X142730951Y-62155000D01*
X142730951Y-62155000D02*
X142778570Y-62202619D01*
X142778570Y-62202619D02*
X142826189Y-62155000D01*
X142826189Y-62155000D02*
X142778570Y-62107380D01*
X142778570Y-62107380D02*
X142778570Y-62202619D01*
X142159523Y-61631190D02*
X142254761Y-61583571D01*
X142254761Y-61583571D02*
X142302380Y-61535952D01*
X142302380Y-61535952D02*
X142349999Y-61440714D01*
X142349999Y-61440714D02*
X142349999Y-61393095D01*
X142349999Y-61393095D02*
X142302380Y-61297857D01*
X142302380Y-61297857D02*
X142254761Y-61250238D01*
X142254761Y-61250238D02*
X142159523Y-61202619D01*
X142159523Y-61202619D02*
X141969047Y-61202619D01*
X141969047Y-61202619D02*
X141873809Y-61250238D01*
X141873809Y-61250238D02*
X141826190Y-61297857D01*
X141826190Y-61297857D02*
X141778571Y-61393095D01*
X141778571Y-61393095D02*
X141778571Y-61440714D01*
X141778571Y-61440714D02*
X141826190Y-61535952D01*
X141826190Y-61535952D02*
X141873809Y-61583571D01*
X141873809Y-61583571D02*
X141969047Y-61631190D01*
X141969047Y-61631190D02*
X142159523Y-61631190D01*
X142159523Y-61631190D02*
X142254761Y-61678809D01*
X142254761Y-61678809D02*
X142302380Y-61726428D01*
X142302380Y-61726428D02*
X142349999Y-61821666D01*
X142349999Y-61821666D02*
X142349999Y-62012142D01*
X142349999Y-62012142D02*
X142302380Y-62107380D01*
X142302380Y-62107380D02*
X142254761Y-62155000D01*
X142254761Y-62155000D02*
X142159523Y-62202619D01*
X142159523Y-62202619D02*
X141969047Y-62202619D01*
X141969047Y-62202619D02*
X141873809Y-62155000D01*
X141873809Y-62155000D02*
X141826190Y-62107380D01*
X141826190Y-62107380D02*
X141778571Y-62012142D01*
X141778571Y-62012142D02*
X141778571Y-61821666D01*
X141778571Y-61821666D02*
X141826190Y-61726428D01*
X141826190Y-61726428D02*
X141873809Y-61678809D01*
X141873809Y-61678809D02*
X141969047Y-61631190D01*
X141492856Y-61202619D02*
X141159523Y-62202619D01*
X141159523Y-62202619D02*
X140826190Y-61202619D01*
X144088094Y-57154619D02*
X143516666Y-57154619D01*
X143802380Y-58154619D02*
X143802380Y-57154619D01*
X143183332Y-58154619D02*
X143183332Y-57154619D01*
X143183332Y-57154619D02*
X142802380Y-57154619D01*
X142802380Y-57154619D02*
X142707142Y-57202238D01*
X142707142Y-57202238D02*
X142659523Y-57249857D01*
X142659523Y-57249857D02*
X142611904Y-57345095D01*
X142611904Y-57345095D02*
X142611904Y-57487952D01*
X142611904Y-57487952D02*
X142659523Y-57583190D01*
X142659523Y-57583190D02*
X142707142Y-57630809D01*
X142707142Y-57630809D02*
X142802380Y-57678428D01*
X142802380Y-57678428D02*
X143183332Y-57678428D01*
X142230951Y-57249857D02*
X142183332Y-57202238D01*
X142183332Y-57202238D02*
X142088094Y-57154619D01*
X142088094Y-57154619D02*
X141849999Y-57154619D01*
X141849999Y-57154619D02*
X141754761Y-57202238D01*
X141754761Y-57202238D02*
X141707142Y-57249857D01*
X141707142Y-57249857D02*
X141659523Y-57345095D01*
X141659523Y-57345095D02*
X141659523Y-57440333D01*
X141659523Y-57440333D02*
X141707142Y-57583190D01*
X141707142Y-57583190D02*
X142278570Y-58154619D01*
X142278570Y-58154619D02*
X141659523Y-58154619D01*
X141326189Y-57154619D02*
X140659523Y-57154619D01*
X140659523Y-57154619D02*
X141088094Y-58154619D01*
X150271427Y-72362619D02*
X150271427Y-71362619D01*
X150271427Y-71362619D02*
X149938094Y-72076904D01*
X149938094Y-72076904D02*
X149604761Y-71362619D01*
X149604761Y-71362619D02*
X149604761Y-72362619D01*
X148938094Y-71362619D02*
X148747618Y-71362619D01*
X148747618Y-71362619D02*
X148652380Y-71410238D01*
X148652380Y-71410238D02*
X148557142Y-71505476D01*
X148557142Y-71505476D02*
X148509523Y-71695952D01*
X148509523Y-71695952D02*
X148509523Y-72029285D01*
X148509523Y-72029285D02*
X148557142Y-72219761D01*
X148557142Y-72219761D02*
X148652380Y-72315000D01*
X148652380Y-72315000D02*
X148747618Y-72362619D01*
X148747618Y-72362619D02*
X148938094Y-72362619D01*
X148938094Y-72362619D02*
X149033332Y-72315000D01*
X149033332Y-72315000D02*
X149128570Y-72219761D01*
X149128570Y-72219761D02*
X149176189Y-72029285D01*
X149176189Y-72029285D02*
X149176189Y-71695952D01*
X149176189Y-71695952D02*
X149128570Y-71505476D01*
X149128570Y-71505476D02*
X149033332Y-71410238D01*
X149033332Y-71410238D02*
X148938094Y-71362619D01*
X148128570Y-72315000D02*
X147985713Y-72362619D01*
X147985713Y-72362619D02*
X147747618Y-72362619D01*
X147747618Y-72362619D02*
X147652380Y-72315000D01*
X147652380Y-72315000D02*
X147604761Y-72267380D01*
X147604761Y-72267380D02*
X147557142Y-72172142D01*
X147557142Y-72172142D02*
X147557142Y-72076904D01*
X147557142Y-72076904D02*
X147604761Y-71981666D01*
X147604761Y-71981666D02*
X147652380Y-71934047D01*
X147652380Y-71934047D02*
X147747618Y-71886428D01*
X147747618Y-71886428D02*
X147938094Y-71838809D01*
X147938094Y-71838809D02*
X148033332Y-71791190D01*
X148033332Y-71791190D02*
X148080951Y-71743571D01*
X148080951Y-71743571D02*
X148128570Y-71648333D01*
X148128570Y-71648333D02*
X148128570Y-71553095D01*
X148128570Y-71553095D02*
X148080951Y-71457857D01*
X148080951Y-71457857D02*
X148033332Y-71410238D01*
X148033332Y-71410238D02*
X147938094Y-71362619D01*
X147938094Y-71362619D02*
X147699999Y-71362619D01*
X147699999Y-71362619D02*
X147557142Y-71410238D01*
X147128570Y-72362619D02*
X147128570Y-71362619D01*
X149961904Y-67314619D02*
X149390476Y-67314619D01*
X149676190Y-68314619D02*
X149676190Y-67314619D01*
X149057142Y-68314619D02*
X149057142Y-67314619D01*
X149057142Y-67314619D02*
X148676190Y-67314619D01*
X148676190Y-67314619D02*
X148580952Y-67362238D01*
X148580952Y-67362238D02*
X148533333Y-67409857D01*
X148533333Y-67409857D02*
X148485714Y-67505095D01*
X148485714Y-67505095D02*
X148485714Y-67647952D01*
X148485714Y-67647952D02*
X148533333Y-67743190D01*
X148533333Y-67743190D02*
X148580952Y-67790809D01*
X148580952Y-67790809D02*
X148676190Y-67838428D01*
X148676190Y-67838428D02*
X149057142Y-67838428D01*
X147580952Y-67314619D02*
X148057142Y-67314619D01*
X148057142Y-67314619D02*
X148104761Y-67790809D01*
X148104761Y-67790809D02*
X148057142Y-67743190D01*
X148057142Y-67743190D02*
X147961904Y-67695571D01*
X147961904Y-67695571D02*
X147723809Y-67695571D01*
X147723809Y-67695571D02*
X147628571Y-67743190D01*
X147628571Y-67743190D02*
X147580952Y-67790809D01*
X147580952Y-67790809D02*
X147533333Y-67886047D01*
X147533333Y-67886047D02*
X147533333Y-68124142D01*
X147533333Y-68124142D02*
X147580952Y-68219380D01*
X147580952Y-68219380D02*
X147628571Y-68267000D01*
X147628571Y-68267000D02*
X147723809Y-68314619D01*
X147723809Y-68314619D02*
X147961904Y-68314619D01*
X147961904Y-68314619D02*
X148057142Y-68267000D01*
X148057142Y-68267000D02*
X148104761Y-68219380D01*
X146151904Y-67314619D02*
X145580476Y-67314619D01*
X145866190Y-68314619D02*
X145866190Y-67314619D01*
X145247142Y-68314619D02*
X145247142Y-67314619D01*
X145247142Y-67314619D02*
X144866190Y-67314619D01*
X144866190Y-67314619D02*
X144770952Y-67362238D01*
X144770952Y-67362238D02*
X144723333Y-67409857D01*
X144723333Y-67409857D02*
X144675714Y-67505095D01*
X144675714Y-67505095D02*
X144675714Y-67647952D01*
X144675714Y-67647952D02*
X144723333Y-67743190D01*
X144723333Y-67743190D02*
X144770952Y-67790809D01*
X144770952Y-67790809D02*
X144866190Y-67838428D01*
X144866190Y-67838428D02*
X145247142Y-67838428D01*
X143818571Y-67647952D02*
X143818571Y-68314619D01*
X144056666Y-67267000D02*
X144294761Y-67981285D01*
X144294761Y-67981285D02*
X143675714Y-67981285D01*
X146461427Y-72362619D02*
X146461427Y-71362619D01*
X146461427Y-71362619D02*
X146128094Y-72076904D01*
X146128094Y-72076904D02*
X145794761Y-71362619D01*
X145794761Y-71362619D02*
X145794761Y-72362619D01*
X145318570Y-72362619D02*
X145318570Y-71362619D01*
X144889999Y-72315000D02*
X144747142Y-72362619D01*
X144747142Y-72362619D02*
X144509047Y-72362619D01*
X144509047Y-72362619D02*
X144413809Y-72315000D01*
X144413809Y-72315000D02*
X144366190Y-72267380D01*
X144366190Y-72267380D02*
X144318571Y-72172142D01*
X144318571Y-72172142D02*
X144318571Y-72076904D01*
X144318571Y-72076904D02*
X144366190Y-71981666D01*
X144366190Y-71981666D02*
X144413809Y-71934047D01*
X144413809Y-71934047D02*
X144509047Y-71886428D01*
X144509047Y-71886428D02*
X144699523Y-71838809D01*
X144699523Y-71838809D02*
X144794761Y-71791190D01*
X144794761Y-71791190D02*
X144842380Y-71743571D01*
X144842380Y-71743571D02*
X144889999Y-71648333D01*
X144889999Y-71648333D02*
X144889999Y-71553095D01*
X144889999Y-71553095D02*
X144842380Y-71457857D01*
X144842380Y-71457857D02*
X144794761Y-71410238D01*
X144794761Y-71410238D02*
X144699523Y-71362619D01*
X144699523Y-71362619D02*
X144461428Y-71362619D01*
X144461428Y-71362619D02*
X144318571Y-71410238D01*
X143699523Y-71362619D02*
X143509047Y-71362619D01*
X143509047Y-71362619D02*
X143413809Y-71410238D01*
X143413809Y-71410238D02*
X143318571Y-71505476D01*
X143318571Y-71505476D02*
X143270952Y-71695952D01*
X143270952Y-71695952D02*
X143270952Y-72029285D01*
X143270952Y-72029285D02*
X143318571Y-72219761D01*
X143318571Y-72219761D02*
X143413809Y-72315000D01*
X143413809Y-72315000D02*
X143509047Y-72362619D01*
X143509047Y-72362619D02*
X143699523Y-72362619D01*
X143699523Y-72362619D02*
X143794761Y-72315000D01*
X143794761Y-72315000D02*
X143889999Y-72219761D01*
X143889999Y-72219761D02*
X143937618Y-72029285D01*
X143937618Y-72029285D02*
X143937618Y-71695952D01*
X143937618Y-71695952D02*
X143889999Y-71505476D01*
X143889999Y-71505476D02*
X143794761Y-71410238D01*
X143794761Y-71410238D02*
X143699523Y-71362619D01*
X194008333Y-142972619D02*
X194008333Y-143686904D01*
X194008333Y-143686904D02*
X194055952Y-143829761D01*
X194055952Y-143829761D02*
X194151190Y-143925000D01*
X194151190Y-143925000D02*
X194294047Y-143972619D01*
X194294047Y-143972619D02*
X194389285Y-143972619D01*
X193389285Y-143401190D02*
X193484523Y-143353571D01*
X193484523Y-143353571D02*
X193532142Y-143305952D01*
X193532142Y-143305952D02*
X193579761Y-143210714D01*
X193579761Y-143210714D02*
X193579761Y-143163095D01*
X193579761Y-143163095D02*
X193532142Y-143067857D01*
X193532142Y-143067857D02*
X193484523Y-143020238D01*
X193484523Y-143020238D02*
X193389285Y-142972619D01*
X193389285Y-142972619D02*
X193198809Y-142972619D01*
X193198809Y-142972619D02*
X193103571Y-143020238D01*
X193103571Y-143020238D02*
X193055952Y-143067857D01*
X193055952Y-143067857D02*
X193008333Y-143163095D01*
X193008333Y-143163095D02*
X193008333Y-143210714D01*
X193008333Y-143210714D02*
X193055952Y-143305952D01*
X193055952Y-143305952D02*
X193103571Y-143353571D01*
X193103571Y-143353571D02*
X193198809Y-143401190D01*
X193198809Y-143401190D02*
X193389285Y-143401190D01*
X193389285Y-143401190D02*
X193484523Y-143448809D01*
X193484523Y-143448809D02*
X193532142Y-143496428D01*
X193532142Y-143496428D02*
X193579761Y-143591666D01*
X193579761Y-143591666D02*
X193579761Y-143782142D01*
X193579761Y-143782142D02*
X193532142Y-143877380D01*
X193532142Y-143877380D02*
X193484523Y-143925000D01*
X193484523Y-143925000D02*
X193389285Y-143972619D01*
X193389285Y-143972619D02*
X193198809Y-143972619D01*
X193198809Y-143972619D02*
X193103571Y-143925000D01*
X193103571Y-143925000D02*
X193055952Y-143877380D01*
X193055952Y-143877380D02*
X193008333Y-143782142D01*
X193008333Y-143782142D02*
X193008333Y-143591666D01*
X193008333Y-143591666D02*
X193055952Y-143496428D01*
X193055952Y-143496428D02*
X193103571Y-143448809D01*
X193103571Y-143448809D02*
X193198809Y-143401190D01*
X191205951Y-154732619D02*
X191205951Y-153732619D01*
X191205951Y-153732619D02*
X190872618Y-154446904D01*
X190872618Y-154446904D02*
X190539285Y-153732619D01*
X190539285Y-153732619D02*
X190539285Y-154732619D01*
X190063094Y-154208809D02*
X189729761Y-154208809D01*
X189586904Y-154732619D02*
X190063094Y-154732619D01*
X190063094Y-154732619D02*
X190063094Y-153732619D01*
X190063094Y-153732619D02*
X189586904Y-153732619D01*
X188586904Y-154732619D02*
X188920237Y-154256428D01*
X189158332Y-154732619D02*
X189158332Y-153732619D01*
X189158332Y-153732619D02*
X188777380Y-153732619D01*
X188777380Y-153732619D02*
X188682142Y-153780238D01*
X188682142Y-153780238D02*
X188634523Y-153827857D01*
X188634523Y-153827857D02*
X188586904Y-153923095D01*
X188586904Y-153923095D02*
X188586904Y-154065952D01*
X188586904Y-154065952D02*
X188634523Y-154161190D01*
X188634523Y-154161190D02*
X188682142Y-154208809D01*
X188682142Y-154208809D02*
X188777380Y-154256428D01*
X188777380Y-154256428D02*
X189158332Y-154256428D01*
X188158332Y-153732619D02*
X188158332Y-154542142D01*
X188158332Y-154542142D02*
X188110713Y-154637380D01*
X188110713Y-154637380D02*
X188063094Y-154685000D01*
X188063094Y-154685000D02*
X187967856Y-154732619D01*
X187967856Y-154732619D02*
X187777380Y-154732619D01*
X187777380Y-154732619D02*
X187682142Y-154685000D01*
X187682142Y-154685000D02*
X187634523Y-154637380D01*
X187634523Y-154637380D02*
X187586904Y-154542142D01*
X187586904Y-154542142D02*
X187586904Y-153732619D01*
X187158332Y-154685000D02*
X187015475Y-154732619D01*
X187015475Y-154732619D02*
X186777380Y-154732619D01*
X186777380Y-154732619D02*
X186682142Y-154685000D01*
X186682142Y-154685000D02*
X186634523Y-154637380D01*
X186634523Y-154637380D02*
X186586904Y-154542142D01*
X186586904Y-154542142D02*
X186586904Y-154446904D01*
X186586904Y-154446904D02*
X186634523Y-154351666D01*
X186634523Y-154351666D02*
X186682142Y-154304047D01*
X186682142Y-154304047D02*
X186777380Y-154256428D01*
X186777380Y-154256428D02*
X186967856Y-154208809D01*
X186967856Y-154208809D02*
X187063094Y-154161190D01*
X187063094Y-154161190D02*
X187110713Y-154113571D01*
X187110713Y-154113571D02*
X187158332Y-154018333D01*
X187158332Y-154018333D02*
X187158332Y-153923095D01*
X187158332Y-153923095D02*
X187110713Y-153827857D01*
X187110713Y-153827857D02*
X187063094Y-153780238D01*
X187063094Y-153780238D02*
X186967856Y-153732619D01*
X186967856Y-153732619D02*
X186729761Y-153732619D01*
X186729761Y-153732619D02*
X186586904Y-153780238D01*
X185396427Y-154732619D02*
X185396427Y-153732619D01*
X184967856Y-153827857D02*
X184920237Y-153780238D01*
X184920237Y-153780238D02*
X184824999Y-153732619D01*
X184824999Y-153732619D02*
X184586904Y-153732619D01*
X184586904Y-153732619D02*
X184491666Y-153780238D01*
X184491666Y-153780238D02*
X184444047Y-153827857D01*
X184444047Y-153827857D02*
X184396428Y-153923095D01*
X184396428Y-153923095D02*
X184396428Y-154018333D01*
X184396428Y-154018333D02*
X184444047Y-154161190D01*
X184444047Y-154161190D02*
X185015475Y-154732619D01*
X185015475Y-154732619D02*
X184396428Y-154732619D01*
X183396428Y-154637380D02*
X183444047Y-154685000D01*
X183444047Y-154685000D02*
X183586904Y-154732619D01*
X183586904Y-154732619D02*
X183682142Y-154732619D01*
X183682142Y-154732619D02*
X183824999Y-154685000D01*
X183824999Y-154685000D02*
X183920237Y-154589761D01*
X183920237Y-154589761D02*
X183967856Y-154494523D01*
X183967856Y-154494523D02*
X184015475Y-154304047D01*
X184015475Y-154304047D02*
X184015475Y-154161190D01*
X184015475Y-154161190D02*
X183967856Y-153970714D01*
X183967856Y-153970714D02*
X183920237Y-153875476D01*
X183920237Y-153875476D02*
X183824999Y-153780238D01*
X183824999Y-153780238D02*
X183682142Y-153732619D01*
X183682142Y-153732619D02*
X183586904Y-153732619D01*
X183586904Y-153732619D02*
X183444047Y-153780238D01*
X183444047Y-153780238D02*
X183396428Y-153827857D01*
X105433333Y-57902619D02*
X105433333Y-58616904D01*
X105433333Y-58616904D02*
X105480952Y-58759761D01*
X105480952Y-58759761D02*
X105576190Y-58855000D01*
X105576190Y-58855000D02*
X105719047Y-58902619D01*
X105719047Y-58902619D02*
X105814285Y-58902619D01*
X104433333Y-58902619D02*
X105004761Y-58902619D01*
X104719047Y-58902619D02*
X104719047Y-57902619D01*
X104719047Y-57902619D02*
X104814285Y-58045476D01*
X104814285Y-58045476D02*
X104909523Y-58140714D01*
X104909523Y-58140714D02*
X105004761Y-58188333D01*
X91662619Y-54701904D02*
X90662619Y-54701904D01*
X90662619Y-54701904D02*
X90662619Y-55082856D01*
X90662619Y-55082856D02*
X90710238Y-55178094D01*
X90710238Y-55178094D02*
X90757857Y-55225713D01*
X90757857Y-55225713D02*
X90853095Y-55273332D01*
X90853095Y-55273332D02*
X90995952Y-55273332D01*
X90995952Y-55273332D02*
X91091190Y-55225713D01*
X91091190Y-55225713D02*
X91138809Y-55178094D01*
X91138809Y-55178094D02*
X91186428Y-55082856D01*
X91186428Y-55082856D02*
X91186428Y-54701904D01*
X91662619Y-55844761D02*
X91615000Y-55749523D01*
X91615000Y-55749523D02*
X91567380Y-55701904D01*
X91567380Y-55701904D02*
X91472142Y-55654285D01*
X91472142Y-55654285D02*
X91186428Y-55654285D01*
X91186428Y-55654285D02*
X91091190Y-55701904D01*
X91091190Y-55701904D02*
X91043571Y-55749523D01*
X91043571Y-55749523D02*
X90995952Y-55844761D01*
X90995952Y-55844761D02*
X90995952Y-55987618D01*
X90995952Y-55987618D02*
X91043571Y-56082856D01*
X91043571Y-56082856D02*
X91091190Y-56130475D01*
X91091190Y-56130475D02*
X91186428Y-56178094D01*
X91186428Y-56178094D02*
X91472142Y-56178094D01*
X91472142Y-56178094D02*
X91567380Y-56130475D01*
X91567380Y-56130475D02*
X91615000Y-56082856D01*
X91615000Y-56082856D02*
X91662619Y-55987618D01*
X91662619Y-55987618D02*
X91662619Y-55844761D01*
X90995952Y-56511428D02*
X91662619Y-56701904D01*
X91662619Y-56701904D02*
X91186428Y-56892380D01*
X91186428Y-56892380D02*
X91662619Y-57082856D01*
X91662619Y-57082856D02*
X90995952Y-57273332D01*
X91615000Y-58035237D02*
X91662619Y-57939999D01*
X91662619Y-57939999D02*
X91662619Y-57749523D01*
X91662619Y-57749523D02*
X91615000Y-57654285D01*
X91615000Y-57654285D02*
X91519761Y-57606666D01*
X91519761Y-57606666D02*
X91138809Y-57606666D01*
X91138809Y-57606666D02*
X91043571Y-57654285D01*
X91043571Y-57654285D02*
X90995952Y-57749523D01*
X90995952Y-57749523D02*
X90995952Y-57939999D01*
X90995952Y-57939999D02*
X91043571Y-58035237D01*
X91043571Y-58035237D02*
X91138809Y-58082856D01*
X91138809Y-58082856D02*
X91234047Y-58082856D01*
X91234047Y-58082856D02*
X91329285Y-57606666D01*
X91662619Y-58511428D02*
X90995952Y-58511428D01*
X91186428Y-58511428D02*
X91091190Y-58559047D01*
X91091190Y-58559047D02*
X91043571Y-58606666D01*
X91043571Y-58606666D02*
X90995952Y-58701904D01*
X90995952Y-58701904D02*
X90995952Y-58797142D01*
X91662619Y-60416190D02*
X91662619Y-59844762D01*
X91662619Y-60130476D02*
X90662619Y-60130476D01*
X90662619Y-60130476D02*
X90805476Y-60035238D01*
X90805476Y-60035238D02*
X90900714Y-59940000D01*
X90900714Y-59940000D02*
X90948333Y-59844762D01*
X90662619Y-61035238D02*
X90662619Y-61130476D01*
X90662619Y-61130476D02*
X90710238Y-61225714D01*
X90710238Y-61225714D02*
X90757857Y-61273333D01*
X90757857Y-61273333D02*
X90853095Y-61320952D01*
X90853095Y-61320952D02*
X91043571Y-61368571D01*
X91043571Y-61368571D02*
X91281666Y-61368571D01*
X91281666Y-61368571D02*
X91472142Y-61320952D01*
X91472142Y-61320952D02*
X91567380Y-61273333D01*
X91567380Y-61273333D02*
X91615000Y-61225714D01*
X91615000Y-61225714D02*
X91662619Y-61130476D01*
X91662619Y-61130476D02*
X91662619Y-61035238D01*
X91662619Y-61035238D02*
X91615000Y-60940000D01*
X91615000Y-60940000D02*
X91567380Y-60892381D01*
X91567380Y-60892381D02*
X91472142Y-60844762D01*
X91472142Y-60844762D02*
X91281666Y-60797143D01*
X91281666Y-60797143D02*
X91043571Y-60797143D01*
X91043571Y-60797143D02*
X90853095Y-60844762D01*
X90853095Y-60844762D02*
X90757857Y-60892381D01*
X90757857Y-60892381D02*
X90710238Y-60940000D01*
X90710238Y-60940000D02*
X90662619Y-61035238D01*
X90662619Y-61654286D02*
X91662619Y-61987619D01*
X91662619Y-61987619D02*
X90662619Y-62320952D01*
X232743333Y-142337619D02*
X232743333Y-143051904D01*
X232743333Y-143051904D02*
X232790952Y-143194761D01*
X232790952Y-143194761D02*
X232886190Y-143290000D01*
X232886190Y-143290000D02*
X233029047Y-143337619D01*
X233029047Y-143337619D02*
X233124285Y-143337619D01*
X232362380Y-142337619D02*
X231743333Y-142337619D01*
X231743333Y-142337619D02*
X232076666Y-142718571D01*
X232076666Y-142718571D02*
X231933809Y-142718571D01*
X231933809Y-142718571D02*
X231838571Y-142766190D01*
X231838571Y-142766190D02*
X231790952Y-142813809D01*
X231790952Y-142813809D02*
X231743333Y-142909047D01*
X231743333Y-142909047D02*
X231743333Y-143147142D01*
X231743333Y-143147142D02*
X231790952Y-143242380D01*
X231790952Y-143242380D02*
X231838571Y-143290000D01*
X231838571Y-143290000D02*
X231933809Y-143337619D01*
X231933809Y-143337619D02*
X232219523Y-143337619D01*
X232219523Y-143337619D02*
X232314761Y-143290000D01*
X232314761Y-143290000D02*
X232362380Y-143242380D01*
X230071904Y-151271904D02*
X229595714Y-151271904D01*
X230167142Y-151557619D02*
X229833809Y-150557619D01*
X229833809Y-150557619D02*
X229500476Y-151557619D01*
X229167142Y-150890952D02*
X229167142Y-151557619D01*
X229167142Y-150986190D02*
X229119523Y-150938571D01*
X229119523Y-150938571D02*
X229024285Y-150890952D01*
X229024285Y-150890952D02*
X228881428Y-150890952D01*
X228881428Y-150890952D02*
X228786190Y-150938571D01*
X228786190Y-150938571D02*
X228738571Y-151033809D01*
X228738571Y-151033809D02*
X228738571Y-151557619D01*
X228405237Y-150890952D02*
X228024285Y-150890952D01*
X228262380Y-150557619D02*
X228262380Y-151414761D01*
X228262380Y-151414761D02*
X228214761Y-151510000D01*
X228214761Y-151510000D02*
X228119523Y-151557619D01*
X228119523Y-151557619D02*
X228024285Y-151557619D01*
X227309999Y-151510000D02*
X227405237Y-151557619D01*
X227405237Y-151557619D02*
X227595713Y-151557619D01*
X227595713Y-151557619D02*
X227690951Y-151510000D01*
X227690951Y-151510000D02*
X227738570Y-151414761D01*
X227738570Y-151414761D02*
X227738570Y-151033809D01*
X227738570Y-151033809D02*
X227690951Y-150938571D01*
X227690951Y-150938571D02*
X227595713Y-150890952D01*
X227595713Y-150890952D02*
X227405237Y-150890952D01*
X227405237Y-150890952D02*
X227309999Y-150938571D01*
X227309999Y-150938571D02*
X227262380Y-151033809D01*
X227262380Y-151033809D02*
X227262380Y-151129047D01*
X227262380Y-151129047D02*
X227738570Y-151224285D01*
X226833808Y-150890952D02*
X226833808Y-151557619D01*
X226833808Y-150986190D02*
X226786189Y-150938571D01*
X226786189Y-150938571D02*
X226690951Y-150890952D01*
X226690951Y-150890952D02*
X226548094Y-150890952D01*
X226548094Y-150890952D02*
X226452856Y-150938571D01*
X226452856Y-150938571D02*
X226405237Y-151033809D01*
X226405237Y-151033809D02*
X226405237Y-151557619D01*
X225929046Y-150890952D02*
X225929046Y-151557619D01*
X225929046Y-150986190D02*
X225881427Y-150938571D01*
X225881427Y-150938571D02*
X225786189Y-150890952D01*
X225786189Y-150890952D02*
X225643332Y-150890952D01*
X225643332Y-150890952D02*
X225548094Y-150938571D01*
X225548094Y-150938571D02*
X225500475Y-151033809D01*
X225500475Y-151033809D02*
X225500475Y-151557619D01*
X224595713Y-151557619D02*
X224595713Y-151033809D01*
X224595713Y-151033809D02*
X224643332Y-150938571D01*
X224643332Y-150938571D02*
X224738570Y-150890952D01*
X224738570Y-150890952D02*
X224929046Y-150890952D01*
X224929046Y-150890952D02*
X225024284Y-150938571D01*
X224595713Y-151510000D02*
X224690951Y-151557619D01*
X224690951Y-151557619D02*
X224929046Y-151557619D01*
X224929046Y-151557619D02*
X225024284Y-151510000D01*
X225024284Y-151510000D02*
X225071903Y-151414761D01*
X225071903Y-151414761D02*
X225071903Y-151319523D01*
X225071903Y-151319523D02*
X225024284Y-151224285D01*
X225024284Y-151224285D02*
X224929046Y-151176666D01*
X224929046Y-151176666D02*
X224690951Y-151176666D01*
X224690951Y-151176666D02*
X224595713Y-151129047D01*
X177658333Y-142972619D02*
X177658333Y-143686904D01*
X177658333Y-143686904D02*
X177705952Y-143829761D01*
X177705952Y-143829761D02*
X177801190Y-143925000D01*
X177801190Y-143925000D02*
X177944047Y-143972619D01*
X177944047Y-143972619D02*
X178039285Y-143972619D01*
X177277380Y-142972619D02*
X176610714Y-142972619D01*
X176610714Y-142972619D02*
X177039285Y-143972619D01*
X169632142Y-154372619D02*
X169632142Y-153372619D01*
X169632142Y-153372619D02*
X169298809Y-154086904D01*
X169298809Y-154086904D02*
X168965476Y-153372619D01*
X168965476Y-153372619D02*
X168965476Y-154372619D01*
X168489285Y-153848809D02*
X168155952Y-153848809D01*
X168013095Y-154372619D02*
X168489285Y-154372619D01*
X168489285Y-154372619D02*
X168489285Y-153372619D01*
X168489285Y-153372619D02*
X168013095Y-153372619D01*
X167013095Y-154372619D02*
X167346428Y-153896428D01*
X167584523Y-154372619D02*
X167584523Y-153372619D01*
X167584523Y-153372619D02*
X167203571Y-153372619D01*
X167203571Y-153372619D02*
X167108333Y-153420238D01*
X167108333Y-153420238D02*
X167060714Y-153467857D01*
X167060714Y-153467857D02*
X167013095Y-153563095D01*
X167013095Y-153563095D02*
X167013095Y-153705952D01*
X167013095Y-153705952D02*
X167060714Y-153801190D01*
X167060714Y-153801190D02*
X167108333Y-153848809D01*
X167108333Y-153848809D02*
X167203571Y-153896428D01*
X167203571Y-153896428D02*
X167584523Y-153896428D01*
X166584523Y-153372619D02*
X166584523Y-154182142D01*
X166584523Y-154182142D02*
X166536904Y-154277380D01*
X166536904Y-154277380D02*
X166489285Y-154325000D01*
X166489285Y-154325000D02*
X166394047Y-154372619D01*
X166394047Y-154372619D02*
X166203571Y-154372619D01*
X166203571Y-154372619D02*
X166108333Y-154325000D01*
X166108333Y-154325000D02*
X166060714Y-154277380D01*
X166060714Y-154277380D02*
X166013095Y-154182142D01*
X166013095Y-154182142D02*
X166013095Y-153372619D01*
X165584523Y-154325000D02*
X165441666Y-154372619D01*
X165441666Y-154372619D02*
X165203571Y-154372619D01*
X165203571Y-154372619D02*
X165108333Y-154325000D01*
X165108333Y-154325000D02*
X165060714Y-154277380D01*
X165060714Y-154277380D02*
X165013095Y-154182142D01*
X165013095Y-154182142D02*
X165013095Y-154086904D01*
X165013095Y-154086904D02*
X165060714Y-153991666D01*
X165060714Y-153991666D02*
X165108333Y-153944047D01*
X165108333Y-153944047D02*
X165203571Y-153896428D01*
X165203571Y-153896428D02*
X165394047Y-153848809D01*
X165394047Y-153848809D02*
X165489285Y-153801190D01*
X165489285Y-153801190D02*
X165536904Y-153753571D01*
X165536904Y-153753571D02*
X165584523Y-153658333D01*
X165584523Y-153658333D02*
X165584523Y-153563095D01*
X165584523Y-153563095D02*
X165536904Y-153467857D01*
X165536904Y-153467857D02*
X165489285Y-153420238D01*
X165489285Y-153420238D02*
X165394047Y-153372619D01*
X165394047Y-153372619D02*
X165155952Y-153372619D01*
X165155952Y-153372619D02*
X165013095Y-153420238D01*
X163822618Y-154372619D02*
X163822618Y-153372619D01*
X163394047Y-153467857D02*
X163346428Y-153420238D01*
X163346428Y-153420238D02*
X163251190Y-153372619D01*
X163251190Y-153372619D02*
X163013095Y-153372619D01*
X163013095Y-153372619D02*
X162917857Y-153420238D01*
X162917857Y-153420238D02*
X162870238Y-153467857D01*
X162870238Y-153467857D02*
X162822619Y-153563095D01*
X162822619Y-153563095D02*
X162822619Y-153658333D01*
X162822619Y-153658333D02*
X162870238Y-153801190D01*
X162870238Y-153801190D02*
X163441666Y-154372619D01*
X163441666Y-154372619D02*
X162822619Y-154372619D01*
X162441666Y-154325000D02*
X162298809Y-154372619D01*
X162298809Y-154372619D02*
X162060714Y-154372619D01*
X162060714Y-154372619D02*
X161965476Y-154325000D01*
X161965476Y-154325000D02*
X161917857Y-154277380D01*
X161917857Y-154277380D02*
X161870238Y-154182142D01*
X161870238Y-154182142D02*
X161870238Y-154086904D01*
X161870238Y-154086904D02*
X161917857Y-153991666D01*
X161917857Y-153991666D02*
X161965476Y-153944047D01*
X161965476Y-153944047D02*
X162060714Y-153896428D01*
X162060714Y-153896428D02*
X162251190Y-153848809D01*
X162251190Y-153848809D02*
X162346428Y-153801190D01*
X162346428Y-153801190D02*
X162394047Y-153753571D01*
X162394047Y-153753571D02*
X162441666Y-153658333D01*
X162441666Y-153658333D02*
X162441666Y-153563095D01*
X162441666Y-153563095D02*
X162394047Y-153467857D01*
X162394047Y-153467857D02*
X162346428Y-153420238D01*
X162346428Y-153420238D02*
X162251190Y-153372619D01*
X162251190Y-153372619D02*
X162013095Y-153372619D01*
X162013095Y-153372619D02*
X161870238Y-153420238D01*
D12*
X192385000Y-153180000D02*
X192385000Y-141460000D01*
X192385000Y-141460000D02*
X190965000Y-141460000D01*
X190965000Y-145960000D02*
X187325000Y-145960000D01*
X190965000Y-141460000D02*
X190965000Y-145960000D01*
X190125000Y-141770000D02*
X189525000Y-141770000D01*
X190075000Y-152570000D02*
X189575000Y-152570000D01*
X190075000Y-147070000D02*
X190075000Y-152570000D01*
X189825000Y-142370000D02*
X190125000Y-141770000D01*
X189575000Y-152570000D02*
X189575000Y-147070000D01*
X189575000Y-147070000D02*
X190075000Y-147070000D01*
X189525000Y-141770000D02*
X189825000Y-142370000D01*
X187575000Y-152570000D02*
X187075000Y-152570000D01*
X187575000Y-147070000D02*
X187575000Y-152570000D01*
X187325000Y-153180000D02*
X192385000Y-153180000D01*
X187325000Y-153180000D02*
X182265000Y-153180000D01*
X187075000Y-152570000D02*
X187075000Y-147070000D01*
X187075000Y-147070000D02*
X187575000Y-147070000D01*
X185075000Y-152570000D02*
X184575000Y-152570000D01*
X185075000Y-147070000D02*
X185075000Y-152570000D01*
X184575000Y-152570000D02*
X184575000Y-147070000D01*
X184575000Y-147070000D02*
X185075000Y-147070000D01*
X183685000Y-145960000D02*
X187325000Y-145960000D01*
X183685000Y-141460000D02*
X183685000Y-145960000D01*
X182265000Y-153180000D02*
X182265000Y-141460000D01*
X182265000Y-141460000D02*
X183685000Y-141460000D01*
X92290000Y-62250000D02*
X104010000Y-62250000D01*
X104010000Y-62250000D02*
X104010000Y-60830000D01*
X99510000Y-60830000D02*
X99510000Y-58440000D01*
X104010000Y-60830000D02*
X99510000Y-60830000D01*
X103700000Y-59990000D02*
X103700000Y-59390000D01*
X92900000Y-59940000D02*
X92900000Y-59440000D01*
X98400000Y-59940000D02*
X92900000Y-59940000D01*
X103100000Y-59690000D02*
X103700000Y-59990000D01*
X92900000Y-59440000D02*
X98400000Y-59440000D01*
X98400000Y-59440000D02*
X98400000Y-59940000D01*
X103700000Y-59390000D02*
X103100000Y-59690000D01*
X92290000Y-58440000D02*
X92290000Y-62250000D01*
X92290000Y-58440000D02*
X92290000Y-54630000D01*
X92900000Y-57440000D02*
X92900000Y-56940000D01*
X98400000Y-57440000D02*
X92900000Y-57440000D01*
X92900000Y-56940000D02*
X98400000Y-56940000D01*
X98400000Y-56940000D02*
X98400000Y-57440000D01*
X99510000Y-56050000D02*
X99510000Y-58440000D01*
X104010000Y-56050000D02*
X99510000Y-56050000D01*
X92290000Y-54630000D02*
X104010000Y-54630000D01*
X104010000Y-54630000D02*
X104010000Y-56050000D01*
X231120000Y-150005000D02*
X231120000Y-138285000D01*
X231120000Y-138285000D02*
X229700000Y-138285000D01*
X229700000Y-138285000D02*
X229700000Y-142785000D01*
X228860000Y-140195000D02*
X228260000Y-140195000D01*
X228810000Y-149395000D02*
X228310000Y-149395000D01*
X228810000Y-143895000D02*
X228810000Y-149395000D01*
X228560000Y-140795000D02*
X228860000Y-140195000D01*
X228310000Y-149395000D02*
X228310000Y-143895000D01*
X228310000Y-143895000D02*
X228810000Y-143895000D01*
X228260000Y-140195000D02*
X228560000Y-140795000D01*
X227310000Y-150005000D02*
X231120000Y-150005000D01*
X227310000Y-150005000D02*
X223500000Y-150005000D01*
X226310000Y-149395000D02*
X225810000Y-149395000D01*
X226310000Y-143895000D02*
X226310000Y-149395000D01*
X225810000Y-149395000D02*
X225810000Y-143895000D01*
X225810000Y-143895000D02*
X226310000Y-143895000D01*
X224920000Y-138285000D02*
X224920000Y-142785000D01*
X223500000Y-150005000D02*
X223500000Y-138285000D01*
X223500000Y-138285000D02*
X224920000Y-138285000D01*
X175835000Y-152820000D02*
X175835000Y-141100000D01*
X175835000Y-141100000D02*
X174415000Y-141100000D01*
X174415000Y-145600000D02*
X165775000Y-145600000D01*
X174415000Y-141100000D02*
X174415000Y-145600000D01*
X173575000Y-141410000D02*
X172975000Y-141410000D01*
X173525000Y-152210000D02*
X173025000Y-152210000D01*
X173525000Y-146710000D02*
X173525000Y-152210000D01*
X173275000Y-142010000D02*
X173575000Y-141410000D01*
X173025000Y-152210000D02*
X173025000Y-146710000D01*
X173025000Y-146710000D02*
X173525000Y-146710000D01*
X172975000Y-141410000D02*
X173275000Y-142010000D01*
X171025000Y-152210000D02*
X170525000Y-152210000D01*
X171025000Y-146710000D02*
X171025000Y-152210000D01*
X170525000Y-152210000D02*
X170525000Y-146710000D01*
X170525000Y-146710000D02*
X171025000Y-146710000D01*
X168525000Y-152210000D02*
X168025000Y-152210000D01*
X168525000Y-146710000D02*
X168525000Y-152210000D01*
X168025000Y-152210000D02*
X168025000Y-146710000D01*
X168025000Y-146710000D02*
X168525000Y-146710000D01*
X166025000Y-152210000D02*
X165525000Y-152210000D01*
X166025000Y-146710000D02*
X166025000Y-152210000D01*
X165775000Y-152820000D02*
X175835000Y-152820000D01*
X165775000Y-152820000D02*
X155715000Y-152820000D01*
X165525000Y-152210000D02*
X165525000Y-146710000D01*
X165525000Y-146710000D02*
X166025000Y-146710000D01*
X163525000Y-152210000D02*
X163025000Y-152210000D01*
X163525000Y-146710000D02*
X163525000Y-152210000D01*
X163025000Y-152210000D02*
X163025000Y-146710000D01*
X163025000Y-146710000D02*
X163525000Y-146710000D01*
X161025000Y-152210000D02*
X160525000Y-152210000D01*
X161025000Y-146710000D02*
X161025000Y-152210000D01*
X160525000Y-152210000D02*
X160525000Y-146710000D01*
X160525000Y-146710000D02*
X161025000Y-146710000D01*
X158525000Y-152210000D02*
X158025000Y-152210000D01*
X158525000Y-146710000D02*
X158525000Y-152210000D01*
X158025000Y-152210000D02*
X158025000Y-146710000D01*
X158025000Y-146710000D02*
X158525000Y-146710000D01*
X157135000Y-145600000D02*
X165775000Y-145600000D01*
X157135000Y-141100000D02*
X157135000Y-145600000D01*
X155715000Y-152820000D02*
X155715000Y-141100000D01*
X155715000Y-141100000D02*
X157135000Y-141100000D01*
%LPC*%
D13*
X152400000Y-32320113D03*
D14*
X152400000Y-29820113D03*
D15*
X94489000Y-69140000D03*
D16*
X94489000Y-69140000D03*
D17*
X165735000Y-131445000D03*
X158750000Y-116205000D03*
X204470000Y-146685000D03*
D18*
X134105000Y-143510000D03*
D19*
X136605000Y-143510000D03*
X139105000Y-143510000D03*
X141605000Y-143510000D03*
D20*
X180213000Y-55880000D03*
D17*
X170815000Y-131445000D03*
X209550000Y-146685000D03*
X107950000Y-61595000D03*
D21*
X208489000Y-54640000D03*
D17*
X218489000Y-54640000D03*
X213489000Y-54640000D03*
D22*
X205739000Y-44140000D03*
X221239000Y-44140000D03*
D17*
X210989000Y-37140000D03*
X215989000Y-37140000D03*
X131445000Y-89535000D03*
X142350000Y-45720000D03*
X193785000Y-27665000D03*
D13*
X128905000Y-47054888D03*
D14*
X128905000Y-49554888D03*
D17*
X232739000Y-81390000D03*
X226239000Y-81390000D03*
X232739000Y-76890000D03*
X226239000Y-76890000D03*
D20*
X232156000Y-92837000D03*
D23*
X199390000Y-128815000D03*
X199390000Y-123915000D03*
D17*
X137160000Y-89535000D03*
X125730000Y-89535000D03*
D15*
X94489000Y-23140000D03*
D16*
X94489000Y-23140000D03*
D18*
X102475000Y-143510000D03*
D19*
X104975000Y-143510000D03*
X107475000Y-143510000D03*
X109975000Y-143510000D03*
X112475000Y-143510000D03*
X114975000Y-143510000D03*
X117475000Y-143510000D03*
X119975000Y-143510000D03*
X122475000Y-143510000D03*
D24*
X170180000Y-33485000D03*
X170180000Y-34485000D03*
X170180000Y-35485000D03*
X170180000Y-36485000D03*
X170180000Y-37485000D03*
X171180000Y-33485000D03*
X171180000Y-34485000D03*
X171180000Y-35485000D03*
X171180000Y-36485000D03*
X171180000Y-37485000D03*
X172180000Y-33485000D03*
X172180000Y-34485000D03*
X172180000Y-35485000D03*
X172180000Y-36485000D03*
X172180000Y-37485000D03*
X173180000Y-33485000D03*
X173180000Y-34485000D03*
X173180000Y-35485000D03*
X173180000Y-36485000D03*
X173180000Y-37485000D03*
X174180000Y-33485000D03*
X174180000Y-34485000D03*
X174180000Y-35485000D03*
X174180000Y-36485000D03*
X174180000Y-37485000D03*
D17*
X178400000Y-114935000D03*
X175260000Y-131445000D03*
X214630000Y-146685000D03*
D20*
X200025000Y-101600000D03*
D25*
X200025000Y-104140000D03*
D17*
X152400000Y-97790000D03*
X216739000Y-81390000D03*
X210239000Y-81390000D03*
X216739000Y-76890000D03*
X210239000Y-76890000D03*
D15*
X189489000Y-104140000D03*
D16*
X189489000Y-104140000D03*
D17*
X163195000Y-64135000D03*
X166370000Y-97790000D03*
D23*
X132260000Y-124460000D03*
X137160000Y-124460000D03*
D26*
X154305000Y-42545000D03*
D27*
X151765000Y-42545000D03*
D26*
X149225000Y-42545000D03*
X154305000Y-48260000D03*
X149225000Y-48260000D03*
D27*
X152781000Y-50165000D03*
X150749000Y-50165000D03*
D14*
X104521000Y-134239000D03*
D28*
X119761000Y-134239000D03*
D17*
X160020000Y-131445000D03*
D15*
X229489000Y-104140000D03*
D16*
X229489000Y-104140000D03*
D17*
X152510000Y-69850000D03*
D13*
X128270000Y-36235000D03*
D14*
X128270000Y-38735000D03*
D17*
X152400000Y-103505000D03*
X107950000Y-55880000D03*
X163195000Y-116205000D03*
X163195000Y-68580000D03*
X193785000Y-31475000D03*
D13*
X171450000Y-57785000D03*
D14*
X168950000Y-57785000D03*
D17*
X142350000Y-59690000D03*
D13*
X120650000Y-97854888D03*
D14*
X120650000Y-100354888D03*
D13*
X117475000Y-25400000D03*
D14*
X114975000Y-25400000D03*
D17*
X200739000Y-81390000D03*
X194239000Y-81390000D03*
X200739000Y-76890000D03*
X194239000Y-76890000D03*
D13*
X128905000Y-59119888D03*
D14*
X128905000Y-61619888D03*
D17*
X148700000Y-69850000D03*
X144890000Y-69850000D03*
D13*
X106085000Y-40640000D03*
D14*
X108585000Y-40640000D03*
D20*
X144780000Y-83185000D03*
D25*
X147320000Y-83185000D03*
X149860000Y-83185000D03*
X152400000Y-83185000D03*
X154940000Y-83185000D03*
D29*
X189825000Y-143870000D03*
D19*
X187325000Y-143870000D03*
X184825000Y-143870000D03*
D30*
X101600000Y-59690000D03*
D31*
X101600000Y-57190000D03*
D32*
X228560000Y-142295000D03*
D33*
X226060000Y-142295000D03*
D29*
X173275000Y-143510000D03*
D19*
X170775000Y-143510000D03*
X168275000Y-143510000D03*
X165775000Y-143510000D03*
X163275000Y-143510000D03*
X160775000Y-143510000D03*
X158275000Y-143510000D03*
D34*
X161925000Y-27305000D02*
X183519532Y-27305000D01*
X183519532Y-19050000D01*
X220980000Y-19050000D01*
X235589532Y-40640000D01*
X235589532Y-155575000D01*
X90174532Y-155575000D01*
X90174532Y-19050000D01*
X161925000Y-19050000D01*
X161925000Y-27305000D01*
X170894309Y-85140000D02*
G75*
G03*
X170894309Y-85140000I-4405309J0D01*
G01*
X100894309Y-85140000D02*
G75*
G03*
X100894309Y-85140000I-4405309J0D01*
G01*
M02*
