M48
; DRILL file {KiCad 7.0.1} date Sat Apr 22 18:43:21 2023
; FORMAT={-:-/ absolute / inch / decimal}
; #@! TF.CreationDate,2023-04-22T18:43:21+03:00
; #@! TF.GenerationSoftware,Kicad,Pcbnew,7.0.1
; #@! TF.FileFunction,Plated,1,2,PTH
FMAT,2
INCH
; #@! TA.AperFunction,Plated,PTH,ComponentDrill
T1C0.0118
; #@! TA.AperFunction,Plated,PTH,ViaDrill
T2C0.0157
; #@! TA.AperFunction,Plated,PTH,ViaDrill
T3C0.0315
; #@! TA.AperFunction,Plated,PTH,ComponentDrill
T4C0.0315
; #@! TA.AperFunction,Plated,PTH,ComponentDrill
T5C0.0374
; #@! TA.AperFunction,Plated,PTH,ComponentDrill
T6C0.0394
; #@! TA.AperFunction,Plated,PTH,ComponentDrill
T7C0.0433
; #@! TA.AperFunction,Plated,PTH,ComponentDrill
T8C0.0787
; #@! TA.AperFunction,Plated,PTH,ComponentDrill
T9C0.1181
%
G90
G05
T1
X6.7Y-1.3183
X6.7Y-1.3577
X6.7Y-1.397
X6.7Y-1.4364
X6.7Y-1.4758
X6.7394Y-1.3183
X6.7394Y-1.3577
X6.7394Y-1.397
X6.7394Y-1.4364
X6.7394Y-1.4758
X6.7787Y-1.3183
X6.7787Y-1.3577
X6.7787Y-1.397
X6.7787Y-1.4364
X6.7787Y-1.4758
X6.8181Y-1.3183
X6.8181Y-1.3577
X6.8181Y-1.397
X6.8181Y-1.4364
X6.8181Y-1.4758
X6.8575Y-1.3183
X6.8575Y-1.3577
X6.8575Y-1.397
X6.8575Y-1.4364
X6.8575Y-1.4758
T2
X3.66Y-4.03
X3.7Y-5.895
X3.7516Y-4.535
X3.82Y-2.99
X3.89Y-5.48
X3.985Y-4.535
X4.17Y-0.91
X4.175Y-5.42
X4.225Y-4.17
X4.245Y-2.805
X4.28Y-5.11
X4.38Y-5.095
X4.62Y-4.315
X4.62Y-4.45
X4.65Y-4.865
X4.695Y-5.105
X4.697Y-4.2529
X4.705Y-4.32
X4.825Y-5.32
X4.895Y-4.335
X4.895Y-4.48
X4.935Y-4.31
X4.995Y-3.815
X5.015Y-4.745
X5.045Y-5.395
X5.05Y-2.975
X5.05Y-4.1
X5.05Y-4.525
X5.07Y-5.9
X5.1Y-3.825
X5.105Y-2.565
X5.145Y-4.565
X5.15Y-0.88
X5.16Y-2.565
X5.17Y-4.52
X5.21Y-3.82
X5.22Y-2.565
X5.25Y-2.9
X5.25Y-4.425
X5.33Y-4.75
X5.34Y-2.8
X5.34Y-3.825
X5.41Y-2.54
X5.425Y-4.425
X5.445Y-5.045
X5.45Y-2.925
X5.45Y-4.725
X5.51Y-4.57
X5.515Y-4.03
X5.555Y-3.035
X5.56Y-4.555
X5.565Y-2.6
X5.565Y-4.17
X5.565Y-4.285
X5.565Y-4.475
X5.635Y-4.3
X5.65Y-4.15
X5.665Y-4.725
X5.7Y-4.175
X5.725Y-5.025
X5.745Y-1.805
X5.7715Y-5.1
X5.8Y-3.49
X5.81Y-2.185
X5.825Y-3.725
X5.825Y-3.9
X5.825Y-4.075
X5.825Y-4.35
X5.825Y-5.15
X5.86Y-1.985
X5.8607Y-3.8143
X5.8775Y-4.4075
X5.88Y-4.49
X5.935Y-5.945
X5.95Y-3.475
X5.955Y-1.58
X5.97Y-5.375
X5.975Y-4.2
X5.9885Y-4.4759
X6.05Y-1.59
X6.055Y-4.89
X6.07Y-4.15
X6.075Y-1.5
X6.105Y-1.785
X6.105Y-1.985
X6.105Y-2.97
X6.115Y-3.93
X6.12Y-2.265
X6.15Y-2.05
X6.1767Y-1.5522
X6.1927Y-2.075
X6.225Y-1.55
X6.23Y-3.87
X6.2447Y-2.07
X6.2538Y-2.025
X6.275Y-1.55
X6.3Y-1.65
X6.3248Y-2.1002
X6.325Y-1.325
X6.325Y-1.575
X6.35Y-1.275
X6.35Y-1.675
X6.35Y-1.825
X6.375Y-2.1
X6.375Y-2.9
X6.445Y-3.975
X6.45Y-4.13
X6.47Y-4.18
X6.47Y-4.24
X6.5Y-2.9
X6.51Y-4.27
X6.55Y-4.105
X6.55Y-4.51
X6.61Y-4.155
X6.62Y-5.53
X6.625Y-4.54
X6.68Y-3.99
X6.68Y-4.205
X6.68Y-4.525
X6.6836Y-4.0705
X6.715Y-1.985
X6.76Y-2.125
X6.77Y-4.44
X6.775Y-3.77
X6.78Y-1.635
X6.815Y-3.9
X6.825Y-5.325
X6.855Y-2.125
X6.895Y-3.62
X6.995Y-2.945
X7.02Y-2.18
X7.045Y-1.635
X7.06Y-4.295
X7.075Y-3.975
X7.0869Y-4.1259
X7.125Y-4.38
X7.16Y-4.92
X7.16Y-5.225
X7.175Y-4.285
X7.175Y-4.415
X7.21Y-2.665
X7.24Y-3.365
X7.28Y-4.645
X7.315Y-1.38
X7.33Y-3.055
X7.335Y-1.825
X7.335Y-2.375
X7.335Y-2.48
X7.355Y-1.725
X7.375Y-1.575
X7.375Y-3.72
X7.395Y-1.525
X7.4Y-5.165
X7.41Y-1.475
X7.505Y-5.845
X7.525Y-5.905
X7.54Y-1.01
X7.555Y-2.06
X7.585Y-2.365
X7.5855Y-5.157
X7.615Y-5.225
X7.705Y-1.56
X7.71Y-4.57
X7.815Y-2.66
X7.82Y-4.47
X7.83Y-5.675
X7.865Y-1.53
X7.87Y-3.825
X7.93Y-4.68
X7.935Y-4.585
X7.98Y-4.9
X7.995Y-5.055
X8.005Y-5.975
X8.0425Y-4.3625
X8.075Y-4.46
X8.115Y-5.1
X8.12Y-4.68
X8.13Y-5.335
X8.15Y-1.025
X8.215Y-4.4
X8.25Y-4.455
X8.275Y-4.335
X8.295Y-5.33
X8.3Y-4.965
X8.3Y-5.155
X8.33Y-4.675
X8.385Y-3.33
X8.475Y-4.07
X8.475Y-5.295
X8.495Y-2.575
X8.495Y-5.4
X8.5Y-4.93
X8.5Y-5.0
X8.55Y-4.73
X8.615Y-5.3
X8.63Y-5.425
X8.635Y-5.54
X8.635Y-5.665
X8.64Y-5.8
X8.64Y-5.915
X8.675Y-3.785
X8.68Y-4.735
X8.68Y-4.865
X8.685Y-4.97
X8.725Y-4.285
X8.735Y-5.42
X8.735Y-5.55
X8.74Y-5.665
X8.74Y-5.8
X8.74Y-5.915
X8.745Y-4.015
X8.78Y-3.55
X8.78Y-5.255
X8.81Y-3.6
X8.825Y-4.725
X8.8275Y-5.3775
X8.855Y-5.26
X8.875Y-3.635
X8.875Y-5.34
X8.885Y-5.89
X8.89Y-5.76
X9.005Y-5.75
X9.01Y-5.895
X9.06Y-5.02
X9.065Y-5.185
X9.065Y-5.34
X9.155Y-6.07
T3
X4.0763Y-4.8338
X4.2923Y-3.7587
X4.615Y-2.9
X4.6783Y-2.1533
X4.68Y-2.575
X4.925Y-4.75
X5.045Y-2.635
X5.7854Y-1.725
X6.245Y-4.42
X6.53Y-4.415
T4
X4.115Y-5.285
X4.1766Y-1.6
X4.275Y-1.6
X4.5266Y-1.0
X4.625Y-1.0
X4.715Y-5.285
X4.75Y-3.8526
X4.75Y-3.951
X5.05Y-1.4266
X5.05Y-1.525
X5.075Y-1.8526
X5.075Y-1.951
X5.075Y-2.3276
X5.075Y-2.426
X5.2071Y-4.9
X5.4Y-4.9
X6.0Y-1.174
X6.0Y-1.2724
X6.6516Y-2.275
X6.75Y-2.275
X7.85Y-4.8785
X7.85Y-5.0715
T5
X4.0344Y-5.65
X4.1329Y-5.65
X4.2313Y-5.65
X4.3297Y-5.65
X4.4281Y-5.65
X4.5266Y-5.65
X4.625Y-5.65
X4.7234Y-5.65
X4.8219Y-5.65
X5.2797Y-5.65
X5.3781Y-5.65
X5.4766Y-5.65
X5.575Y-5.65
X6.2313Y-5.65
X6.3297Y-5.65
X6.4281Y-5.65
X6.5266Y-5.65
X6.625Y-5.65
X6.7234Y-5.65
X6.8219Y-5.65
X7.2766Y-5.6642
X7.375Y-5.6642
X7.4734Y-5.6642
T6
X4.0Y-2.2516
X4.0Y-2.35
X4.25Y-2.2
X4.25Y-2.425
X4.95Y-3.525
X5.175Y-3.525
X5.4Y-3.525
X5.6043Y-1.8
X5.6043Y-2.35
X5.7Y-3.275
X5.7043Y-2.75
X5.8Y-3.275
X5.8543Y-2.75
X5.9Y-3.275
X6.0Y-3.275
X6.0Y-3.85
X6.0Y-4.075
X6.0043Y-2.75
X6.1Y-3.275
X6.25Y-4.575
X6.3Y-5.175
X6.425Y-2.525
X6.425Y-2.7
X6.425Y-4.575
X6.525Y-5.175
X6.55Y-3.85
X6.725Y-5.175
X6.9Y-5.175
X7.0236Y-4.525
X7.095Y-2.2
X7.6293Y-1.0892
X7.6293Y-1.2392
X7.875Y-4.0
X7.875Y-4.1
X8.05Y-5.775
X8.2082Y-2.1512
X8.25Y-5.775
X8.3067Y-1.4622
X8.4051Y-2.1512
X8.45Y-5.775
X8.5035Y-1.4622
X8.6019Y-2.1512
X8.9Y-5.6022
X8.9984Y-5.6022
X9.14Y-3.655
T7
X7.6472Y-3.0272
X7.6472Y-3.2043
X7.9031Y-3.0272
X7.9031Y-3.2043
X8.2771Y-3.0272
X8.2771Y-3.2043
X8.533Y-3.0272
X8.533Y-3.2043
X8.907Y-3.0272
X8.907Y-3.2043
X9.163Y-3.0272
X9.163Y-3.2043
T9
X3.72Y-0.911
X3.72Y-2.722
X7.4602Y-4.1
X9.035Y-4.1
T8
G00X8.1Y-1.7083
M15
G01X8.1Y-1.7673
M16
G05
G00X8.7102Y-1.7673
M15
G01X8.7102Y-1.7083
M16
G05
T0
M30
