G04 #@! TF.GenerationSoftware,KiCad,Pcbnew,7.0.1*
G04 #@! TF.CreationDate,2023-04-22T18:43:02+03:00*
G04 #@! TF.ProjectId,esp_radio,6573705f-7261-4646-996f-2e6b69636164,rev?*
G04 #@! TF.SameCoordinates,Original*
G04 #@! TF.FileFunction,Soldermask,Top*
G04 #@! TF.FilePolarity,Negative*
%FSLAX46Y46*%
G04 Gerber Fmt 4.6, Leading zero omitted, Abs format (unit mm)*
G04 Created by KiCad (PCBNEW 7.0.1) date 2023-04-22 18:43:02*
%MOMM*%
%LPD*%
G01*
G04 APERTURE LIST*
G04 Aperture macros list*
%AMRoundRect*
0 Rectangle with rounded corners*
0 $1 Rounding radius*
0 $2 $3 $4 $5 $6 $7 $8 $9 X,Y pos of 4 corners*
0 Add a 4 corners polygon primitive as box body*
4,1,4,$2,$3,$4,$5,$6,$7,$8,$9,$2,$3,0*
0 Add four circle primitives for the rounded corners*
1,1,$1+$1,$2,$3*
1,1,$1+$1,$4,$5*
1,1,$1+$1,$6,$7*
1,1,$1+$1,$8,$9*
0 Add four rect primitives between the rounded corners*
20,1,$1+$1,$2,$3,$4,$5,0*
20,1,$1+$1,$4,$5,$6,$7,0*
20,1,$1+$1,$6,$7,$8,$9,0*
20,1,$1+$1,$8,$9,$2,$3,0*%
%AMFreePoly0*
4,1,19,0.500000,-0.750000,0.000000,-0.750000,0.000000,-0.744911,-0.071157,-0.744911,-0.207708,-0.704816,-0.327430,-0.627875,-0.420627,-0.520320,-0.479746,-0.390866,-0.500000,-0.250000,-0.500000,0.250000,-0.479746,0.390866,-0.420627,0.520320,-0.327430,0.627875,-0.207708,0.704816,-0.071157,0.744911,0.000000,0.744911,0.000000,0.750000,0.500000,0.750000,0.500000,-0.750000,0.500000,-0.750000,
$1*%
%AMFreePoly1*
4,1,19,0.000000,0.744911,0.071157,0.744911,0.207708,0.704816,0.327430,0.627875,0.420627,0.520320,0.479746,0.390866,0.500000,0.250000,0.500000,-0.250000,0.479746,-0.390866,0.420627,-0.520320,0.327430,-0.627875,0.207708,-0.704816,0.071157,-0.744911,0.000000,-0.744911,0.000000,-0.750000,-0.500000,-0.750000,-0.500000,0.750000,0.000000,0.750000,0.000000,0.744911,0.000000,0.744911,
$1*%
G04 Aperture macros list end*
%ADD10R,1.600000X1.600000*%
%ADD11C,1.600000*%
%ADD12RoundRect,0.250000X0.450000X-0.350000X0.450000X0.350000X-0.450000X0.350000X-0.450000X-0.350000X0*%
%ADD13RoundRect,0.250000X-0.350000X-0.450000X0.350000X-0.450000X0.350000X0.450000X-0.350000X0.450000X0*%
%ADD14C,3.400000*%
%ADD15C,6.000000*%
%ADD16RoundRect,0.250000X0.350000X0.450000X-0.350000X0.450000X-0.350000X-0.450000X0.350000X-0.450000X0*%
%ADD17RoundRect,0.250000X0.475000X-0.337500X0.475000X0.337500X-0.475000X0.337500X-0.475000X-0.337500X0*%
%ADD18C,2.000000*%
%ADD19RoundRect,0.250000X-0.450000X0.350000X-0.450000X-0.350000X0.450000X-0.350000X0.450000X0.350000X0*%
%ADD20RoundRect,0.150000X-0.150000X0.587500X-0.150000X-0.587500X0.150000X-0.587500X0.150000X0.587500X0*%
%ADD21RoundRect,0.250000X-0.600000X-0.725000X0.600000X-0.725000X0.600000X0.725000X-0.600000X0.725000X0*%
%ADD22O,1.700000X1.950000*%
%ADD23R,1.700000X1.700000*%
%ADD24R,2.000000X1.500000*%
%ADD25R,2.000000X3.800000*%
%ADD26R,1.120000X2.440000*%
%ADD27RoundRect,0.250000X-0.337500X-0.475000X0.337500X-0.475000X0.337500X0.475000X-0.337500X0.475000X0*%
%ADD28RoundRect,0.250001X0.624999X-0.462499X0.624999X0.462499X-0.624999X0.462499X-0.624999X-0.462499X0*%
%ADD29RoundRect,0.250000X0.337500X0.475000X-0.337500X0.475000X-0.337500X-0.475000X0.337500X-0.475000X0*%
%ADD30R,2.000000X2.000000*%
%ADD31R,2.500000X4.000000*%
%ADD32RoundRect,0.075000X-0.662500X-0.075000X0.662500X-0.075000X0.662500X0.075000X-0.662500X0.075000X0*%
%ADD33RoundRect,0.075000X-0.075000X-0.662500X0.075000X-0.662500X0.075000X0.662500X-0.075000X0.662500X0*%
%ADD34RoundRect,0.150000X0.587500X0.150000X-0.587500X0.150000X-0.587500X-0.150000X0.587500X-0.150000X0*%
%ADD35RoundRect,0.250001X-1.074999X0.462499X-1.074999X-0.462499X1.074999X-0.462499X1.074999X0.462499X0*%
%ADD36RoundRect,0.250000X-0.475000X0.337500X-0.475000X-0.337500X0.475000X-0.337500X0.475000X0.337500X0*%
%ADD37FreePoly0,0.000000*%
%ADD38FreePoly1,0.000000*%
%ADD39C,1.500000*%
%ADD40RoundRect,0.150000X0.850000X0.150000X-0.850000X0.150000X-0.850000X-0.150000X0.850000X-0.150000X0*%
%ADD41RoundRect,0.150000X0.725000X0.150000X-0.725000X0.150000X-0.725000X-0.150000X0.725000X-0.150000X0*%
%ADD42RoundRect,0.250001X-0.624999X0.462499X-0.624999X-0.462499X0.624999X-0.462499X0.624999X0.462499X0*%
%ADD43RoundRect,0.250001X0.462499X1.074999X-0.462499X1.074999X-0.462499X-1.074999X0.462499X-1.074999X0*%
%ADD44FreePoly0,180.000000*%
%ADD45FreePoly1,180.000000*%
%ADD46RoundRect,0.150000X-0.825000X-0.150000X0.825000X-0.150000X0.825000X0.150000X-0.825000X0.150000X0*%
%ADD47O,3.000000X0.900000*%
%ADD48C,0.800000*%
%ADD49R,5.000000X5.000000*%
%ADD50O,1.700000X1.700000*%
%ADD51RoundRect,0.250000X-1.500000X-0.900000X1.500000X-0.900000X1.500000X0.900000X-1.500000X0.900000X0*%
%ADD52C,2.374900*%
%ADD53C,0.990600*%
%ADD54C,0.787400*%
%ADD55O,1.600000X1.600000*%
%ADD56RoundRect,0.250000X-1.000000X-0.900000X1.000000X-0.900000X1.000000X0.900000X-1.000000X0.900000X0*%
%ADD57RoundRect,0.250000X1.500000X0.900000X-1.500000X0.900000X-1.500000X-0.900000X1.500000X-0.900000X0*%
%ADD58R,0.700000X1.000000*%
%ADD59R,0.700000X0.600000*%
%ADD60RoundRect,0.150000X-0.587500X-0.150000X0.587500X-0.150000X0.587500X0.150000X-0.587500X0.150000X0*%
%ADD61RoundRect,0.150000X0.875000X0.150000X-0.875000X0.150000X-0.875000X-0.150000X0.875000X-0.150000X0*%
%ADD62R,1.000000X1.500000*%
%ADD63RoundRect,0.250000X0.600000X0.725000X-0.600000X0.725000X-0.600000X-0.725000X0.600000X-0.725000X0*%
%ADD64RoundRect,0.250000X0.750000X-0.600000X0.750000X0.600000X-0.750000X0.600000X-0.750000X-0.600000X0*%
%ADD65O,2.000000X1.700000*%
%ADD66RoundRect,0.250000X0.600000X0.750000X-0.600000X0.750000X-0.600000X-0.750000X0.600000X-0.750000X0*%
%ADD67O,1.700000X2.000000*%
G04 #@! TA.AperFunction,Profile*
%ADD68C,0.100000*%
G04 #@! TD*
G04 APERTURE END LIST*
D10*
X152400000Y-32320113D03*
D11*
X152400000Y-29820113D03*
D12*
X204470000Y-117443000D03*
X204470000Y-115443000D03*
D13*
X199820000Y-87630000D03*
X201820000Y-87630000D03*
D14*
X94489000Y-69140000D03*
D15*
X94489000Y-69140000D03*
D16*
X135890000Y-128270000D03*
X133890000Y-128270000D03*
D17*
X159385000Y-30882500D03*
X159385000Y-28807500D03*
D18*
X165735000Y-131445000D03*
D19*
X209550000Y-139700000D03*
X209550000Y-141700000D03*
D12*
X125730000Y-84820000D03*
X125730000Y-82820000D03*
X181864000Y-129032000D03*
X181864000Y-127032000D03*
D16*
X146780000Y-97790000D03*
X144780000Y-97790000D03*
D18*
X158750000Y-116205000D03*
X204470000Y-146685000D03*
D20*
X195719500Y-148729500D03*
X193819500Y-148729500D03*
X194769500Y-150604500D03*
D21*
X134105000Y-143510000D03*
D22*
X136605000Y-143510000D03*
X139105000Y-143510000D03*
X141605000Y-143510000D03*
D16*
X190595000Y-61595000D03*
X188595000Y-61595000D03*
D23*
X180213000Y-55880000D03*
D12*
X137270000Y-46720000D03*
X137270000Y-44720000D03*
D18*
X170815000Y-131445000D03*
D24*
X118830000Y-36590000D03*
X118830000Y-34290000D03*
D25*
X112530000Y-34290000D03*
D24*
X118830000Y-31990000D03*
D26*
X144780000Y-23635000D03*
X144780000Y-32245000D03*
D18*
X209550000Y-146685000D03*
D27*
X169777500Y-64770000D03*
X171852500Y-64770000D03*
D18*
X107950000Y-61595000D03*
D28*
X226187000Y-125566500D03*
X226187000Y-122591500D03*
D29*
X129942500Y-118745000D03*
X127867500Y-118745000D03*
D30*
X208489000Y-54640000D03*
D18*
X218489000Y-54640000D03*
X213489000Y-54640000D03*
D31*
X205739000Y-44140000D03*
X221239000Y-44140000D03*
D18*
X210989000Y-37140000D03*
X215989000Y-37140000D03*
D17*
X144780000Y-109622500D03*
X144780000Y-107547500D03*
D29*
X180107500Y-150876000D03*
X178032500Y-150876000D03*
X134387500Y-95250000D03*
X132312500Y-95250000D03*
D32*
X131382500Y-107457500D03*
X131382500Y-107957500D03*
X131382500Y-108457500D03*
X131382500Y-108957500D03*
X131382500Y-109457500D03*
X131382500Y-109957500D03*
X131382500Y-110457500D03*
X131382500Y-110957500D03*
X131382500Y-111457500D03*
X131382500Y-111957500D03*
X131382500Y-112457500D03*
X131382500Y-112957500D03*
D33*
X132795000Y-114370000D03*
X133295000Y-114370000D03*
X133795000Y-114370000D03*
X134295000Y-114370000D03*
X134795000Y-114370000D03*
X135295000Y-114370000D03*
X135795000Y-114370000D03*
X136295000Y-114370000D03*
X136795000Y-114370000D03*
X137295000Y-114370000D03*
X137795000Y-114370000D03*
X138295000Y-114370000D03*
D32*
X139707500Y-112957500D03*
X139707500Y-112457500D03*
X139707500Y-111957500D03*
X139707500Y-111457500D03*
X139707500Y-110957500D03*
X139707500Y-110457500D03*
X139707500Y-109957500D03*
X139707500Y-109457500D03*
X139707500Y-108957500D03*
X139707500Y-108457500D03*
X139707500Y-107957500D03*
X139707500Y-107457500D03*
D33*
X138295000Y-106045000D03*
X137795000Y-106045000D03*
X137295000Y-106045000D03*
X136795000Y-106045000D03*
X136295000Y-106045000D03*
X135795000Y-106045000D03*
X135295000Y-106045000D03*
X134795000Y-106045000D03*
X134295000Y-106045000D03*
X133795000Y-106045000D03*
X133295000Y-106045000D03*
X132795000Y-106045000D03*
D18*
X131445000Y-89535000D03*
X142350000Y-45720000D03*
X193785000Y-27665000D03*
D19*
X124587000Y-130461000D03*
X124587000Y-132461000D03*
X204470000Y-139700000D03*
X204470000Y-141700000D03*
D34*
X184182500Y-61275000D03*
X184182500Y-59375000D03*
X182307500Y-60325000D03*
D27*
X127465000Y-99695000D03*
X129540000Y-99695000D03*
D35*
X137270000Y-51852500D03*
X137270000Y-54827500D03*
D36*
X221615000Y-78337500D03*
X221615000Y-80412500D03*
D10*
X128905000Y-47054888D03*
D11*
X128905000Y-49554888D03*
D36*
X122555000Y-59922500D03*
X122555000Y-61997500D03*
D19*
X197609600Y-135519500D03*
X197609600Y-137519500D03*
D18*
X232739000Y-81390000D03*
X226239000Y-81390000D03*
X232739000Y-76890000D03*
X226239000Y-76890000D03*
D26*
X192900000Y-48480000D03*
X192900000Y-39870000D03*
D19*
X199898000Y-135519500D03*
X199898000Y-137519500D03*
D37*
X177740000Y-60325000D03*
D38*
X179040000Y-60325000D03*
D12*
X189865000Y-34020000D03*
X189865000Y-32020000D03*
D23*
X232156000Y-92837000D03*
D39*
X199390000Y-128815000D03*
X199390000Y-123915000D03*
D36*
X126365000Y-105875000D03*
X126365000Y-107950000D03*
D18*
X137160000Y-89535000D03*
D24*
X118830000Y-61990000D03*
X118830000Y-59690000D03*
D25*
X112530000Y-59690000D03*
D24*
X118830000Y-57390000D03*
D40*
X213360000Y-132080000D03*
X213360000Y-130810000D03*
X213360000Y-129540000D03*
X213360000Y-128270000D03*
X213360000Y-127000000D03*
X213360000Y-125730000D03*
X213360000Y-124460000D03*
X213360000Y-123190000D03*
X208360000Y-123190000D03*
X208360000Y-124460000D03*
X208360000Y-125730000D03*
X208360000Y-127000000D03*
X208360000Y-128270000D03*
X208360000Y-129540000D03*
X208360000Y-130810000D03*
X208360000Y-132080000D03*
D41*
X177165000Y-110490000D03*
X177165000Y-109220000D03*
X177165000Y-107950000D03*
X177165000Y-106680000D03*
X177165000Y-105410000D03*
X177165000Y-104140000D03*
X177165000Y-102870000D03*
X177165000Y-101600000D03*
X172015000Y-101600000D03*
X172015000Y-102870000D03*
X172015000Y-104140000D03*
X172015000Y-105410000D03*
X172015000Y-106680000D03*
X172015000Y-107950000D03*
X172015000Y-109220000D03*
X172015000Y-110490000D03*
D17*
X204470000Y-126535000D03*
X204470000Y-124460000D03*
D19*
X188849000Y-133747000D03*
X188849000Y-135747000D03*
D27*
X135085000Y-118745000D03*
X137160000Y-118745000D03*
D13*
X199725000Y-90170000D03*
X201725000Y-90170000D03*
D18*
X125730000Y-89535000D03*
D36*
X121285000Y-47222500D03*
X121285000Y-49297500D03*
D42*
X220980000Y-130375000D03*
X220980000Y-133350000D03*
D14*
X94489000Y-23140000D03*
D15*
X94489000Y-23140000D03*
D13*
X199820000Y-95250000D03*
X201820000Y-95250000D03*
D36*
X142240000Y-122152500D03*
X142240000Y-124227500D03*
D17*
X152400000Y-110257500D03*
X152400000Y-108182500D03*
D21*
X102475000Y-143510000D03*
D22*
X104975000Y-143510000D03*
X107475000Y-143510000D03*
X109975000Y-143510000D03*
X112475000Y-143510000D03*
X114975000Y-143510000D03*
X117475000Y-143510000D03*
X119975000Y-143510000D03*
X122475000Y-143510000D03*
D17*
X217170000Y-133350000D03*
X217170000Y-131275000D03*
D19*
X214630000Y-139700000D03*
X214630000Y-141700000D03*
D12*
X131445000Y-84725000D03*
X131445000Y-82725000D03*
D43*
X131445000Y-29210000D03*
X128470000Y-29210000D03*
D44*
X117602000Y-69215000D03*
D45*
X116302000Y-69215000D03*
D46*
X168405000Y-67310000D03*
X168405000Y-68580000D03*
X168405000Y-69850000D03*
X168405000Y-71120000D03*
X168405000Y-72390000D03*
X168405000Y-73660000D03*
X168405000Y-74930000D03*
X168405000Y-76200000D03*
X173355000Y-76200000D03*
X173355000Y-74930000D03*
X173355000Y-73660000D03*
X173355000Y-72390000D03*
X173355000Y-71120000D03*
X173355000Y-69850000D03*
X173355000Y-68580000D03*
X173355000Y-67310000D03*
D17*
X167640000Y-110744000D03*
X167640000Y-108669000D03*
D47*
X163580000Y-28575000D03*
X163580000Y-29845000D03*
X163580000Y-31115000D03*
X163580000Y-32385000D03*
X163580000Y-33655000D03*
X163580000Y-34925000D03*
X163580000Y-36195000D03*
X163580000Y-37465000D03*
X163580000Y-38735000D03*
X163580000Y-40005000D03*
X163580000Y-41275000D03*
X163580000Y-42545000D03*
X163580000Y-43815000D03*
X163580000Y-45085000D03*
X163580000Y-46385000D03*
X163580000Y-47655000D03*
X163580000Y-48925000D03*
X163580000Y-50195000D03*
X163580000Y-51465000D03*
X181580000Y-51465000D03*
X181580000Y-50195000D03*
X181580000Y-48925000D03*
X181580000Y-47655000D03*
X181580000Y-46385000D03*
X181610000Y-45085000D03*
X181610000Y-43815000D03*
X181610000Y-42545000D03*
X181610000Y-41275000D03*
X181610000Y-40005000D03*
X181610000Y-38735000D03*
X181610000Y-37465000D03*
X181610000Y-36195000D03*
X181610000Y-34925000D03*
X181610000Y-33655000D03*
X181610000Y-32385000D03*
X181610000Y-31115000D03*
X181610000Y-29845000D03*
X181610000Y-28575000D03*
D48*
X170180000Y-33485000D03*
X170180000Y-34485000D03*
X170180000Y-35485000D03*
X170180000Y-36485000D03*
X170180000Y-37485000D03*
X171180000Y-33485000D03*
X171180000Y-34485000D03*
X171180000Y-35485000D03*
X171180000Y-36485000D03*
X171180000Y-37485000D03*
X172180000Y-33485000D03*
X172180000Y-34485000D03*
X172180000Y-35485000D03*
D49*
X172180000Y-35495000D03*
D48*
X172180000Y-36485000D03*
X172180000Y-37485000D03*
X173180000Y-33485000D03*
X173180000Y-34485000D03*
X173180000Y-35485000D03*
X173180000Y-36485000D03*
X173180000Y-37485000D03*
X174180000Y-33485000D03*
X174180000Y-34485000D03*
X174180000Y-35485000D03*
X174180000Y-36485000D03*
X174180000Y-37485000D03*
D12*
X137270000Y-60690000D03*
X137270000Y-58690000D03*
D27*
X103208000Y-67056000D03*
X105283000Y-67056000D03*
D17*
X197739000Y-142240000D03*
X197739000Y-140165000D03*
D18*
X178400000Y-114935000D03*
D20*
X99613000Y-123160000D03*
X97713000Y-123160000D03*
X98663000Y-125035000D03*
D18*
X175260000Y-131445000D03*
X214630000Y-146685000D03*
D23*
X200025000Y-101600000D03*
D50*
X200025000Y-104140000D03*
D51*
X96200000Y-50165000D03*
X101600000Y-50165000D03*
D18*
X152400000Y-97790000D03*
D17*
X144780000Y-115105000D03*
X144780000Y-113030000D03*
D13*
X199725000Y-92710000D03*
X201725000Y-92710000D03*
D44*
X153797000Y-92456000D03*
D45*
X152497000Y-92456000D03*
D18*
X216739000Y-81390000D03*
X210239000Y-81390000D03*
X216739000Y-76890000D03*
X210239000Y-76890000D03*
D13*
X105061000Y-118618000D03*
X107061000Y-118618000D03*
D17*
X125730000Y-79142500D03*
X125730000Y-77067500D03*
D19*
X219837000Y-109744000D03*
X219837000Y-111744000D03*
D35*
X138430000Y-36612500D03*
X138430000Y-39587500D03*
D36*
X137795000Y-26670000D03*
X137795000Y-28745000D03*
D14*
X189489000Y-104140000D03*
D15*
X189489000Y-104140000D03*
D18*
X163195000Y-64135000D03*
D17*
X127000000Y-124227500D03*
X127000000Y-122152500D03*
D13*
X97663000Y-119017500D03*
X99663000Y-119017500D03*
D17*
X131445000Y-79375000D03*
X131445000Y-77300000D03*
D18*
X166370000Y-97790000D03*
D19*
X115443000Y-126492000D03*
X115443000Y-128492000D03*
D13*
X122460000Y-29210000D03*
X124460000Y-29210000D03*
D27*
X221339500Y-116967000D03*
X223414500Y-116967000D03*
D29*
X227097500Y-130175000D03*
X225022500Y-130175000D03*
D39*
X132260000Y-124460000D03*
X137160000Y-124460000D03*
D19*
X213741000Y-115332000D03*
X213741000Y-117332000D03*
D27*
X140165000Y-118745000D03*
X142240000Y-118745000D03*
D52*
X154305000Y-42545000D03*
D53*
X151765000Y-42545000D03*
D52*
X149225000Y-42545000D03*
X154305000Y-48260000D03*
X149225000Y-48260000D03*
D53*
X152781000Y-50165000D03*
X150749000Y-50165000D03*
D54*
X151130000Y-43815000D03*
X151130000Y-45085000D03*
X151130000Y-46355000D03*
X151130000Y-47625000D03*
X151130000Y-48895000D03*
X152400000Y-48895000D03*
X152400000Y-47625000D03*
X152400000Y-46355000D03*
X152400000Y-45085000D03*
X152400000Y-43815000D03*
D24*
X118170000Y-49290000D03*
X118170000Y-46990000D03*
D25*
X111870000Y-46990000D03*
D24*
X118170000Y-44690000D03*
D36*
X223393000Y-93726000D03*
X223393000Y-95801000D03*
D20*
X216088000Y-109933500D03*
X214188000Y-109933500D03*
X215138000Y-111808500D03*
D12*
X137160000Y-84820000D03*
X137160000Y-82820000D03*
D20*
X107376000Y-122760500D03*
X105476000Y-122760500D03*
X106426000Y-124635500D03*
D11*
X104521000Y-134239000D03*
D55*
X119761000Y-134239000D03*
D56*
X121040000Y-69215000D03*
X125340000Y-69215000D03*
D18*
X160020000Y-131445000D03*
D14*
X229489000Y-104140000D03*
D15*
X229489000Y-104140000D03*
D19*
X209042000Y-115713000D03*
X209042000Y-117713000D03*
D18*
X152510000Y-69850000D03*
D57*
X101600000Y-31115000D03*
X96200000Y-31115000D03*
D19*
X223774000Y-109744000D03*
X223774000Y-111744000D03*
D51*
X96360000Y-37465000D03*
X101760000Y-37465000D03*
D13*
X188595000Y-58420000D03*
X190595000Y-58420000D03*
D10*
X128270000Y-36235000D03*
D11*
X128270000Y-38735000D03*
D18*
X152400000Y-103505000D03*
D12*
X187960000Y-129032000D03*
X187960000Y-127032000D03*
D18*
X107950000Y-55880000D03*
D27*
X137625000Y-99695000D03*
X139700000Y-99695000D03*
D36*
X121920000Y-34522500D03*
X121920000Y-36597500D03*
D18*
X163195000Y-116205000D03*
D19*
X189865000Y-26940000D03*
X189865000Y-28940000D03*
D18*
X163195000Y-68580000D03*
D17*
X137160000Y-79142500D03*
X137160000Y-77067500D03*
D19*
X121285000Y-111030000D03*
X121285000Y-113030000D03*
D57*
X101760000Y-43815000D03*
X96360000Y-43815000D03*
D58*
X157115000Y-75450000D03*
D59*
X157115000Y-77150000D03*
X159115000Y-77150000D03*
X159115000Y-75250000D03*
D18*
X193785000Y-31475000D03*
D10*
X171450000Y-57785000D03*
D11*
X168950000Y-57785000D03*
D18*
X142350000Y-59690000D03*
D60*
X194705000Y-59375000D03*
X194705000Y-61275000D03*
X196580000Y-60325000D03*
D29*
X217572500Y-60325000D03*
X215497500Y-60325000D03*
X214630000Y-33020000D03*
X212555000Y-33020000D03*
D41*
X161925000Y-110490000D03*
X161925000Y-109220000D03*
X161925000Y-107950000D03*
X161925000Y-106680000D03*
X161925000Y-105410000D03*
X161925000Y-104140000D03*
X161925000Y-102870000D03*
X161925000Y-101600000D03*
X156775000Y-101600000D03*
X156775000Y-102870000D03*
X156775000Y-104140000D03*
X156775000Y-105410000D03*
X156775000Y-106680000D03*
X156775000Y-107950000D03*
X156775000Y-109220000D03*
X156775000Y-110490000D03*
D13*
X155464000Y-34798000D03*
X157464000Y-34798000D03*
D36*
X205740000Y-78337500D03*
X205740000Y-80412500D03*
D61*
X217375000Y-105410000D03*
X217375000Y-104140000D03*
X217375000Y-102870000D03*
X217375000Y-101600000D03*
X217375000Y-100330000D03*
X217375000Y-99060000D03*
X217375000Y-97790000D03*
X217375000Y-96520000D03*
X217375000Y-95250000D03*
X217375000Y-93980000D03*
X217375000Y-92710000D03*
X217375000Y-91440000D03*
X217375000Y-90170000D03*
X217375000Y-88900000D03*
X208075000Y-88900000D03*
X208075000Y-90170000D03*
X208075000Y-91440000D03*
X208075000Y-92710000D03*
X208075000Y-93980000D03*
X208075000Y-95250000D03*
X208075000Y-96520000D03*
X208075000Y-97790000D03*
X208075000Y-99060000D03*
X208075000Y-100330000D03*
X208075000Y-101600000D03*
X208075000Y-102870000D03*
X208075000Y-104140000D03*
X208075000Y-105410000D03*
D62*
X112365000Y-79375000D03*
X113665000Y-79375000D03*
X114965000Y-79375000D03*
D10*
X120650000Y-97854888D03*
D11*
X120650000Y-100354888D03*
D16*
X200898000Y-151765000D03*
X198898000Y-151765000D03*
D37*
X175895000Y-94615000D03*
D38*
X177195000Y-94615000D03*
D19*
X121285000Y-106315000D03*
X121285000Y-108315000D03*
D27*
X132312500Y-99695000D03*
X134387500Y-99695000D03*
D36*
X189865000Y-78105000D03*
X189865000Y-80180000D03*
D10*
X117475000Y-25400000D03*
D11*
X114975000Y-25400000D03*
D16*
X146780000Y-101600000D03*
X144780000Y-101600000D03*
D18*
X200739000Y-81390000D03*
X194239000Y-81390000D03*
X200739000Y-76890000D03*
X194239000Y-76890000D03*
D17*
X200152000Y-142240000D03*
X200152000Y-140165000D03*
X126365000Y-113030000D03*
X126365000Y-110955000D03*
D10*
X128905000Y-59119888D03*
D11*
X128905000Y-61619888D03*
D18*
X148700000Y-69850000D03*
X144890000Y-69850000D03*
D10*
X106085000Y-40640000D03*
D11*
X108585000Y-40640000D03*
D23*
X144780000Y-83185000D03*
D50*
X147320000Y-83185000D03*
X149860000Y-83185000D03*
X152400000Y-83185000D03*
X154940000Y-83185000D03*
D27*
X209782500Y-60325000D03*
X211857500Y-60325000D03*
D63*
X189825000Y-143870000D03*
D22*
X187325000Y-143870000D03*
X184825000Y-143870000D03*
D64*
X101600000Y-59690000D03*
D65*
X101600000Y-57190000D03*
D66*
X228560000Y-142295000D03*
D67*
X226060000Y-142295000D03*
D63*
X173275000Y-143510000D03*
D22*
X170775000Y-143510000D03*
X168275000Y-143510000D03*
X165775000Y-143510000D03*
X163275000Y-143510000D03*
X160775000Y-143510000D03*
X158275000Y-143510000D03*
D68*
X161925000Y-27305000D02*
X183519532Y-27305000D01*
X183519532Y-19050000D01*
X220980000Y-19050000D01*
X235589532Y-40640000D01*
X235589532Y-155575000D01*
X90174532Y-155575000D01*
X90174532Y-19050000D01*
X161925000Y-19050000D01*
X161925000Y-27305000D01*
X170894309Y-85140000D02*
G75*
G03*
X170894309Y-85140000I-4405309J0D01*
G01*
X100894309Y-85140000D02*
G75*
G03*
X100894309Y-85140000I-4405309J0D01*
G01*
M02*
